<?xml version="1.0" encoding="UTF-8"?>
<svg version="1.1" xmlns="http://www.w3.org/2000/svg" xmlns:xlink="http://www.w3.org/1999/xlink" viewBox="0 0 3300 2200">
 <g id="Notes">
  <rect height="2200" id="artboard" style="fill:white;opacity:1" width="3300" x="0" y="0"/>
 </g>
 <g id="Guides">
  <line id="Baseline-S" style="fill:none;stroke:#27AAE1;stroke-width:0.5;" x1="263" x2="3036" y1="696.0" y2="696.0"/>
  <line id="Capline-S" style="fill:none;stroke:#27AAE1;stroke-width:0.5;" x1="263" x2="3036" y1="626.0" y2="626.0"/>
  <line id="left-margin-Ultralight-S" style="fill:none;stroke:#FF3B30;stroke-width:0.5;" x1="515.84" x2="515.84" y1="601.0" y2="720.0"/>
  <line id="right-margin-Ultralight-S" style="fill:none;stroke:#00AEEF;stroke-width:0.5;" x1="585.84" x2="585.84" y1="601.0" y2="720.0"/>
  <line id="left-margin-Regular-S" style="fill:none;stroke:#FF3B30;stroke-width:0.5;" x1="1403.07" x2="1403.07" y1="601.0" y2="720.0"/>
  <line id="right-margin-Regular-S" style="fill:none;stroke:#00AEEF;stroke-width:0.5;" x1="1473.07" x2="1473.07" y1="601.0" y2="720.0"/>
  <line id="left-margin-Black-S" style="fill:none;stroke:#FF3B30;stroke-width:0.5;" x1="2881.72" x2="2881.72" y1="601.0" y2="720.0"/>
  <line id="right-margin-Black-S" style="fill:none;stroke:#00AEEF;stroke-width:0.5;" x1="2951.72" x2="2951.72" y1="601.0" y2="720.0"/>
  <line id="Baseline-M" style="fill:none;stroke:#27AAE1;stroke-width:0.5;" x1="263" x2="3036" y1="1126.0" y2="1126.0"/>
  <line id="Capline-M" style="fill:none;stroke:#27AAE1;stroke-width:0.5;" x1="263" x2="3036" y1="1056.0" y2="1056.0"/>
  <line id="left-margin-Ultralight-M" style="fill:none;stroke:#FF3B30;stroke-width:0.5;" x1="515.84" x2="515.84" y1="1031.0" y2="1150.0"/>
  <line id="right-margin-Ultralight-M" style="fill:none;stroke:#00AEEF;stroke-width:0.5;" x1="585.84" x2="585.84" y1="1031.0" y2="1150.0"/>
  <line id="left-margin-Regular-M" style="fill:none;stroke:#FF3B30;stroke-width:0.5;" x1="1403.07" x2="1403.07" y1="1031.0" y2="1150.0"/>
  <line id="right-margin-Regular-M" style="fill:none;stroke:#00AEEF;stroke-width:0.5;" x1="1473.07" x2="1473.07" y1="1031.0" y2="1150.0"/>
  <line id="left-margin-Black-M" style="fill:none;stroke:#FF3B30;stroke-width:0.5;" x1="2881.72" x2="2881.72" y1="1031.0" y2="1150.0"/>
  <line id="right-margin-Black-M" style="fill:none;stroke:#00AEEF;stroke-width:0.5;" x1="2951.72" x2="2951.72" y1="1031.0" y2="1150.0"/>
  <line id="Baseline-L" style="fill:none;stroke:#27AAE1;stroke-width:0.5;" x1="263" x2="3036" y1="1556.0" y2="1556.0"/>
  <line id="Capline-L" style="fill:none;stroke:#27AAE1;stroke-width:0.5;" x1="263" x2="3036" y1="1486.0" y2="1486.0"/>
  <line id="left-margin-Ultralight-L" style="fill:none;stroke:#FF3B30;stroke-width:0.5;" x1="515.84" x2="515.84" y1="1461.0" y2="1580.0"/>
  <line id="right-margin-Ultralight-L" style="fill:none;stroke:#00AEEF;stroke-width:0.5;" x1="585.84" x2="585.84" y1="1461.0" y2="1580.0"/>
  <line id="left-margin-Regular-L" style="fill:none;stroke:#FF3B30;stroke-width:0.5;" x1="1403.07" x2="1403.07" y1="1461.0" y2="1580.0"/>
  <line id="right-margin-Regular-L" style="fill:none;stroke:#00AEEF;stroke-width:0.5;" x1="1473.07" x2="1473.07" y1="1461.0" y2="1580.0"/>
  <line id="left-margin-Black-L" style="fill:none;stroke:#FF3B30;stroke-width:0.5;" x1="2881.72" x2="2881.72" y1="1461.0" y2="1580.0"/>
  <line id="right-margin-Black-L" style="fill:none;stroke:#00AEEF;stroke-width:0.5;" x1="2951.72" x2="2951.72" y1="1461.0" y2="1580.0"/>
 </g>
 <g id="Symbols">
  <g id="Ultralight-S" transform="matrix(0.375000 0 0 0.375000 515.84 613.0)">
   <path d="M248,122H238V88a14,14,0,0,0-14-14H206V64a14,14,0,0,0-14-14H168a14,14,0,0,0-14,14v58H102V64A14,14,0,0,0,88,50H64A14,14,0,0,0,50,64V74H32A14,14,0,0,0,18,88v34H8a6,6,0,0,0,0,12H18v34a14,14,0,0,0,14,14H50v10a14,14,0,0,0,14,14H88a14,14,0,0,0,14-14V134h52v58a14,14,0,0,0,14,14h24a14,14,0,0,0,14-14V182h18a14,14,0,0,0,14-14V134h10a6,6,0,0,0,0-12ZM32,170a2,2,0,0,1-2-2V88a2,2,0,0,1,2-2H50v84Zm58,22a2,2,0,0,1-2,2H64a2,2,0,0,1-2-2V64a2,2,0,0,1,2-2H88a2,2,0,0,1,2,2Zm104,0a2,2,0,0,1-2,2H168a2,2,0,0,1-2-2V64a2,2,0,0,1,2-2h24a2,2,0,0,1,2,2Zm32-24a2,2,0,0,1-2,2H206V86h18a2,2,0,0,1,2,2Z"/>
  </g>
  <g id="Regular-S" transform="matrix(0.375000 0 0 0.375000 1403.07 613.0)">
   <path d="M248,122H238V88a14,14,0,0,0-14-14H206V64a14,14,0,0,0-14-14H168a14,14,0,0,0-14,14v58H102V64A14,14,0,0,0,88,50H64A14,14,0,0,0,50,64V74H32A14,14,0,0,0,18,88v34H8a6,6,0,0,0,0,12H18v34a14,14,0,0,0,14,14H50v10a14,14,0,0,0,14,14H88a14,14,0,0,0,14-14V134h52v58a14,14,0,0,0,14,14h24a14,14,0,0,0,14-14V182h18a14,14,0,0,0,14-14V134h10a6,6,0,0,0,0-12ZM32,170a2,2,0,0,1-2-2V88a2,2,0,0,1,2-2H50v84Zm58,22a2,2,0,0,1-2,2H64a2,2,0,0,1-2-2V64a2,2,0,0,1,2-2H88a2,2,0,0,1,2,2Zm104,0a2,2,0,0,1-2,2H168a2,2,0,0,1-2-2V64a2,2,0,0,1,2-2h24a2,2,0,0,1,2,2Zm32-24a2,2,0,0,1-2,2H206V86h18a2,2,0,0,1,2,2Z"/>
  </g>
  <g id="Black-S" transform="matrix(0.375000 0 0 0.375000 2881.72 613.0)">
   <path d="M248,122H238V88a14,14,0,0,0-14-14H206V64a14,14,0,0,0-14-14H168a14,14,0,0,0-14,14v58H102V64A14,14,0,0,0,88,50H64A14,14,0,0,0,50,64V74H32A14,14,0,0,0,18,88v34H8a6,6,0,0,0,0,12H18v34a14,14,0,0,0,14,14H50v10a14,14,0,0,0,14,14H88a14,14,0,0,0,14-14V134h52v58a14,14,0,0,0,14,14h24a14,14,0,0,0,14-14V182h18a14,14,0,0,0,14-14V134h10a6,6,0,0,0,0-12ZM32,170a2,2,0,0,1-2-2V88a2,2,0,0,1,2-2H50v84Zm58,22a2,2,0,0,1-2,2H64a2,2,0,0,1-2-2V64a2,2,0,0,1,2-2H88a2,2,0,0,1,2,2Zm104,0a2,2,0,0,1-2,2H168a2,2,0,0,1-2-2V64a2,2,0,0,1,2-2h24a2,2,0,0,1,2,2Zm32-24a2,2,0,0,1-2,2H206V86h18a2,2,0,0,1,2,2Z"/>
  </g>
  <g id="Ultralight-M" transform="matrix(0.375000 0 0 0.375000 515.84 1043.0)">
   <path d="M248,122H238V88a14,14,0,0,0-14-14H206V64a14,14,0,0,0-14-14H168a14,14,0,0,0-14,14v58H102V64A14,14,0,0,0,88,50H64A14,14,0,0,0,50,64V74H32A14,14,0,0,0,18,88v34H8a6,6,0,0,0,0,12H18v34a14,14,0,0,0,14,14H50v10a14,14,0,0,0,14,14H88a14,14,0,0,0,14-14V134h52v58a14,14,0,0,0,14,14h24a14,14,0,0,0,14-14V182h18a14,14,0,0,0,14-14V134h10a6,6,0,0,0,0-12ZM32,170a2,2,0,0,1-2-2V88a2,2,0,0,1,2-2H50v84Zm58,22a2,2,0,0,1-2,2H64a2,2,0,0,1-2-2V64a2,2,0,0,1,2-2H88a2,2,0,0,1,2,2Zm104,0a2,2,0,0,1-2,2H168a2,2,0,0,1-2-2V64a2,2,0,0,1,2-2h24a2,2,0,0,1,2,2Zm32-24a2,2,0,0,1-2,2H206V86h18a2,2,0,0,1,2,2Z"/>
  </g>
  <g id="Regular-M" transform="matrix(0.375000 0 0 0.375000 1403.07 1043.0)">
   <path d="M248,122H238V88a14,14,0,0,0-14-14H206V64a14,14,0,0,0-14-14H168a14,14,0,0,0-14,14v58H102V64A14,14,0,0,0,88,50H64A14,14,0,0,0,50,64V74H32A14,14,0,0,0,18,88v34H8a6,6,0,0,0,0,12H18v34a14,14,0,0,0,14,14H50v10a14,14,0,0,0,14,14H88a14,14,0,0,0,14-14V134h52v58a14,14,0,0,0,14,14h24a14,14,0,0,0,14-14V182h18a14,14,0,0,0,14-14V134h10a6,6,0,0,0,0-12ZM32,170a2,2,0,0,1-2-2V88a2,2,0,0,1,2-2H50v84Zm58,22a2,2,0,0,1-2,2H64a2,2,0,0,1-2-2V64a2,2,0,0,1,2-2H88a2,2,0,0,1,2,2Zm104,0a2,2,0,0,1-2,2H168a2,2,0,0,1-2-2V64a2,2,0,0,1,2-2h24a2,2,0,0,1,2,2Zm32-24a2,2,0,0,1-2,2H206V86h18a2,2,0,0,1,2,2Z"/>
  </g>
  <g id="Black-M" transform="matrix(0.375000 0 0 0.375000 2881.72 1043.0)">
   <path d="M248,122H238V88a14,14,0,0,0-14-14H206V64a14,14,0,0,0-14-14H168a14,14,0,0,0-14,14v58H102V64A14,14,0,0,0,88,50H64A14,14,0,0,0,50,64V74H32A14,14,0,0,0,18,88v34H8a6,6,0,0,0,0,12H18v34a14,14,0,0,0,14,14H50v10a14,14,0,0,0,14,14H88a14,14,0,0,0,14-14V134h52v58a14,14,0,0,0,14,14h24a14,14,0,0,0,14-14V182h18a14,14,0,0,0,14-14V134h10a6,6,0,0,0,0-12ZM32,170a2,2,0,0,1-2-2V88a2,2,0,0,1,2-2H50v84Zm58,22a2,2,0,0,1-2,2H64a2,2,0,0,1-2-2V64a2,2,0,0,1,2-2H88a2,2,0,0,1,2,2Zm104,0a2,2,0,0,1-2,2H168a2,2,0,0,1-2-2V64a2,2,0,0,1,2-2h24a2,2,0,0,1,2,2Zm32-24a2,2,0,0,1-2,2H206V86h18a2,2,0,0,1,2,2Z"/>
  </g>
  <g id="Ultralight-L" transform="matrix(0.375000 0 0 0.375000 515.84 1473.0)">
   <path d="M248,122H238V88a14,14,0,0,0-14-14H206V64a14,14,0,0,0-14-14H168a14,14,0,0,0-14,14v58H102V64A14,14,0,0,0,88,50H64A14,14,0,0,0,50,64V74H32A14,14,0,0,0,18,88v34H8a6,6,0,0,0,0,12H18v34a14,14,0,0,0,14,14H50v10a14,14,0,0,0,14,14H88a14,14,0,0,0,14-14V134h52v58a14,14,0,0,0,14,14h24a14,14,0,0,0,14-14V182h18a14,14,0,0,0,14-14V134h10a6,6,0,0,0,0-12ZM32,170a2,2,0,0,1-2-2V88a2,2,0,0,1,2-2H50v84Zm58,22a2,2,0,0,1-2,2H64a2,2,0,0,1-2-2V64a2,2,0,0,1,2-2H88a2,2,0,0,1,2,2Zm104,0a2,2,0,0,1-2,2H168a2,2,0,0,1-2-2V64a2,2,0,0,1,2-2h24a2,2,0,0,1,2,2Zm32-24a2,2,0,0,1-2,2H206V86h18a2,2,0,0,1,2,2Z"/>
  </g>
  <g id="Regular-L" transform="matrix(0.375000 0 0 0.375000 1403.07 1473.0)">
   <path d="M248,122H238V88a14,14,0,0,0-14-14H206V64a14,14,0,0,0-14-14H168a14,14,0,0,0-14,14v58H102V64A14,14,0,0,0,88,50H64A14,14,0,0,0,50,64V74H32A14,14,0,0,0,18,88v34H8a6,6,0,0,0,0,12H18v34a14,14,0,0,0,14,14H50v10a14,14,0,0,0,14,14H88a14,14,0,0,0,14-14V134h52v58a14,14,0,0,0,14,14h24a14,14,0,0,0,14-14V182h18a14,14,0,0,0,14-14V134h10a6,6,0,0,0,0-12ZM32,170a2,2,0,0,1-2-2V88a2,2,0,0,1,2-2H50v84Zm58,22a2,2,0,0,1-2,2H64a2,2,0,0,1-2-2V64a2,2,0,0,1,2-2H88a2,2,0,0,1,2,2Zm104,0a2,2,0,0,1-2,2H168a2,2,0,0,1-2-2V64a2,2,0,0,1,2-2h24a2,2,0,0,1,2,2Zm32-24a2,2,0,0,1-2,2H206V86h18a2,2,0,0,1,2,2Z"/>
  </g>
  <g id="Black-L" transform="matrix(0.375000 0 0 0.375000 2881.72 1473.0)">
   <path d="M248,122H238V88a14,14,0,0,0-14-14H206V64a14,14,0,0,0-14-14H168a14,14,0,0,0-14,14v58H102V64A14,14,0,0,0,88,50H64A14,14,0,0,0,50,64V74H32A14,14,0,0,0,18,88v34H8a6,6,0,0,0,0,12H18v34a14,14,0,0,0,14,14H50v10a14,14,0,0,0,14,14H88a14,14,0,0,0,14-14V134h52v58a14,14,0,0,0,14,14h24a14,14,0,0,0,14-14V182h18a14,14,0,0,0,14-14V134h10a6,6,0,0,0,0-12ZM32,170a2,2,0,0,1-2-2V88a2,2,0,0,1,2-2H50v84Zm58,22a2,2,0,0,1-2,2H64a2,2,0,0,1-2-2V64a2,2,0,0,1,2-2H88a2,2,0,0,1,2,2Zm104,0a2,2,0,0,1-2,2H168a2,2,0,0,1-2-2V64a2,2,0,0,1,2-2h24a2,2,0,0,1,2,2Zm32-24a2,2,0,0,1-2,2H206V86h18a2,2,0,0,1,2,2Z"/>
  </g>
 </g>
</svg>
