<?xml version="1.0" encoding="UTF-8"?>
<svg version="1.1" xmlns="http://www.w3.org/2000/svg" xmlns:xlink="http://www.w3.org/1999/xlink" viewBox="0 0 3300 2200">
 <g id="Notes">
  <rect height="2200" id="artboard" style="fill:white;opacity:1" width="3300" x="0" y="0"/>
 </g>
 <g id="Guides">
  <line id="Baseline-S" style="fill:none;stroke:#27AAE1;stroke-width:0.5;" x1="263" x2="3036" y1="696.0" y2="696.0"/>
  <line id="Capline-S" style="fill:none;stroke:#27AAE1;stroke-width:0.5;" x1="263" x2="3036" y1="626.0" y2="626.0"/>
  <line id="left-margin-Ultralight-S" style="fill:none;stroke:#FF3B30;stroke-width:0.5;" x1="515.84" x2="515.84" y1="601.0" y2="720.0"/>
  <line id="right-margin-Ultralight-S" style="fill:none;stroke:#00AEEF;stroke-width:0.5;" x1="585.84" x2="585.84" y1="601.0" y2="720.0"/>
  <line id="left-margin-Regular-S" style="fill:none;stroke:#FF3B30;stroke-width:0.5;" x1="1403.07" x2="1403.07" y1="601.0" y2="720.0"/>
  <line id="right-margin-Regular-S" style="fill:none;stroke:#00AEEF;stroke-width:0.5;" x1="1473.07" x2="1473.07" y1="601.0" y2="720.0"/>
  <line id="left-margin-Black-S" style="fill:none;stroke:#FF3B30;stroke-width:0.5;" x1="2881.72" x2="2881.72" y1="601.0" y2="720.0"/>
  <line id="right-margin-Black-S" style="fill:none;stroke:#00AEEF;stroke-width:0.5;" x1="2951.72" x2="2951.72" y1="601.0" y2="720.0"/>
  <line id="Baseline-M" style="fill:none;stroke:#27AAE1;stroke-width:0.5;" x1="263" x2="3036" y1="1126.0" y2="1126.0"/>
  <line id="Capline-M" style="fill:none;stroke:#27AAE1;stroke-width:0.5;" x1="263" x2="3036" y1="1056.0" y2="1056.0"/>
  <line id="left-margin-Ultralight-M" style="fill:none;stroke:#FF3B30;stroke-width:0.5;" x1="515.84" x2="515.84" y1="1031.0" y2="1150.0"/>
  <line id="right-margin-Ultralight-M" style="fill:none;stroke:#00AEEF;stroke-width:0.5;" x1="585.84" x2="585.84" y1="1031.0" y2="1150.0"/>
  <line id="left-margin-Regular-M" style="fill:none;stroke:#FF3B30;stroke-width:0.5;" x1="1403.07" x2="1403.07" y1="1031.0" y2="1150.0"/>
  <line id="right-margin-Regular-M" style="fill:none;stroke:#00AEEF;stroke-width:0.5;" x1="1473.07" x2="1473.07" y1="1031.0" y2="1150.0"/>
  <line id="left-margin-Black-M" style="fill:none;stroke:#FF3B30;stroke-width:0.5;" x1="2881.72" x2="2881.72" y1="1031.0" y2="1150.0"/>
  <line id="right-margin-Black-M" style="fill:none;stroke:#00AEEF;stroke-width:0.5;" x1="2951.72" x2="2951.72" y1="1031.0" y2="1150.0"/>
  <line id="Baseline-L" style="fill:none;stroke:#27AAE1;stroke-width:0.5;" x1="263" x2="3036" y1="1556.0" y2="1556.0"/>
  <line id="Capline-L" style="fill:none;stroke:#27AAE1;stroke-width:0.5;" x1="263" x2="3036" y1="1486.0" y2="1486.0"/>
  <line id="left-margin-Ultralight-L" style="fill:none;stroke:#FF3B30;stroke-width:0.5;" x1="515.84" x2="515.84" y1="1461.0" y2="1580.0"/>
  <line id="right-margin-Ultralight-L" style="fill:none;stroke:#00AEEF;stroke-width:0.5;" x1="585.84" x2="585.84" y1="1461.0" y2="1580.0"/>
  <line id="left-margin-Regular-L" style="fill:none;stroke:#FF3B30;stroke-width:0.5;" x1="1403.07" x2="1403.07" y1="1461.0" y2="1580.0"/>
  <line id="right-margin-Regular-L" style="fill:none;stroke:#00AEEF;stroke-width:0.5;" x1="1473.07" x2="1473.07" y1="1461.0" y2="1580.0"/>
  <line id="left-margin-Black-L" style="fill:none;stroke:#FF3B30;stroke-width:0.5;" x1="2881.72" x2="2881.72" y1="1461.0" y2="1580.0"/>
  <line id="right-margin-Black-L" style="fill:none;stroke:#00AEEF;stroke-width:0.5;" x1="2951.72" x2="2951.72" y1="1461.0" y2="1580.0"/>
 </g>
 <g id="Symbols">
  <g id="Ultralight-S" transform="matrix(0.273438 0 0 0.273438 515.84 626.0)">
   <path d="M221.83,150.57a6,6,0,0,1-4.4,7.26l-26.62,6.54,7,26.08a6,6,0,0,1-4.24,7.35,6.4,6.4,0,0,1-1.55.2,6,6,0,0,1-5.8-4.45L178.27,164,134,138.39v51.13l22.24,22.24a6,6,0,1,1-8.48,8.48L128,200.49l-19.76,19.75a6,6,0,0,1-8.48-8.48L122,189.52V138.39L77.73,164l-7.93,29.6A6,6,0,0,1,64,198a6.4,6.4,0,0,1-1.55-.2,6,6,0,0,1-4.24-7.35l7-26.08-26.62-6.54a6,6,0,0,1,2.86-11.66l30.23,7.43L116,128,71.66,102.4l-30.23,7.43A5.88,5.88,0,0,1,40,110a6,6,0,0,1-1.43-11.83l26.62-6.54-7-26.08a6,6,0,1,1,11.59-3.1l7.93,29.6L122,117.61V66.48L99.76,44.24a6,6,0,0,1,8.48-8.48L128,55.51l19.76-19.75a6,6,0,0,1,8.48,8.48L134,66.48v51.13l44.27-25.56,7.93-29.6a6,6,0,1,1,11.59,3.1l-7,26.08,26.62,6.54A6,6,0,0,1,216,110a5.88,5.88,0,0,1-1.43-.17l-30.23-7.43L140,128l44.34,25.6,30.23-7.43A6,6,0,0,1,221.83,150.57Z"/>
  </g>
  <g id="Regular-S" transform="matrix(0.273438 0 0 0.273438 1403.07 626.0)">
   <path d="M221.83,150.57a6,6,0,0,1-4.4,7.26l-26.62,6.54,7,26.08a6,6,0,0,1-4.24,7.35,6.4,6.4,0,0,1-1.55.2,6,6,0,0,1-5.8-4.45L178.27,164,134,138.39v51.13l22.24,22.24a6,6,0,1,1-8.48,8.48L128,200.49l-19.76,19.75a6,6,0,0,1-8.48-8.48L122,189.52V138.39L77.73,164l-7.93,29.6A6,6,0,0,1,64,198a6.4,6.4,0,0,1-1.55-.2,6,6,0,0,1-4.24-7.35l7-26.08-26.62-6.54a6,6,0,0,1,2.86-11.66l30.23,7.43L116,128,71.66,102.4l-30.23,7.43A5.88,5.88,0,0,1,40,110a6,6,0,0,1-1.43-11.83l26.62-6.54-7-26.08a6,6,0,1,1,11.59-3.1l7.93,29.6L122,117.61V66.48L99.76,44.24a6,6,0,0,1,8.48-8.48L128,55.51l19.76-19.75a6,6,0,0,1,8.48,8.48L134,66.48v51.13l44.27-25.56,7.93-29.6a6,6,0,1,1,11.59,3.1l-7,26.08,26.62,6.54A6,6,0,0,1,216,110a5.88,5.88,0,0,1-1.43-.17l-30.23-7.43L140,128l44.34,25.6,30.23-7.43A6,6,0,0,1,221.83,150.57Z"/>
  </g>
  <g id="Black-S" transform="matrix(0.273438 0 0 0.273438 2881.72 626.0)">
   <path d="M221.83,150.57a6,6,0,0,1-4.4,7.26l-26.62,6.54,7,26.08a6,6,0,0,1-4.24,7.35,6.4,6.4,0,0,1-1.55.2,6,6,0,0,1-5.8-4.45L178.27,164,134,138.39v51.13l22.24,22.24a6,6,0,1,1-8.48,8.48L128,200.49l-19.76,19.75a6,6,0,0,1-8.48-8.48L122,189.52V138.39L77.73,164l-7.93,29.6A6,6,0,0,1,64,198a6.4,6.4,0,0,1-1.55-.2,6,6,0,0,1-4.24-7.35l7-26.08-26.62-6.54a6,6,0,0,1,2.86-11.66l30.23,7.43L116,128,71.66,102.4l-30.23,7.43A5.88,5.88,0,0,1,40,110a6,6,0,0,1-1.43-11.83l26.62-6.54-7-26.08a6,6,0,1,1,11.59-3.1l7.93,29.6L122,117.61V66.48L99.76,44.24a6,6,0,0,1,8.48-8.48L128,55.51l19.76-19.75a6,6,0,0,1,8.48,8.48L134,66.48v51.13l44.27-25.56,7.93-29.6a6,6,0,1,1,11.59,3.1l-7,26.08,26.62,6.54A6,6,0,0,1,216,110a5.88,5.88,0,0,1-1.43-.17l-30.23-7.43L140,128l44.34,25.6,30.23-7.43A6,6,0,0,1,221.83,150.57Z"/>
  </g>
  <g id="Ultralight-M" transform="matrix(0.273438 0 0 0.273438 515.84 1056.0)">
   <path d="M221.83,150.57a6,6,0,0,1-4.4,7.26l-26.62,6.54,7,26.08a6,6,0,0,1-4.24,7.35,6.4,6.4,0,0,1-1.55.2,6,6,0,0,1-5.8-4.45L178.27,164,134,138.39v51.13l22.24,22.24a6,6,0,1,1-8.48,8.48L128,200.49l-19.76,19.75a6,6,0,0,1-8.48-8.48L122,189.52V138.39L77.73,164l-7.93,29.6A6,6,0,0,1,64,198a6.4,6.4,0,0,1-1.55-.2,6,6,0,0,1-4.24-7.35l7-26.08-26.62-6.54a6,6,0,0,1,2.86-11.66l30.23,7.43L116,128,71.66,102.4l-30.23,7.43A5.88,5.88,0,0,1,40,110a6,6,0,0,1-1.43-11.83l26.62-6.54-7-26.08a6,6,0,1,1,11.59-3.1l7.93,29.6L122,117.61V66.48L99.76,44.24a6,6,0,0,1,8.48-8.48L128,55.51l19.76-19.75a6,6,0,0,1,8.48,8.48L134,66.48v51.13l44.27-25.56,7.93-29.6a6,6,0,1,1,11.59,3.1l-7,26.08,26.62,6.54A6,6,0,0,1,216,110a5.88,5.88,0,0,1-1.43-.17l-30.23-7.43L140,128l44.34,25.6,30.23-7.43A6,6,0,0,1,221.83,150.57Z"/>
  </g>
  <g id="Regular-M" transform="matrix(0.273438 0 0 0.273438 1403.07 1056.0)">
   <path d="M221.83,150.57a6,6,0,0,1-4.4,7.26l-26.62,6.54,7,26.08a6,6,0,0,1-4.24,7.35,6.4,6.4,0,0,1-1.55.2,6,6,0,0,1-5.8-4.45L178.27,164,134,138.39v51.13l22.24,22.24a6,6,0,1,1-8.48,8.48L128,200.49l-19.76,19.75a6,6,0,0,1-8.48-8.48L122,189.52V138.39L77.73,164l-7.93,29.6A6,6,0,0,1,64,198a6.4,6.4,0,0,1-1.55-.2,6,6,0,0,1-4.24-7.35l7-26.08-26.62-6.54a6,6,0,0,1,2.86-11.66l30.23,7.43L116,128,71.66,102.4l-30.23,7.43A5.88,5.88,0,0,1,40,110a6,6,0,0,1-1.43-11.83l26.62-6.54-7-26.08a6,6,0,1,1,11.59-3.1l7.93,29.6L122,117.61V66.48L99.76,44.24a6,6,0,0,1,8.48-8.48L128,55.51l19.76-19.75a6,6,0,0,1,8.48,8.48L134,66.48v51.13l44.27-25.56,7.93-29.6a6,6,0,1,1,11.59,3.1l-7,26.08,26.62,6.54A6,6,0,0,1,216,110a5.88,5.88,0,0,1-1.43-.17l-30.23-7.43L140,128l44.34,25.6,30.23-7.43A6,6,0,0,1,221.83,150.57Z"/>
  </g>
  <g id="Black-M" transform="matrix(0.273438 0 0 0.273438 2881.72 1056.0)">
   <path d="M221.83,150.57a6,6,0,0,1-4.4,7.26l-26.62,6.54,7,26.08a6,6,0,0,1-4.24,7.35,6.4,6.4,0,0,1-1.55.2,6,6,0,0,1-5.8-4.45L178.27,164,134,138.39v51.13l22.24,22.24a6,6,0,1,1-8.48,8.48L128,200.49l-19.76,19.75a6,6,0,0,1-8.48-8.48L122,189.52V138.39L77.73,164l-7.93,29.6A6,6,0,0,1,64,198a6.4,6.4,0,0,1-1.55-.2,6,6,0,0,1-4.24-7.35l7-26.08-26.62-6.54a6,6,0,0,1,2.86-11.66l30.23,7.43L116,128,71.66,102.4l-30.23,7.43A5.88,5.88,0,0,1,40,110a6,6,0,0,1-1.43-11.83l26.62-6.54-7-26.08a6,6,0,1,1,11.59-3.1l7.93,29.6L122,117.61V66.48L99.76,44.24a6,6,0,0,1,8.48-8.48L128,55.51l19.76-19.75a6,6,0,0,1,8.48,8.48L134,66.48v51.13l44.27-25.56,7.93-29.6a6,6,0,1,1,11.59,3.1l-7,26.08,26.62,6.54A6,6,0,0,1,216,110a5.88,5.88,0,0,1-1.43-.17l-30.23-7.43L140,128l44.34,25.6,30.23-7.43A6,6,0,0,1,221.83,150.57Z"/>
  </g>
  <g id="Ultralight-L" transform="matrix(0.273438 0 0 0.273438 515.84 1486.0)">
   <path d="M221.83,150.57a6,6,0,0,1-4.4,7.26l-26.62,6.54,7,26.08a6,6,0,0,1-4.24,7.35,6.4,6.4,0,0,1-1.55.2,6,6,0,0,1-5.8-4.45L178.27,164,134,138.39v51.13l22.24,22.24a6,6,0,1,1-8.48,8.48L128,200.49l-19.76,19.75a6,6,0,0,1-8.48-8.48L122,189.52V138.39L77.73,164l-7.93,29.6A6,6,0,0,1,64,198a6.4,6.4,0,0,1-1.55-.2,6,6,0,0,1-4.24-7.35l7-26.08-26.62-6.54a6,6,0,0,1,2.86-11.66l30.23,7.43L116,128,71.66,102.4l-30.23,7.43A5.88,5.88,0,0,1,40,110a6,6,0,0,1-1.43-11.83l26.62-6.54-7-26.08a6,6,0,1,1,11.59-3.1l7.93,29.6L122,117.61V66.48L99.76,44.24a6,6,0,0,1,8.48-8.48L128,55.51l19.76-19.75a6,6,0,0,1,8.48,8.48L134,66.48v51.13l44.27-25.56,7.93-29.6a6,6,0,1,1,11.59,3.1l-7,26.08,26.62,6.54A6,6,0,0,1,216,110a5.88,5.88,0,0,1-1.43-.17l-30.23-7.43L140,128l44.34,25.6,30.23-7.43A6,6,0,0,1,221.83,150.57Z"/>
  </g>
  <g id="Regular-L" transform="matrix(0.273438 0 0 0.273438 1403.07 1486.0)">
   <path d="M221.83,150.57a6,6,0,0,1-4.4,7.26l-26.62,6.54,7,26.08a6,6,0,0,1-4.24,7.35,6.4,6.4,0,0,1-1.55.2,6,6,0,0,1-5.8-4.45L178.27,164,134,138.39v51.13l22.24,22.24a6,6,0,1,1-8.48,8.48L128,200.49l-19.76,19.75a6,6,0,0,1-8.48-8.48L122,189.52V138.39L77.73,164l-7.93,29.6A6,6,0,0,1,64,198a6.4,6.4,0,0,1-1.55-.2,6,6,0,0,1-4.24-7.35l7-26.08-26.62-6.54a6,6,0,0,1,2.86-11.66l30.23,7.43L116,128,71.66,102.4l-30.23,7.43A5.88,5.88,0,0,1,40,110a6,6,0,0,1-1.43-11.83l26.62-6.54-7-26.08a6,6,0,1,1,11.59-3.1l7.93,29.6L122,117.61V66.48L99.76,44.24a6,6,0,0,1,8.48-8.48L128,55.51l19.76-19.75a6,6,0,0,1,8.48,8.48L134,66.48v51.13l44.27-25.56,7.93-29.6a6,6,0,1,1,11.59,3.1l-7,26.08,26.62,6.54A6,6,0,0,1,216,110a5.88,5.88,0,0,1-1.43-.17l-30.23-7.43L140,128l44.34,25.6,30.23-7.43A6,6,0,0,1,221.83,150.57Z"/>
  </g>
  <g id="Black-L" transform="matrix(0.273438 0 0 0.273438 2881.72 1486.0)">
   <path d="M221.83,150.57a6,6,0,0,1-4.4,7.26l-26.62,6.54,7,26.08a6,6,0,0,1-4.24,7.35,6.4,6.4,0,0,1-1.55.2,6,6,0,0,1-5.8-4.45L178.27,164,134,138.39v51.13l22.24,22.24a6,6,0,1,1-8.48,8.48L128,200.49l-19.76,19.75a6,6,0,0,1-8.48-8.48L122,189.52V138.39L77.73,164l-7.93,29.6A6,6,0,0,1,64,198a6.4,6.4,0,0,1-1.55-.2,6,6,0,0,1-4.24-7.35l7-26.08-26.62-6.54a6,6,0,0,1,2.86-11.66l30.23,7.43L116,128,71.66,102.4l-30.23,7.43A5.88,5.88,0,0,1,40,110a6,6,0,0,1-1.43-11.83l26.62-6.54-7-26.08a6,6,0,1,1,11.59-3.1l7.93,29.6L122,117.61V66.48L99.76,44.24a6,6,0,0,1,8.48-8.48L128,55.51l19.76-19.75a6,6,0,0,1,8.48,8.48L134,66.48v51.13l44.27-25.56,7.93-29.6a6,6,0,1,1,11.59,3.1l-7,26.08,26.62,6.54A6,6,0,0,1,216,110a5.88,5.88,0,0,1-1.43-.17l-30.23-7.43L140,128l44.34,25.6,30.23-7.43A6,6,0,0,1,221.83,150.57Z"/>
  </g>
 </g>
</svg>
