<?xml version="1.0" encoding="UTF-8"?>
<svg version="1.1" xmlns="http://www.w3.org/2000/svg" xmlns:xlink="http://www.w3.org/1999/xlink" viewBox="0 0 3300 2200">
 <g id="Notes">
  <rect height="2200" id="artboard" style="fill:white;opacity:1" width="3300" x="0" y="0"/>
 </g>
 <g id="Guides">
  <line id="Baseline-S" style="fill:none;stroke:#27AAE1;stroke-width:0.5;" x1="263" x2="3036" y1="696.0" y2="696.0"/>
  <line id="Capline-S" style="fill:none;stroke:#27AAE1;stroke-width:0.5;" x1="263" x2="3036" y1="626.0" y2="626.0"/>
  <line id="left-margin-Ultralight-S" style="fill:none;stroke:#FF3B30;stroke-width:0.5;" x1="515.84" x2="515.84" y1="601.0" y2="720.0"/>
  <line id="right-margin-Ultralight-S" style="fill:none;stroke:#00AEEF;stroke-width:0.5;" x1="585.84" x2="585.84" y1="601.0" y2="720.0"/>
  <line id="left-margin-Regular-S" style="fill:none;stroke:#FF3B30;stroke-width:0.5;" x1="1403.07" x2="1403.07" y1="601.0" y2="720.0"/>
  <line id="right-margin-Regular-S" style="fill:none;stroke:#00AEEF;stroke-width:0.5;" x1="1473.07" x2="1473.07" y1="601.0" y2="720.0"/>
  <line id="left-margin-Black-S" style="fill:none;stroke:#FF3B30;stroke-width:0.5;" x1="2881.72" x2="2881.72" y1="601.0" y2="720.0"/>
  <line id="right-margin-Black-S" style="fill:none;stroke:#00AEEF;stroke-width:0.5;" x1="2951.72" x2="2951.72" y1="601.0" y2="720.0"/>
  <line id="Baseline-M" style="fill:none;stroke:#27AAE1;stroke-width:0.5;" x1="263" x2="3036" y1="1126.0" y2="1126.0"/>
  <line id="Capline-M" style="fill:none;stroke:#27AAE1;stroke-width:0.5;" x1="263" x2="3036" y1="1056.0" y2="1056.0"/>
  <line id="left-margin-Ultralight-M" style="fill:none;stroke:#FF3B30;stroke-width:0.5;" x1="515.84" x2="515.84" y1="1031.0" y2="1150.0"/>
  <line id="right-margin-Ultralight-M" style="fill:none;stroke:#00AEEF;stroke-width:0.5;" x1="585.84" x2="585.84" y1="1031.0" y2="1150.0"/>
  <line id="left-margin-Regular-M" style="fill:none;stroke:#FF3B30;stroke-width:0.5;" x1="1403.07" x2="1403.07" y1="1031.0" y2="1150.0"/>
  <line id="right-margin-Regular-M" style="fill:none;stroke:#00AEEF;stroke-width:0.5;" x1="1473.07" x2="1473.07" y1="1031.0" y2="1150.0"/>
  <line id="left-margin-Black-M" style="fill:none;stroke:#FF3B30;stroke-width:0.5;" x1="2881.72" x2="2881.72" y1="1031.0" y2="1150.0"/>
  <line id="right-margin-Black-M" style="fill:none;stroke:#00AEEF;stroke-width:0.5;" x1="2951.72" x2="2951.72" y1="1031.0" y2="1150.0"/>
  <line id="Baseline-L" style="fill:none;stroke:#27AAE1;stroke-width:0.5;" x1="263" x2="3036" y1="1556.0" y2="1556.0"/>
  <line id="Capline-L" style="fill:none;stroke:#27AAE1;stroke-width:0.5;" x1="263" x2="3036" y1="1486.0" y2="1486.0"/>
  <line id="left-margin-Ultralight-L" style="fill:none;stroke:#FF3B30;stroke-width:0.5;" x1="515.84" x2="515.84" y1="1461.0" y2="1580.0"/>
  <line id="right-margin-Ultralight-L" style="fill:none;stroke:#00AEEF;stroke-width:0.5;" x1="585.84" x2="585.84" y1="1461.0" y2="1580.0"/>
  <line id="left-margin-Regular-L" style="fill:none;stroke:#FF3B30;stroke-width:0.5;" x1="1403.07" x2="1403.07" y1="1461.0" y2="1580.0"/>
  <line id="right-margin-Regular-L" style="fill:none;stroke:#00AEEF;stroke-width:0.5;" x1="1473.07" x2="1473.07" y1="1461.0" y2="1580.0"/>
  <line id="left-margin-Black-L" style="fill:none;stroke:#FF3B30;stroke-width:0.5;" x1="2881.72" x2="2881.72" y1="1461.0" y2="1580.0"/>
  <line id="right-margin-Black-L" style="fill:none;stroke:#00AEEF;stroke-width:0.5;" x1="2951.72" x2="2951.72" y1="1461.0" y2="1580.0"/>
 </g>
 <g id="Symbols">
  <g id="Ultralight-S" transform="matrix(0.273438 0 0 0.273438 515.84 626.0)">
   <path d="M106,112a6,6,0,0,1,6-6h32a6,6,0,0,1,0,12H112A6,6,0,0,1,106,112ZM230,72V200a14,14,0,0,1-14,14H40a14,14,0,0,1-14-14V72A14,14,0,0,1,40,58H82V48a22,22,0,0,1,22-22h48a22,22,0,0,1,22,22V58h42A14,14,0,0,1,230,72ZM94,58h68V48a10,10,0,0,0-10-10H104A10,10,0,0,0,94,48ZM38,72v42.79A186,186,0,0,0,128,138a185.91,185.91,0,0,0,90-23.22V72a2,2,0,0,0-2-2H40A2,2,0,0,0,38,72ZM218,200V128.37A198.12,198.12,0,0,1,128,150a198.05,198.05,0,0,1-90-21.62V200a2,2,0,0,0,2,2H216A2,2,0,0,0,218,200Z"/>
  </g>
  <g id="Regular-S" transform="matrix(0.273438 0 0 0.273438 1403.07 626.0)">
   <path d="M106,112a6,6,0,0,1,6-6h32a6,6,0,0,1,0,12H112A6,6,0,0,1,106,112ZM230,72V200a14,14,0,0,1-14,14H40a14,14,0,0,1-14-14V72A14,14,0,0,1,40,58H82V48a22,22,0,0,1,22-22h48a22,22,0,0,1,22,22V58h42A14,14,0,0,1,230,72ZM94,58h68V48a10,10,0,0,0-10-10H104A10,10,0,0,0,94,48ZM38,72v42.79A186,186,0,0,0,128,138a185.91,185.91,0,0,0,90-23.22V72a2,2,0,0,0-2-2H40A2,2,0,0,0,38,72ZM218,200V128.37A198.12,198.12,0,0,1,128,150a198.05,198.05,0,0,1-90-21.62V200a2,2,0,0,0,2,2H216A2,2,0,0,0,218,200Z"/>
  </g>
  <g id="Black-S" transform="matrix(0.273438 0 0 0.273438 2881.72 626.0)">
   <path d="M106,112a6,6,0,0,1,6-6h32a6,6,0,0,1,0,12H112A6,6,0,0,1,106,112ZM230,72V200a14,14,0,0,1-14,14H40a14,14,0,0,1-14-14V72A14,14,0,0,1,40,58H82V48a22,22,0,0,1,22-22h48a22,22,0,0,1,22,22V58h42A14,14,0,0,1,230,72ZM94,58h68V48a10,10,0,0,0-10-10H104A10,10,0,0,0,94,48ZM38,72v42.79A186,186,0,0,0,128,138a185.91,185.91,0,0,0,90-23.22V72a2,2,0,0,0-2-2H40A2,2,0,0,0,38,72ZM218,200V128.37A198.12,198.12,0,0,1,128,150a198.05,198.05,0,0,1-90-21.62V200a2,2,0,0,0,2,2H216A2,2,0,0,0,218,200Z"/>
  </g>
  <g id="Ultralight-M" transform="matrix(0.273438 0 0 0.273438 515.84 1056.0)">
   <path d="M106,112a6,6,0,0,1,6-6h32a6,6,0,0,1,0,12H112A6,6,0,0,1,106,112ZM230,72V200a14,14,0,0,1-14,14H40a14,14,0,0,1-14-14V72A14,14,0,0,1,40,58H82V48a22,22,0,0,1,22-22h48a22,22,0,0,1,22,22V58h42A14,14,0,0,1,230,72ZM94,58h68V48a10,10,0,0,0-10-10H104A10,10,0,0,0,94,48ZM38,72v42.79A186,186,0,0,0,128,138a185.91,185.91,0,0,0,90-23.22V72a2,2,0,0,0-2-2H40A2,2,0,0,0,38,72ZM218,200V128.37A198.12,198.12,0,0,1,128,150a198.05,198.05,0,0,1-90-21.62V200a2,2,0,0,0,2,2H216A2,2,0,0,0,218,200Z"/>
  </g>
  <g id="Regular-M" transform="matrix(0.273438 0 0 0.273438 1403.07 1056.0)">
   <path d="M106,112a6,6,0,0,1,6-6h32a6,6,0,0,1,0,12H112A6,6,0,0,1,106,112ZM230,72V200a14,14,0,0,1-14,14H40a14,14,0,0,1-14-14V72A14,14,0,0,1,40,58H82V48a22,22,0,0,1,22-22h48a22,22,0,0,1,22,22V58h42A14,14,0,0,1,230,72ZM94,58h68V48a10,10,0,0,0-10-10H104A10,10,0,0,0,94,48ZM38,72v42.79A186,186,0,0,0,128,138a185.91,185.91,0,0,0,90-23.22V72a2,2,0,0,0-2-2H40A2,2,0,0,0,38,72ZM218,200V128.37A198.12,198.12,0,0,1,128,150a198.05,198.05,0,0,1-90-21.62V200a2,2,0,0,0,2,2H216A2,2,0,0,0,218,200Z"/>
  </g>
  <g id="Black-M" transform="matrix(0.273438 0 0 0.273438 2881.72 1056.0)">
   <path d="M106,112a6,6,0,0,1,6-6h32a6,6,0,0,1,0,12H112A6,6,0,0,1,106,112ZM230,72V200a14,14,0,0,1-14,14H40a14,14,0,0,1-14-14V72A14,14,0,0,1,40,58H82V48a22,22,0,0,1,22-22h48a22,22,0,0,1,22,22V58h42A14,14,0,0,1,230,72ZM94,58h68V48a10,10,0,0,0-10-10H104A10,10,0,0,0,94,48ZM38,72v42.79A186,186,0,0,0,128,138a185.91,185.91,0,0,0,90-23.22V72a2,2,0,0,0-2-2H40A2,2,0,0,0,38,72ZM218,200V128.37A198.12,198.12,0,0,1,128,150a198.05,198.05,0,0,1-90-21.62V200a2,2,0,0,0,2,2H216A2,2,0,0,0,218,200Z"/>
  </g>
  <g id="Ultralight-L" transform="matrix(0.273438 0 0 0.273438 515.84 1486.0)">
   <path d="M106,112a6,6,0,0,1,6-6h32a6,6,0,0,1,0,12H112A6,6,0,0,1,106,112ZM230,72V200a14,14,0,0,1-14,14H40a14,14,0,0,1-14-14V72A14,14,0,0,1,40,58H82V48a22,22,0,0,1,22-22h48a22,22,0,0,1,22,22V58h42A14,14,0,0,1,230,72ZM94,58h68V48a10,10,0,0,0-10-10H104A10,10,0,0,0,94,48ZM38,72v42.79A186,186,0,0,0,128,138a185.91,185.91,0,0,0,90-23.22V72a2,2,0,0,0-2-2H40A2,2,0,0,0,38,72ZM218,200V128.37A198.12,198.12,0,0,1,128,150a198.05,198.05,0,0,1-90-21.62V200a2,2,0,0,0,2,2H216A2,2,0,0,0,218,200Z"/>
  </g>
  <g id="Regular-L" transform="matrix(0.273438 0 0 0.273438 1403.07 1486.0)">
   <path d="M106,112a6,6,0,0,1,6-6h32a6,6,0,0,1,0,12H112A6,6,0,0,1,106,112ZM230,72V200a14,14,0,0,1-14,14H40a14,14,0,0,1-14-14V72A14,14,0,0,1,40,58H82V48a22,22,0,0,1,22-22h48a22,22,0,0,1,22,22V58h42A14,14,0,0,1,230,72ZM94,58h68V48a10,10,0,0,0-10-10H104A10,10,0,0,0,94,48ZM38,72v42.79A186,186,0,0,0,128,138a185.91,185.91,0,0,0,90-23.22V72a2,2,0,0,0-2-2H40A2,2,0,0,0,38,72ZM218,200V128.37A198.12,198.12,0,0,1,128,150a198.05,198.05,0,0,1-90-21.62V200a2,2,0,0,0,2,2H216A2,2,0,0,0,218,200Z"/>
  </g>
  <g id="Black-L" transform="matrix(0.273438 0 0 0.273438 2881.72 1486.0)">
   <path d="M106,112a6,6,0,0,1,6-6h32a6,6,0,0,1,0,12H112A6,6,0,0,1,106,112ZM230,72V200a14,14,0,0,1-14,14H40a14,14,0,0,1-14-14V72A14,14,0,0,1,40,58H82V48a22,22,0,0,1,22-22h48a22,22,0,0,1,22,22V58h42A14,14,0,0,1,230,72ZM94,58h68V48a10,10,0,0,0-10-10H104A10,10,0,0,0,94,48ZM38,72v42.79A186,186,0,0,0,128,138a185.91,185.91,0,0,0,90-23.22V72a2,2,0,0,0-2-2H40A2,2,0,0,0,38,72ZM218,200V128.37A198.12,198.12,0,0,1,128,150a198.05,198.05,0,0,1-90-21.62V200a2,2,0,0,0,2,2H216A2,2,0,0,0,218,200Z"/>
  </g>
 </g>
</svg>
