<?xml version="1.0" encoding="UTF-8"?>
<svg version="1.1" xmlns="http://www.w3.org/2000/svg" xmlns:xlink="http://www.w3.org/1999/xlink" viewBox="0 0 3300 2200">
 <g id="Notes">
  <rect height="2200" id="artboard" style="fill:white;opacity:1" width="3300" x="0" y="0"/>
 </g>
 <g id="Guides">
  <line id="Baseline-S" style="fill:none;stroke:#27AAE1;stroke-width:0.5;" x1="263" x2="3036" y1="696.0" y2="696.0"/>
  <line id="Capline-S" style="fill:none;stroke:#27AAE1;stroke-width:0.5;" x1="263" x2="3036" y1="626.0" y2="626.0"/>
  <line id="left-margin-Ultralight-S" style="fill:none;stroke:#FF3B30;stroke-width:0.5;" x1="515.84" x2="515.84" y1="601.0" y2="720.0"/>
  <line id="right-margin-Ultralight-S" style="fill:none;stroke:#00AEEF;stroke-width:0.5;" x1="585.84" x2="585.84" y1="601.0" y2="720.0"/>
  <line id="left-margin-Regular-S" style="fill:none;stroke:#FF3B30;stroke-width:0.5;" x1="1403.07" x2="1403.07" y1="601.0" y2="720.0"/>
  <line id="right-margin-Regular-S" style="fill:none;stroke:#00AEEF;stroke-width:0.5;" x1="1473.07" x2="1473.07" y1="601.0" y2="720.0"/>
  <line id="left-margin-Black-S" style="fill:none;stroke:#FF3B30;stroke-width:0.5;" x1="2881.72" x2="2881.72" y1="601.0" y2="720.0"/>
  <line id="right-margin-Black-S" style="fill:none;stroke:#00AEEF;stroke-width:0.5;" x1="2951.72" x2="2951.72" y1="601.0" y2="720.0"/>
  <line id="Baseline-M" style="fill:none;stroke:#27AAE1;stroke-width:0.5;" x1="263" x2="3036" y1="1126.0" y2="1126.0"/>
  <line id="Capline-M" style="fill:none;stroke:#27AAE1;stroke-width:0.5;" x1="263" x2="3036" y1="1056.0" y2="1056.0"/>
  <line id="left-margin-Ultralight-M" style="fill:none;stroke:#FF3B30;stroke-width:0.5;" x1="515.84" x2="515.84" y1="1031.0" y2="1150.0"/>
  <line id="right-margin-Ultralight-M" style="fill:none;stroke:#00AEEF;stroke-width:0.5;" x1="585.84" x2="585.84" y1="1031.0" y2="1150.0"/>
  <line id="left-margin-Regular-M" style="fill:none;stroke:#FF3B30;stroke-width:0.5;" x1="1403.07" x2="1403.07" y1="1031.0" y2="1150.0"/>
  <line id="right-margin-Regular-M" style="fill:none;stroke:#00AEEF;stroke-width:0.5;" x1="1473.07" x2="1473.07" y1="1031.0" y2="1150.0"/>
  <line id="left-margin-Black-M" style="fill:none;stroke:#FF3B30;stroke-width:0.5;" x1="2881.72" x2="2881.72" y1="1031.0" y2="1150.0"/>
  <line id="right-margin-Black-M" style="fill:none;stroke:#00AEEF;stroke-width:0.5;" x1="2951.72" x2="2951.72" y1="1031.0" y2="1150.0"/>
  <line id="Baseline-L" style="fill:none;stroke:#27AAE1;stroke-width:0.5;" x1="263" x2="3036" y1="1556.0" y2="1556.0"/>
  <line id="Capline-L" style="fill:none;stroke:#27AAE1;stroke-width:0.5;" x1="263" x2="3036" y1="1486.0" y2="1486.0"/>
  <line id="left-margin-Ultralight-L" style="fill:none;stroke:#FF3B30;stroke-width:0.5;" x1="515.84" x2="515.84" y1="1461.0" y2="1580.0"/>
  <line id="right-margin-Ultralight-L" style="fill:none;stroke:#00AEEF;stroke-width:0.5;" x1="585.84" x2="585.84" y1="1461.0" y2="1580.0"/>
  <line id="left-margin-Regular-L" style="fill:none;stroke:#FF3B30;stroke-width:0.5;" x1="1403.07" x2="1403.07" y1="1461.0" y2="1580.0"/>
  <line id="right-margin-Regular-L" style="fill:none;stroke:#00AEEF;stroke-width:0.5;" x1="1473.07" x2="1473.07" y1="1461.0" y2="1580.0"/>
  <line id="left-margin-Black-L" style="fill:none;stroke:#FF3B30;stroke-width:0.5;" x1="2881.72" x2="2881.72" y1="1461.0" y2="1580.0"/>
  <line id="right-margin-Black-L" style="fill:none;stroke:#00AEEF;stroke-width:0.5;" x1="2951.72" x2="2951.72" y1="1461.0" y2="1580.0"/>
 </g>
 <g id="Symbols">
  <g id="Ultralight-S" transform="matrix(0.273438 0 0 0.273438 515.84 626.0)">
   <path d="M246,80a26,26,0,1,0-46.6,15.84l-29.83,36.72-26-59.76a26,26,0,1,0-31.16,0l-26,59.76L56.6,95.84a26,26,0,1,0-22.36,10.09L49,194.3A14,14,0,0,0,62.78,206H193.22A14,14,0,0,0,207,194.3l14.73-88.37A26,26,0,0,0,246,80ZM128,38a14,14,0,1,1-14,14A14,14,0,0,1,128,38ZM22,80A14,14,0,1,1,36,94,14,14,0,0,1,22,80ZM195.2,192.33a2,2,0,0,1-2,1.67H62.78a2,2,0,0,1-2-1.67L46.08,104l1.22-.55,36,44.36A6,6,0,0,0,88,150a5.52,5.52,0,0,0,.81-.06,6,6,0,0,0,4.69-3.55l29.92-68.8a25.79,25.79,0,0,0,9.16,0l29.92,68.8a6,6,0,0,0,4.69,3.55,5.52,5.52,0,0,0,.81.06,6,6,0,0,0,4.66-2.22l36-44.36,1.22.55ZM220,94a14,14,0,1,1,14-14A14,14,0,0,1,220,94Z"/>
  </g>
  <g id="Regular-S" transform="matrix(0.273438 0 0 0.273438 1403.07 626.0)">
   <path d="M246,80a26,26,0,1,0-46.6,15.84l-29.83,36.72-26-59.76a26,26,0,1,0-31.16,0l-26,59.76L56.6,95.84a26,26,0,1,0-22.36,10.09L49,194.3A14,14,0,0,0,62.78,206H193.22A14,14,0,0,0,207,194.3l14.73-88.37A26,26,0,0,0,246,80ZM128,38a14,14,0,1,1-14,14A14,14,0,0,1,128,38ZM22,80A14,14,0,1,1,36,94,14,14,0,0,1,22,80ZM195.2,192.33a2,2,0,0,1-2,1.67H62.78a2,2,0,0,1-2-1.67L46.08,104l1.22-.55,36,44.36A6,6,0,0,0,88,150a5.52,5.52,0,0,0,.81-.06,6,6,0,0,0,4.69-3.55l29.92-68.8a25.79,25.79,0,0,0,9.16,0l29.92,68.8a6,6,0,0,0,4.69,3.55,5.52,5.52,0,0,0,.81.06,6,6,0,0,0,4.66-2.22l36-44.36,1.22.55ZM220,94a14,14,0,1,1,14-14A14,14,0,0,1,220,94Z"/>
  </g>
  <g id="Black-S" transform="matrix(0.273438 0 0 0.273438 2881.72 626.0)">
   <path d="M246,80a26,26,0,1,0-46.6,15.84l-29.83,36.72-26-59.76a26,26,0,1,0-31.16,0l-26,59.76L56.6,95.84a26,26,0,1,0-22.36,10.09L49,194.3A14,14,0,0,0,62.78,206H193.22A14,14,0,0,0,207,194.3l14.73-88.37A26,26,0,0,0,246,80ZM128,38a14,14,0,1,1-14,14A14,14,0,0,1,128,38ZM22,80A14,14,0,1,1,36,94,14,14,0,0,1,22,80ZM195.2,192.33a2,2,0,0,1-2,1.67H62.78a2,2,0,0,1-2-1.67L46.08,104l1.22-.55,36,44.36A6,6,0,0,0,88,150a5.52,5.52,0,0,0,.81-.06,6,6,0,0,0,4.69-3.55l29.92-68.8a25.79,25.79,0,0,0,9.16,0l29.92,68.8a6,6,0,0,0,4.69,3.55,5.52,5.52,0,0,0,.81.06,6,6,0,0,0,4.66-2.22l36-44.36,1.22.55ZM220,94a14,14,0,1,1,14-14A14,14,0,0,1,220,94Z"/>
  </g>
  <g id="Ultralight-M" transform="matrix(0.273438 0 0 0.273438 515.84 1056.0)">
   <path d="M246,80a26,26,0,1,0-46.6,15.84l-29.83,36.72-26-59.76a26,26,0,1,0-31.16,0l-26,59.76L56.6,95.84a26,26,0,1,0-22.36,10.09L49,194.3A14,14,0,0,0,62.78,206H193.22A14,14,0,0,0,207,194.3l14.73-88.37A26,26,0,0,0,246,80ZM128,38a14,14,0,1,1-14,14A14,14,0,0,1,128,38ZM22,80A14,14,0,1,1,36,94,14,14,0,0,1,22,80ZM195.2,192.33a2,2,0,0,1-2,1.67H62.78a2,2,0,0,1-2-1.67L46.08,104l1.22-.55,36,44.36A6,6,0,0,0,88,150a5.52,5.52,0,0,0,.81-.06,6,6,0,0,0,4.69-3.55l29.92-68.8a25.79,25.79,0,0,0,9.16,0l29.92,68.8a6,6,0,0,0,4.69,3.55,5.52,5.52,0,0,0,.81.06,6,6,0,0,0,4.66-2.22l36-44.36,1.22.55ZM220,94a14,14,0,1,1,14-14A14,14,0,0,1,220,94Z"/>
  </g>
  <g id="Regular-M" transform="matrix(0.273438 0 0 0.273438 1403.07 1056.0)">
   <path d="M246,80a26,26,0,1,0-46.6,15.84l-29.83,36.72-26-59.76a26,26,0,1,0-31.16,0l-26,59.76L56.6,95.84a26,26,0,1,0-22.36,10.09L49,194.3A14,14,0,0,0,62.78,206H193.22A14,14,0,0,0,207,194.3l14.73-88.37A26,26,0,0,0,246,80ZM128,38a14,14,0,1,1-14,14A14,14,0,0,1,128,38ZM22,80A14,14,0,1,1,36,94,14,14,0,0,1,22,80ZM195.2,192.33a2,2,0,0,1-2,1.67H62.78a2,2,0,0,1-2-1.67L46.08,104l1.22-.55,36,44.36A6,6,0,0,0,88,150a5.52,5.52,0,0,0,.81-.06,6,6,0,0,0,4.69-3.55l29.92-68.8a25.79,25.79,0,0,0,9.16,0l29.92,68.8a6,6,0,0,0,4.69,3.55,5.52,5.52,0,0,0,.81.06,6,6,0,0,0,4.66-2.22l36-44.36,1.22.55ZM220,94a14,14,0,1,1,14-14A14,14,0,0,1,220,94Z"/>
  </g>
  <g id="Black-M" transform="matrix(0.273438 0 0 0.273438 2881.72 1056.0)">
   <path d="M246,80a26,26,0,1,0-46.6,15.84l-29.83,36.72-26-59.76a26,26,0,1,0-31.16,0l-26,59.76L56.6,95.84a26,26,0,1,0-22.36,10.09L49,194.3A14,14,0,0,0,62.78,206H193.22A14,14,0,0,0,207,194.3l14.73-88.37A26,26,0,0,0,246,80ZM128,38a14,14,0,1,1-14,14A14,14,0,0,1,128,38ZM22,80A14,14,0,1,1,36,94,14,14,0,0,1,22,80ZM195.2,192.33a2,2,0,0,1-2,1.67H62.78a2,2,0,0,1-2-1.67L46.08,104l1.22-.55,36,44.36A6,6,0,0,0,88,150a5.52,5.52,0,0,0,.81-.06,6,6,0,0,0,4.69-3.55l29.92-68.8a25.79,25.79,0,0,0,9.16,0l29.92,68.8a6,6,0,0,0,4.69,3.55,5.52,5.52,0,0,0,.81.06,6,6,0,0,0,4.66-2.22l36-44.36,1.22.55ZM220,94a14,14,0,1,1,14-14A14,14,0,0,1,220,94Z"/>
  </g>
  <g id="Ultralight-L" transform="matrix(0.273438 0 0 0.273438 515.84 1486.0)">
   <path d="M246,80a26,26,0,1,0-46.6,15.84l-29.83,36.72-26-59.76a26,26,0,1,0-31.16,0l-26,59.76L56.6,95.84a26,26,0,1,0-22.36,10.09L49,194.3A14,14,0,0,0,62.78,206H193.22A14,14,0,0,0,207,194.3l14.73-88.37A26,26,0,0,0,246,80ZM128,38a14,14,0,1,1-14,14A14,14,0,0,1,128,38ZM22,80A14,14,0,1,1,36,94,14,14,0,0,1,22,80ZM195.2,192.33a2,2,0,0,1-2,1.67H62.78a2,2,0,0,1-2-1.67L46.08,104l1.22-.55,36,44.36A6,6,0,0,0,88,150a5.52,5.52,0,0,0,.81-.06,6,6,0,0,0,4.69-3.55l29.92-68.8a25.79,25.79,0,0,0,9.16,0l29.92,68.8a6,6,0,0,0,4.69,3.55,5.52,5.52,0,0,0,.81.06,6,6,0,0,0,4.66-2.22l36-44.36,1.22.55ZM220,94a14,14,0,1,1,14-14A14,14,0,0,1,220,94Z"/>
  </g>
  <g id="Regular-L" transform="matrix(0.273438 0 0 0.273438 1403.07 1486.0)">
   <path d="M246,80a26,26,0,1,0-46.6,15.84l-29.83,36.72-26-59.76a26,26,0,1,0-31.16,0l-26,59.76L56.6,95.84a26,26,0,1,0-22.36,10.09L49,194.3A14,14,0,0,0,62.78,206H193.22A14,14,0,0,0,207,194.3l14.73-88.37A26,26,0,0,0,246,80ZM128,38a14,14,0,1,1-14,14A14,14,0,0,1,128,38ZM22,80A14,14,0,1,1,36,94,14,14,0,0,1,22,80ZM195.2,192.33a2,2,0,0,1-2,1.67H62.78a2,2,0,0,1-2-1.67L46.08,104l1.22-.55,36,44.36A6,6,0,0,0,88,150a5.52,5.52,0,0,0,.81-.06,6,6,0,0,0,4.69-3.55l29.92-68.8a25.79,25.79,0,0,0,9.16,0l29.92,68.8a6,6,0,0,0,4.69,3.55,5.52,5.52,0,0,0,.81.06,6,6,0,0,0,4.66-2.22l36-44.36,1.22.55ZM220,94a14,14,0,1,1,14-14A14,14,0,0,1,220,94Z"/>
  </g>
  <g id="Black-L" transform="matrix(0.273438 0 0 0.273438 2881.72 1486.0)">
   <path d="M246,80a26,26,0,1,0-46.6,15.84l-29.83,36.72-26-59.76a26,26,0,1,0-31.16,0l-26,59.76L56.6,95.84a26,26,0,1,0-22.36,10.09L49,194.3A14,14,0,0,0,62.78,206H193.22A14,14,0,0,0,207,194.3l14.73-88.37A26,26,0,0,0,246,80ZM128,38a14,14,0,1,1-14,14A14,14,0,0,1,128,38ZM22,80A14,14,0,1,1,36,94,14,14,0,0,1,22,80ZM195.2,192.33a2,2,0,0,1-2,1.67H62.78a2,2,0,0,1-2-1.67L46.08,104l1.22-.55,36,44.36A6,6,0,0,0,88,150a5.52,5.52,0,0,0,.81-.06,6,6,0,0,0,4.69-3.55l29.92-68.8a25.79,25.79,0,0,0,9.16,0l29.92,68.8a6,6,0,0,0,4.69,3.55,5.52,5.52,0,0,0,.81.06,6,6,0,0,0,4.66-2.22l36-44.36,1.22.55ZM220,94a14,14,0,1,1,14-14A14,14,0,0,1,220,94Z"/>
  </g>
 </g>
</svg>
