<?xml version="1.0" encoding="UTF-8"?>
<svg version="1.1" xmlns="http://www.w3.org/2000/svg" xmlns:xlink="http://www.w3.org/1999/xlink" viewBox="0 0 3300 2200">
 <g id="Notes">
  <rect height="2200" id="artboard" style="fill:white;opacity:1" width="3300" x="0" y="0"/>
 </g>
 <g id="Guides">
  <line id="Baseline-S" style="fill:none;stroke:#27AAE1;stroke-width:0.5;" x1="263" x2="3036" y1="696.0" y2="696.0"/>
  <line id="Capline-S" style="fill:none;stroke:#27AAE1;stroke-width:0.5;" x1="263" x2="3036" y1="626.0" y2="626.0"/>
  <line id="left-margin-Ultralight-S" style="fill:none;stroke:#FF3B30;stroke-width:0.5;" x1="515.84" x2="515.84" y1="601.0" y2="720.0"/>
  <line id="right-margin-Ultralight-S" style="fill:none;stroke:#00AEEF;stroke-width:0.5;" x1="585.84" x2="585.84" y1="601.0" y2="720.0"/>
  <line id="left-margin-Regular-S" style="fill:none;stroke:#FF3B30;stroke-width:0.5;" x1="1403.07" x2="1403.07" y1="601.0" y2="720.0"/>
  <line id="right-margin-Regular-S" style="fill:none;stroke:#00AEEF;stroke-width:0.5;" x1="1473.07" x2="1473.07" y1="601.0" y2="720.0"/>
  <line id="left-margin-Black-S" style="fill:none;stroke:#FF3B30;stroke-width:0.5;" x1="2881.72" x2="2881.72" y1="601.0" y2="720.0"/>
  <line id="right-margin-Black-S" style="fill:none;stroke:#00AEEF;stroke-width:0.5;" x1="2951.72" x2="2951.72" y1="601.0" y2="720.0"/>
  <line id="Baseline-M" style="fill:none;stroke:#27AAE1;stroke-width:0.5;" x1="263" x2="3036" y1="1126.0" y2="1126.0"/>
  <line id="Capline-M" style="fill:none;stroke:#27AAE1;stroke-width:0.5;" x1="263" x2="3036" y1="1056.0" y2="1056.0"/>
  <line id="left-margin-Ultralight-M" style="fill:none;stroke:#FF3B30;stroke-width:0.5;" x1="515.84" x2="515.84" y1="1031.0" y2="1150.0"/>
  <line id="right-margin-Ultralight-M" style="fill:none;stroke:#00AEEF;stroke-width:0.5;" x1="585.84" x2="585.84" y1="1031.0" y2="1150.0"/>
  <line id="left-margin-Regular-M" style="fill:none;stroke:#FF3B30;stroke-width:0.5;" x1="1403.07" x2="1403.07" y1="1031.0" y2="1150.0"/>
  <line id="right-margin-Regular-M" style="fill:none;stroke:#00AEEF;stroke-width:0.5;" x1="1473.07" x2="1473.07" y1="1031.0" y2="1150.0"/>
  <line id="left-margin-Black-M" style="fill:none;stroke:#FF3B30;stroke-width:0.5;" x1="2881.72" x2="2881.72" y1="1031.0" y2="1150.0"/>
  <line id="right-margin-Black-M" style="fill:none;stroke:#00AEEF;stroke-width:0.5;" x1="2951.72" x2="2951.72" y1="1031.0" y2="1150.0"/>
  <line id="Baseline-L" style="fill:none;stroke:#27AAE1;stroke-width:0.5;" x1="263" x2="3036" y1="1556.0" y2="1556.0"/>
  <line id="Capline-L" style="fill:none;stroke:#27AAE1;stroke-width:0.5;" x1="263" x2="3036" y1="1486.0" y2="1486.0"/>
  <line id="left-margin-Ultralight-L" style="fill:none;stroke:#FF3B30;stroke-width:0.5;" x1="515.84" x2="515.84" y1="1461.0" y2="1580.0"/>
  <line id="right-margin-Ultralight-L" style="fill:none;stroke:#00AEEF;stroke-width:0.5;" x1="585.84" x2="585.84" y1="1461.0" y2="1580.0"/>
  <line id="left-margin-Regular-L" style="fill:none;stroke:#FF3B30;stroke-width:0.5;" x1="1403.07" x2="1403.07" y1="1461.0" y2="1580.0"/>
  <line id="right-margin-Regular-L" style="fill:none;stroke:#00AEEF;stroke-width:0.5;" x1="1473.07" x2="1473.07" y1="1461.0" y2="1580.0"/>
  <line id="left-margin-Black-L" style="fill:none;stroke:#FF3B30;stroke-width:0.5;" x1="2881.72" x2="2881.72" y1="1461.0" y2="1580.0"/>
  <line id="right-margin-Black-L" style="fill:none;stroke:#00AEEF;stroke-width:0.5;" x1="2951.72" x2="2951.72" y1="1461.0" y2="1580.0"/>
 </g>
 <g id="Symbols">
  <g id="Ultralight-S" transform="matrix(0.375000 0 0 0.375000 515.84 613.0)">
   <path d="M235.65,121.64,181.38,40.23A14,14,0,0,0,169.73,34H86.27a14,14,0,0,0-11.65,6.23L20.35,121.64a14,14,0,0,0-1.86,11.45l21.44,78.59A14,14,0,0,0,53.43,222H80a14,14,0,0,0,14-14V190h68v18a14,14,0,0,0,14,14h26.57a14,14,0,0,0,13.5-10.32l21.44-78.59A14,14,0,0,0,235.65,121.64ZM80,178a2,2,0,0,1-2-2V65.49L106,82v54a6,6,0,0,0,12,0V89.07l7,4.1a6,6,0,0,0,6.1,0l6.95-4.1V128a6,6,0,0,0,12,0V82l28-16.51V176a2,2,0,0,1-2,2ZM86.27,46h83.46a2,2,0,0,1,1.66.89l4.1,6.15L128,81,80.51,53l4.1-6.15A2,2,0,0,1,86.27,46ZM82,208a2,2,0,0,1-2,2H53.43a2,2,0,0,1-1.92-1.47l-21.44-78.6a2,2,0,0,1,.27-1.63L66,74.8V176a14,14,0,0,0,14,14h2Zm143.93-78.07-21.44,78.6a2,2,0,0,1-1.92,1.47H176a2,2,0,0,1-2-2V190h2a14,14,0,0,0,14-14V74.8l35.66,53.5A2,2,0,0,1,225.93,129.93Z"/>
  </g>
  <g id="Regular-S" transform="matrix(0.375000 0 0 0.375000 1403.07 613.0)">
   <path d="M235.65,121.64,181.38,40.23A14,14,0,0,0,169.73,34H86.27a14,14,0,0,0-11.65,6.23L20.35,121.64a14,14,0,0,0-1.86,11.45l21.44,78.59A14,14,0,0,0,53.43,222H80a14,14,0,0,0,14-14V190h68v18a14,14,0,0,0,14,14h26.57a14,14,0,0,0,13.5-10.32l21.44-78.59A14,14,0,0,0,235.65,121.64ZM80,178a2,2,0,0,1-2-2V65.49L106,82v54a6,6,0,0,0,12,0V89.07l7,4.1a6,6,0,0,0,6.1,0l6.95-4.1V128a6,6,0,0,0,12,0V82l28-16.51V176a2,2,0,0,1-2,2ZM86.27,46h83.46a2,2,0,0,1,1.66.89l4.1,6.15L128,81,80.51,53l4.1-6.15A2,2,0,0,1,86.27,46ZM82,208a2,2,0,0,1-2,2H53.43a2,2,0,0,1-1.92-1.47l-21.44-78.6a2,2,0,0,1,.27-1.63L66,74.8V176a14,14,0,0,0,14,14h2Zm143.93-78.07-21.44,78.6a2,2,0,0,1-1.92,1.47H176a2,2,0,0,1-2-2V190h2a14,14,0,0,0,14-14V74.8l35.66,53.5A2,2,0,0,1,225.93,129.93Z"/>
  </g>
  <g id="Black-S" transform="matrix(0.375000 0 0 0.375000 2881.72 613.0)">
   <path d="M235.65,121.64,181.38,40.23A14,14,0,0,0,169.73,34H86.27a14,14,0,0,0-11.65,6.23L20.35,121.64a14,14,0,0,0-1.86,11.45l21.44,78.59A14,14,0,0,0,53.43,222H80a14,14,0,0,0,14-14V190h68v18a14,14,0,0,0,14,14h26.57a14,14,0,0,0,13.5-10.32l21.44-78.59A14,14,0,0,0,235.65,121.64ZM80,178a2,2,0,0,1-2-2V65.49L106,82v54a6,6,0,0,0,12,0V89.07l7,4.1a6,6,0,0,0,6.1,0l6.95-4.1V128a6,6,0,0,0,12,0V82l28-16.51V176a2,2,0,0,1-2,2ZM86.27,46h83.46a2,2,0,0,1,1.66.89l4.1,6.15L128,81,80.51,53l4.1-6.15A2,2,0,0,1,86.27,46ZM82,208a2,2,0,0,1-2,2H53.43a2,2,0,0,1-1.92-1.47l-21.44-78.6a2,2,0,0,1,.27-1.63L66,74.8V176a14,14,0,0,0,14,14h2Zm143.93-78.07-21.44,78.6a2,2,0,0,1-1.92,1.47H176a2,2,0,0,1-2-2V190h2a14,14,0,0,0,14-14V74.8l35.66,53.5A2,2,0,0,1,225.93,129.93Z"/>
  </g>
  <g id="Ultralight-M" transform="matrix(0.375000 0 0 0.375000 515.84 1043.0)">
   <path d="M235.65,121.64,181.38,40.23A14,14,0,0,0,169.73,34H86.27a14,14,0,0,0-11.65,6.23L20.35,121.64a14,14,0,0,0-1.86,11.45l21.44,78.59A14,14,0,0,0,53.43,222H80a14,14,0,0,0,14-14V190h68v18a14,14,0,0,0,14,14h26.57a14,14,0,0,0,13.5-10.32l21.44-78.59A14,14,0,0,0,235.65,121.64ZM80,178a2,2,0,0,1-2-2V65.49L106,82v54a6,6,0,0,0,12,0V89.07l7,4.1a6,6,0,0,0,6.1,0l6.95-4.1V128a6,6,0,0,0,12,0V82l28-16.51V176a2,2,0,0,1-2,2ZM86.27,46h83.46a2,2,0,0,1,1.66.89l4.1,6.15L128,81,80.51,53l4.1-6.15A2,2,0,0,1,86.27,46ZM82,208a2,2,0,0,1-2,2H53.43a2,2,0,0,1-1.92-1.47l-21.44-78.6a2,2,0,0,1,.27-1.63L66,74.8V176a14,14,0,0,0,14,14h2Zm143.93-78.07-21.44,78.6a2,2,0,0,1-1.92,1.47H176a2,2,0,0,1-2-2V190h2a14,14,0,0,0,14-14V74.8l35.66,53.5A2,2,0,0,1,225.93,129.93Z"/>
  </g>
  <g id="Regular-M" transform="matrix(0.375000 0 0 0.375000 1403.07 1043.0)">
   <path d="M235.65,121.64,181.38,40.23A14,14,0,0,0,169.73,34H86.27a14,14,0,0,0-11.65,6.23L20.35,121.64a14,14,0,0,0-1.86,11.45l21.44,78.59A14,14,0,0,0,53.43,222H80a14,14,0,0,0,14-14V190h68v18a14,14,0,0,0,14,14h26.57a14,14,0,0,0,13.5-10.32l21.44-78.59A14,14,0,0,0,235.65,121.64ZM80,178a2,2,0,0,1-2-2V65.49L106,82v54a6,6,0,0,0,12,0V89.07l7,4.1a6,6,0,0,0,6.1,0l6.95-4.1V128a6,6,0,0,0,12,0V82l28-16.51V176a2,2,0,0,1-2,2ZM86.27,46h83.46a2,2,0,0,1,1.66.89l4.1,6.15L128,81,80.51,53l4.1-6.15A2,2,0,0,1,86.27,46ZM82,208a2,2,0,0,1-2,2H53.43a2,2,0,0,1-1.92-1.47l-21.44-78.6a2,2,0,0,1,.27-1.63L66,74.8V176a14,14,0,0,0,14,14h2Zm143.93-78.07-21.44,78.6a2,2,0,0,1-1.92,1.47H176a2,2,0,0,1-2-2V190h2a14,14,0,0,0,14-14V74.8l35.66,53.5A2,2,0,0,1,225.93,129.93Z"/>
  </g>
  <g id="Black-M" transform="matrix(0.375000 0 0 0.375000 2881.72 1043.0)">
   <path d="M235.65,121.64,181.38,40.23A14,14,0,0,0,169.73,34H86.27a14,14,0,0,0-11.65,6.23L20.35,121.64a14,14,0,0,0-1.86,11.45l21.44,78.59A14,14,0,0,0,53.43,222H80a14,14,0,0,0,14-14V190h68v18a14,14,0,0,0,14,14h26.57a14,14,0,0,0,13.5-10.32l21.44-78.59A14,14,0,0,0,235.65,121.64ZM80,178a2,2,0,0,1-2-2V65.49L106,82v54a6,6,0,0,0,12,0V89.07l7,4.1a6,6,0,0,0,6.1,0l6.95-4.1V128a6,6,0,0,0,12,0V82l28-16.51V176a2,2,0,0,1-2,2ZM86.27,46h83.46a2,2,0,0,1,1.66.89l4.1,6.15L128,81,80.51,53l4.1-6.15A2,2,0,0,1,86.27,46ZM82,208a2,2,0,0,1-2,2H53.43a2,2,0,0,1-1.92-1.47l-21.44-78.6a2,2,0,0,1,.27-1.63L66,74.8V176a14,14,0,0,0,14,14h2Zm143.93-78.07-21.44,78.6a2,2,0,0,1-1.92,1.47H176a2,2,0,0,1-2-2V190h2a14,14,0,0,0,14-14V74.8l35.66,53.5A2,2,0,0,1,225.93,129.93Z"/>
  </g>
  <g id="Ultralight-L" transform="matrix(0.375000 0 0 0.375000 515.84 1473.0)">
   <path d="M235.65,121.64,181.38,40.23A14,14,0,0,0,169.73,34H86.27a14,14,0,0,0-11.65,6.23L20.35,121.64a14,14,0,0,0-1.86,11.45l21.44,78.59A14,14,0,0,0,53.43,222H80a14,14,0,0,0,14-14V190h68v18a14,14,0,0,0,14,14h26.57a14,14,0,0,0,13.5-10.32l21.44-78.59A14,14,0,0,0,235.65,121.64ZM80,178a2,2,0,0,1-2-2V65.49L106,82v54a6,6,0,0,0,12,0V89.07l7,4.1a6,6,0,0,0,6.1,0l6.95-4.1V128a6,6,0,0,0,12,0V82l28-16.51V176a2,2,0,0,1-2,2ZM86.27,46h83.46a2,2,0,0,1,1.66.89l4.1,6.15L128,81,80.51,53l4.1-6.15A2,2,0,0,1,86.27,46ZM82,208a2,2,0,0,1-2,2H53.43a2,2,0,0,1-1.92-1.47l-21.44-78.6a2,2,0,0,1,.27-1.63L66,74.8V176a14,14,0,0,0,14,14h2Zm143.93-78.07-21.44,78.6a2,2,0,0,1-1.92,1.47H176a2,2,0,0,1-2-2V190h2a14,14,0,0,0,14-14V74.8l35.66,53.5A2,2,0,0,1,225.93,129.93Z"/>
  </g>
  <g id="Regular-L" transform="matrix(0.375000 0 0 0.375000 1403.07 1473.0)">
   <path d="M235.65,121.64,181.38,40.23A14,14,0,0,0,169.73,34H86.27a14,14,0,0,0-11.65,6.23L20.35,121.64a14,14,0,0,0-1.86,11.45l21.44,78.59A14,14,0,0,0,53.43,222H80a14,14,0,0,0,14-14V190h68v18a14,14,0,0,0,14,14h26.57a14,14,0,0,0,13.5-10.32l21.44-78.59A14,14,0,0,0,235.65,121.64ZM80,178a2,2,0,0,1-2-2V65.49L106,82v54a6,6,0,0,0,12,0V89.07l7,4.1a6,6,0,0,0,6.1,0l6.95-4.1V128a6,6,0,0,0,12,0V82l28-16.51V176a2,2,0,0,1-2,2ZM86.27,46h83.46a2,2,0,0,1,1.66.89l4.1,6.15L128,81,80.51,53l4.1-6.15A2,2,0,0,1,86.27,46ZM82,208a2,2,0,0,1-2,2H53.43a2,2,0,0,1-1.92-1.47l-21.44-78.6a2,2,0,0,1,.27-1.63L66,74.8V176a14,14,0,0,0,14,14h2Zm143.93-78.07-21.44,78.6a2,2,0,0,1-1.92,1.47H176a2,2,0,0,1-2-2V190h2a14,14,0,0,0,14-14V74.8l35.66,53.5A2,2,0,0,1,225.93,129.93Z"/>
  </g>
  <g id="Black-L" transform="matrix(0.375000 0 0 0.375000 2881.72 1473.0)">
   <path d="M235.65,121.64,181.38,40.23A14,14,0,0,0,169.73,34H86.27a14,14,0,0,0-11.65,6.23L20.35,121.64a14,14,0,0,0-1.86,11.45l21.44,78.59A14,14,0,0,0,53.43,222H80a14,14,0,0,0,14-14V190h68v18a14,14,0,0,0,14,14h26.57a14,14,0,0,0,13.5-10.32l21.44-78.59A14,14,0,0,0,235.65,121.64ZM80,178a2,2,0,0,1-2-2V65.49L106,82v54a6,6,0,0,0,12,0V89.07l7,4.1a6,6,0,0,0,6.1,0l6.95-4.1V128a6,6,0,0,0,12,0V82l28-16.51V176a2,2,0,0,1-2,2ZM86.27,46h83.46a2,2,0,0,1,1.66.89l4.1,6.15L128,81,80.51,53l4.1-6.15A2,2,0,0,1,86.27,46ZM82,208a2,2,0,0,1-2,2H53.43a2,2,0,0,1-1.92-1.47l-21.44-78.6a2,2,0,0,1,.27-1.63L66,74.8V176a14,14,0,0,0,14,14h2Zm143.93-78.07-21.44,78.6a2,2,0,0,1-1.92,1.47H176a2,2,0,0,1-2-2V190h2a14,14,0,0,0,14-14V74.8l35.66,53.5A2,2,0,0,1,225.93,129.93Z"/>
  </g>
 </g>
</svg>
