<?xml version="1.0" encoding="UTF-8"?>
<svg version="1.1" xmlns="http://www.w3.org/2000/svg" xmlns:xlink="http://www.w3.org/1999/xlink" viewBox="0 0 3300 2200">
 <g id="Notes">
  <rect height="2200" id="artboard" style="fill:white;opacity:1" width="3300" x="0" y="0"/>
 </g>
 <g id="Guides">
  <line id="Baseline-S" style="fill:none;stroke:#27AAE1;stroke-width:0.5;" x1="263" x2="3036" y1="696.0" y2="696.0"/>
  <line id="Capline-S" style="fill:none;stroke:#27AAE1;stroke-width:0.5;" x1="263" x2="3036" y1="626.0" y2="626.0"/>
  <line id="left-margin-Ultralight-S" style="fill:none;stroke:#FF3B30;stroke-width:0.5;" x1="515.84" x2="515.84" y1="601.0" y2="720.0"/>
  <line id="right-margin-Ultralight-S" style="fill:none;stroke:#00AEEF;stroke-width:0.5;" x1="585.84" x2="585.84" y1="601.0" y2="720.0"/>
  <line id="left-margin-Regular-S" style="fill:none;stroke:#FF3B30;stroke-width:0.5;" x1="1403.07" x2="1403.07" y1="601.0" y2="720.0"/>
  <line id="right-margin-Regular-S" style="fill:none;stroke:#00AEEF;stroke-width:0.5;" x1="1473.07" x2="1473.07" y1="601.0" y2="720.0"/>
  <line id="left-margin-Black-S" style="fill:none;stroke:#FF3B30;stroke-width:0.5;" x1="2881.72" x2="2881.72" y1="601.0" y2="720.0"/>
  <line id="right-margin-Black-S" style="fill:none;stroke:#00AEEF;stroke-width:0.5;" x1="2951.72" x2="2951.72" y1="601.0" y2="720.0"/>
  <line id="Baseline-M" style="fill:none;stroke:#27AAE1;stroke-width:0.5;" x1="263" x2="3036" y1="1126.0" y2="1126.0"/>
  <line id="Capline-M" style="fill:none;stroke:#27AAE1;stroke-width:0.5;" x1="263" x2="3036" y1="1056.0" y2="1056.0"/>
  <line id="left-margin-Ultralight-M" style="fill:none;stroke:#FF3B30;stroke-width:0.5;" x1="515.84" x2="515.84" y1="1031.0" y2="1150.0"/>
  <line id="right-margin-Ultralight-M" style="fill:none;stroke:#00AEEF;stroke-width:0.5;" x1="585.84" x2="585.84" y1="1031.0" y2="1150.0"/>
  <line id="left-margin-Regular-M" style="fill:none;stroke:#FF3B30;stroke-width:0.5;" x1="1403.07" x2="1403.07" y1="1031.0" y2="1150.0"/>
  <line id="right-margin-Regular-M" style="fill:none;stroke:#00AEEF;stroke-width:0.5;" x1="1473.07" x2="1473.07" y1="1031.0" y2="1150.0"/>
  <line id="left-margin-Black-M" style="fill:none;stroke:#FF3B30;stroke-width:0.5;" x1="2881.72" x2="2881.72" y1="1031.0" y2="1150.0"/>
  <line id="right-margin-Black-M" style="fill:none;stroke:#00AEEF;stroke-width:0.5;" x1="2951.72" x2="2951.72" y1="1031.0" y2="1150.0"/>
  <line id="Baseline-L" style="fill:none;stroke:#27AAE1;stroke-width:0.5;" x1="263" x2="3036" y1="1556.0" y2="1556.0"/>
  <line id="Capline-L" style="fill:none;stroke:#27AAE1;stroke-width:0.5;" x1="263" x2="3036" y1="1486.0" y2="1486.0"/>
  <line id="left-margin-Ultralight-L" style="fill:none;stroke:#FF3B30;stroke-width:0.5;" x1="515.84" x2="515.84" y1="1461.0" y2="1580.0"/>
  <line id="right-margin-Ultralight-L" style="fill:none;stroke:#00AEEF;stroke-width:0.5;" x1="585.84" x2="585.84" y1="1461.0" y2="1580.0"/>
  <line id="left-margin-Regular-L" style="fill:none;stroke:#FF3B30;stroke-width:0.5;" x1="1403.07" x2="1403.07" y1="1461.0" y2="1580.0"/>
  <line id="right-margin-Regular-L" style="fill:none;stroke:#00AEEF;stroke-width:0.5;" x1="1473.07" x2="1473.07" y1="1461.0" y2="1580.0"/>
  <line id="left-margin-Black-L" style="fill:none;stroke:#FF3B30;stroke-width:0.5;" x1="2881.72" x2="2881.72" y1="1461.0" y2="1580.0"/>
  <line id="right-margin-Black-L" style="fill:none;stroke:#00AEEF;stroke-width:0.5;" x1="2951.72" x2="2951.72" y1="1461.0" y2="1580.0"/>
 </g>
 <g id="Symbols">
  <g id="Ultralight-S" transform="matrix(0.375000 0 0 0.375000 515.84 613.0)">
   <path d="M203.41,104.23,181.64,30.3a6,6,0,0,0-5.75-4.3H80.11a6,6,0,0,0-5.75,4.3L52.59,104.23a61.48,61.48,0,0,0,16.87,62.65A85.35,85.35,0,0,0,122,189.77V234H88a6,6,0,1,0,0,12h80a6,6,0,1,0,0-12H134V189.77a85.38,85.38,0,0,0,52.54-22.89A61.48,61.48,0,0,0,203.41,104.23ZM84.6,38h86.8l20.51,69.63c.26.9.5,1.8.71,2.7-22.54,9.07-48.17-.73-61.91-7.68C104.1,89.17,83.48,88.34,68.83,91.52Zm93.75,120.11a73.67,73.67,0,0,1-100.7,0,49.53,49.53,0,0,1-13.56-50.48l.74-2.51c12.34-4.46,32.26-6.05,60.46,8.23,11,5.55,28.65,12.64,47.52,12.64A65.56,65.56,0,0,0,194,122.62,49.22,49.22,0,0,1,178.35,158.11Z"/>
  </g>
  <g id="Regular-S" transform="matrix(0.375000 0 0 0.375000 1403.07 613.0)">
   <path d="M203.41,104.23,181.64,30.3a6,6,0,0,0-5.75-4.3H80.11a6,6,0,0,0-5.75,4.3L52.59,104.23a61.48,61.48,0,0,0,16.87,62.65A85.35,85.35,0,0,0,122,189.77V234H88a6,6,0,1,0,0,12h80a6,6,0,1,0,0-12H134V189.77a85.38,85.38,0,0,0,52.54-22.89A61.48,61.48,0,0,0,203.41,104.23ZM84.6,38h86.8l20.51,69.63c.26.9.5,1.8.71,2.7-22.54,9.07-48.17-.73-61.91-7.68C104.1,89.17,83.48,88.34,68.83,91.52Zm93.75,120.11a73.67,73.67,0,0,1-100.7,0,49.53,49.53,0,0,1-13.56-50.48l.74-2.51c12.34-4.46,32.26-6.05,60.46,8.23,11,5.55,28.65,12.64,47.52,12.64A65.56,65.56,0,0,0,194,122.62,49.22,49.22,0,0,1,178.35,158.11Z"/>
  </g>
  <g id="Black-S" transform="matrix(0.375000 0 0 0.375000 2881.72 613.0)">
   <path d="M203.41,104.23,181.64,30.3a6,6,0,0,0-5.75-4.3H80.11a6,6,0,0,0-5.75,4.3L52.59,104.23a61.48,61.48,0,0,0,16.87,62.65A85.35,85.35,0,0,0,122,189.77V234H88a6,6,0,1,0,0,12h80a6,6,0,1,0,0-12H134V189.77a85.38,85.38,0,0,0,52.54-22.89A61.48,61.48,0,0,0,203.41,104.23ZM84.6,38h86.8l20.51,69.63c.26.9.5,1.8.71,2.7-22.54,9.07-48.17-.73-61.91-7.68C104.1,89.17,83.48,88.34,68.83,91.52Zm93.75,120.11a73.67,73.67,0,0,1-100.7,0,49.53,49.53,0,0,1-13.56-50.48l.74-2.51c12.34-4.46,32.26-6.05,60.46,8.23,11,5.55,28.65,12.64,47.52,12.64A65.56,65.56,0,0,0,194,122.62,49.22,49.22,0,0,1,178.35,158.11Z"/>
  </g>
  <g id="Ultralight-M" transform="matrix(0.375000 0 0 0.375000 515.84 1043.0)">
   <path d="M203.41,104.23,181.64,30.3a6,6,0,0,0-5.75-4.3H80.11a6,6,0,0,0-5.75,4.3L52.59,104.23a61.48,61.48,0,0,0,16.87,62.65A85.35,85.35,0,0,0,122,189.77V234H88a6,6,0,1,0,0,12h80a6,6,0,1,0,0-12H134V189.77a85.38,85.38,0,0,0,52.54-22.89A61.48,61.48,0,0,0,203.41,104.23ZM84.6,38h86.8l20.51,69.63c.26.9.5,1.8.71,2.7-22.54,9.07-48.17-.73-61.91-7.68C104.1,89.17,83.48,88.34,68.83,91.52Zm93.75,120.11a73.67,73.67,0,0,1-100.7,0,49.53,49.53,0,0,1-13.56-50.48l.74-2.51c12.34-4.46,32.26-6.05,60.46,8.23,11,5.55,28.65,12.64,47.52,12.64A65.56,65.56,0,0,0,194,122.62,49.22,49.22,0,0,1,178.35,158.11Z"/>
  </g>
  <g id="Regular-M" transform="matrix(0.375000 0 0 0.375000 1403.07 1043.0)">
   <path d="M203.41,104.23,181.64,30.3a6,6,0,0,0-5.75-4.3H80.11a6,6,0,0,0-5.75,4.3L52.59,104.23a61.48,61.48,0,0,0,16.87,62.65A85.35,85.35,0,0,0,122,189.77V234H88a6,6,0,1,0,0,12h80a6,6,0,1,0,0-12H134V189.77a85.38,85.38,0,0,0,52.54-22.89A61.48,61.48,0,0,0,203.41,104.23ZM84.6,38h86.8l20.51,69.63c.26.9.5,1.8.71,2.7-22.54,9.07-48.17-.73-61.91-7.68C104.1,89.17,83.48,88.34,68.83,91.52Zm93.75,120.11a73.67,73.67,0,0,1-100.7,0,49.53,49.53,0,0,1-13.56-50.48l.74-2.51c12.34-4.46,32.26-6.05,60.46,8.23,11,5.55,28.65,12.64,47.52,12.64A65.56,65.56,0,0,0,194,122.62,49.22,49.22,0,0,1,178.35,158.11Z"/>
  </g>
  <g id="Black-M" transform="matrix(0.375000 0 0 0.375000 2881.72 1043.0)">
   <path d="M203.41,104.23,181.64,30.3a6,6,0,0,0-5.75-4.3H80.11a6,6,0,0,0-5.75,4.3L52.59,104.23a61.48,61.48,0,0,0,16.87,62.65A85.35,85.35,0,0,0,122,189.77V234H88a6,6,0,1,0,0,12h80a6,6,0,1,0,0-12H134V189.77a85.38,85.38,0,0,0,52.54-22.89A61.48,61.48,0,0,0,203.41,104.23ZM84.6,38h86.8l20.51,69.63c.26.9.5,1.8.71,2.7-22.54,9.07-48.17-.73-61.91-7.68C104.1,89.17,83.48,88.34,68.83,91.52Zm93.75,120.11a73.67,73.67,0,0,1-100.7,0,49.53,49.53,0,0,1-13.56-50.48l.74-2.51c12.34-4.46,32.26-6.05,60.46,8.23,11,5.55,28.65,12.64,47.52,12.64A65.56,65.56,0,0,0,194,122.62,49.22,49.22,0,0,1,178.35,158.11Z"/>
  </g>
  <g id="Ultralight-L" transform="matrix(0.375000 0 0 0.375000 515.84 1473.0)">
   <path d="M203.41,104.23,181.64,30.3a6,6,0,0,0-5.75-4.3H80.11a6,6,0,0,0-5.75,4.3L52.59,104.23a61.48,61.48,0,0,0,16.87,62.65A85.35,85.35,0,0,0,122,189.77V234H88a6,6,0,1,0,0,12h80a6,6,0,1,0,0-12H134V189.77a85.38,85.38,0,0,0,52.54-22.89A61.48,61.48,0,0,0,203.41,104.23ZM84.6,38h86.8l20.51,69.63c.26.9.5,1.8.71,2.7-22.54,9.07-48.17-.73-61.91-7.68C104.1,89.17,83.48,88.34,68.83,91.52Zm93.75,120.11a73.67,73.67,0,0,1-100.7,0,49.53,49.53,0,0,1-13.56-50.48l.74-2.51c12.34-4.46,32.26-6.05,60.46,8.23,11,5.55,28.65,12.64,47.52,12.64A65.56,65.56,0,0,0,194,122.62,49.22,49.22,0,0,1,178.35,158.11Z"/>
  </g>
  <g id="Regular-L" transform="matrix(0.375000 0 0 0.375000 1403.07 1473.0)">
   <path d="M203.41,104.23,181.64,30.3a6,6,0,0,0-5.75-4.3H80.11a6,6,0,0,0-5.75,4.3L52.59,104.23a61.48,61.48,0,0,0,16.87,62.65A85.35,85.35,0,0,0,122,189.77V234H88a6,6,0,1,0,0,12h80a6,6,0,1,0,0-12H134V189.77a85.38,85.38,0,0,0,52.54-22.89A61.48,61.48,0,0,0,203.41,104.23ZM84.6,38h86.8l20.51,69.63c.26.9.5,1.8.71,2.7-22.54,9.07-48.17-.73-61.91-7.68C104.1,89.17,83.48,88.34,68.83,91.52Zm93.75,120.11a73.67,73.67,0,0,1-100.7,0,49.53,49.53,0,0,1-13.56-50.48l.74-2.51c12.34-4.46,32.26-6.05,60.46,8.23,11,5.55,28.65,12.64,47.52,12.64A65.56,65.56,0,0,0,194,122.62,49.22,49.22,0,0,1,178.35,158.11Z"/>
  </g>
  <g id="Black-L" transform="matrix(0.375000 0 0 0.375000 2881.72 1473.0)">
   <path d="M203.41,104.23,181.64,30.3a6,6,0,0,0-5.75-4.3H80.11a6,6,0,0,0-5.75,4.3L52.59,104.23a61.48,61.48,0,0,0,16.87,62.65A85.35,85.35,0,0,0,122,189.77V234H88a6,6,0,1,0,0,12h80a6,6,0,1,0,0-12H134V189.77a85.38,85.38,0,0,0,52.54-22.89A61.48,61.48,0,0,0,203.41,104.23ZM84.6,38h86.8l20.51,69.63c.26.9.5,1.8.71,2.7-22.54,9.07-48.17-.73-61.91-7.68C104.1,89.17,83.48,88.34,68.83,91.52Zm93.75,120.11a73.67,73.67,0,0,1-100.7,0,49.53,49.53,0,0,1-13.56-50.48l.74-2.51c12.34-4.46,32.26-6.05,60.46,8.23,11,5.55,28.65,12.64,47.52,12.64A65.56,65.56,0,0,0,194,122.62,49.22,49.22,0,0,1,178.35,158.11Z"/>
  </g>
 </g>
</svg>
