<?xml version="1.0" encoding="UTF-8"?>
<svg version="1.1" xmlns="http://www.w3.org/2000/svg" xmlns:xlink="http://www.w3.org/1999/xlink" viewBox="0 0 3300 2200">
 <g id="Notes">
  <rect height="2200" id="artboard" style="fill:white;opacity:1" width="3300" x="0" y="0"/>
 </g>
 <g id="Guides">
  <line id="Baseline-S" style="fill:none;stroke:#27AAE1;stroke-width:0.5;" x1="263" x2="3036" y1="696.0" y2="696.0"/>
  <line id="Capline-S" style="fill:none;stroke:#27AAE1;stroke-width:0.5;" x1="263" x2="3036" y1="626.0" y2="626.0"/>
  <line id="left-margin-Ultralight-S" style="fill:none;stroke:#FF3B30;stroke-width:0.5;" x1="515.84" x2="515.84" y1="601.0" y2="720.0"/>
  <line id="right-margin-Ultralight-S" style="fill:none;stroke:#00AEEF;stroke-width:0.5;" x1="585.84" x2="585.84" y1="601.0" y2="720.0"/>
  <line id="left-margin-Regular-S" style="fill:none;stroke:#FF3B30;stroke-width:0.5;" x1="1403.07" x2="1403.07" y1="601.0" y2="720.0"/>
  <line id="right-margin-Regular-S" style="fill:none;stroke:#00AEEF;stroke-width:0.5;" x1="1473.07" x2="1473.07" y1="601.0" y2="720.0"/>
  <line id="left-margin-Black-S" style="fill:none;stroke:#FF3B30;stroke-width:0.5;" x1="2881.72" x2="2881.72" y1="601.0" y2="720.0"/>
  <line id="right-margin-Black-S" style="fill:none;stroke:#00AEEF;stroke-width:0.5;" x1="2951.72" x2="2951.72" y1="601.0" y2="720.0"/>
  <line id="Baseline-M" style="fill:none;stroke:#27AAE1;stroke-width:0.5;" x1="263" x2="3036" y1="1126.0" y2="1126.0"/>
  <line id="Capline-M" style="fill:none;stroke:#27AAE1;stroke-width:0.5;" x1="263" x2="3036" y1="1056.0" y2="1056.0"/>
  <line id="left-margin-Ultralight-M" style="fill:none;stroke:#FF3B30;stroke-width:0.5;" x1="515.84" x2="515.84" y1="1031.0" y2="1150.0"/>
  <line id="right-margin-Ultralight-M" style="fill:none;stroke:#00AEEF;stroke-width:0.5;" x1="585.84" x2="585.84" y1="1031.0" y2="1150.0"/>
  <line id="left-margin-Regular-M" style="fill:none;stroke:#FF3B30;stroke-width:0.5;" x1="1403.07" x2="1403.07" y1="1031.0" y2="1150.0"/>
  <line id="right-margin-Regular-M" style="fill:none;stroke:#00AEEF;stroke-width:0.5;" x1="1473.07" x2="1473.07" y1="1031.0" y2="1150.0"/>
  <line id="left-margin-Black-M" style="fill:none;stroke:#FF3B30;stroke-width:0.5;" x1="2881.72" x2="2881.72" y1="1031.0" y2="1150.0"/>
  <line id="right-margin-Black-M" style="fill:none;stroke:#00AEEF;stroke-width:0.5;" x1="2951.72" x2="2951.72" y1="1031.0" y2="1150.0"/>
  <line id="Baseline-L" style="fill:none;stroke:#27AAE1;stroke-width:0.5;" x1="263" x2="3036" y1="1556.0" y2="1556.0"/>
  <line id="Capline-L" style="fill:none;stroke:#27AAE1;stroke-width:0.5;" x1="263" x2="3036" y1="1486.0" y2="1486.0"/>
  <line id="left-margin-Ultralight-L" style="fill:none;stroke:#FF3B30;stroke-width:0.5;" x1="515.84" x2="515.84" y1="1461.0" y2="1580.0"/>
  <line id="right-margin-Ultralight-L" style="fill:none;stroke:#00AEEF;stroke-width:0.5;" x1="585.84" x2="585.84" y1="1461.0" y2="1580.0"/>
  <line id="left-margin-Regular-L" style="fill:none;stroke:#FF3B30;stroke-width:0.5;" x1="1403.07" x2="1403.07" y1="1461.0" y2="1580.0"/>
  <line id="right-margin-Regular-L" style="fill:none;stroke:#00AEEF;stroke-width:0.5;" x1="1473.07" x2="1473.07" y1="1461.0" y2="1580.0"/>
  <line id="left-margin-Black-L" style="fill:none;stroke:#FF3B30;stroke-width:0.5;" x1="2881.72" x2="2881.72" y1="1461.0" y2="1580.0"/>
  <line id="right-margin-Black-L" style="fill:none;stroke:#00AEEF;stroke-width:0.5;" x1="2951.72" x2="2951.72" y1="1461.0" y2="1580.0"/>
 </g>
 <g id="Symbols">
  <g id="Ultralight-S" transform="matrix(0.273438 0 0 0.273438 515.84 626.0)">
   <path d="M246.64,63,194.87,34.74A5.93,5.93,0,0,0,192,34H160a6,6,0,0,0-6,6,26,26,0,0,1-52,0,6,6,0,0,0-6-6H64a5.93,5.93,0,0,0-2.88.74L9.36,63A13.77,13.77,0,0,0,3.58,81.55l19.28,36.81A14.38,14.38,0,0,0,35.67,126H58v82a14,14,0,0,0,14,14H184a14,14,0,0,0,14-14V126h22.34a14.38,14.38,0,0,0,12.81-7.64l19.28-36.81A13.77,13.77,0,0,0,246.64,63Zm-211,51a2.42,2.42,0,0,1-2.18-1.21L14.21,76a1.82,1.82,0,0,1,.9-2.47L58,50.11V114ZM186,208a2,2,0,0,1-2,2H72a2,2,0,0,1-2-2V46H90.48a38,38,0,0,0,75,0H186Zm55.8-132-19.28,36.8a2.42,2.42,0,0,1-2.18,1.21H198V50.11l42.9,23.4A1.83,1.83,0,0,1,241.79,76Z"/>
  </g>
  <g id="Regular-S" transform="matrix(0.273438 0 0 0.273438 1403.07 626.0)">
   <path d="M246.64,63,194.87,34.74A5.93,5.93,0,0,0,192,34H160a6,6,0,0,0-6,6,26,26,0,0,1-52,0,6,6,0,0,0-6-6H64a5.93,5.93,0,0,0-2.88.74L9.36,63A13.77,13.77,0,0,0,3.58,81.55l19.28,36.81A14.38,14.38,0,0,0,35.67,126H58v82a14,14,0,0,0,14,14H184a14,14,0,0,0,14-14V126h22.34a14.38,14.38,0,0,0,12.81-7.64l19.28-36.81A13.77,13.77,0,0,0,246.64,63Zm-211,51a2.42,2.42,0,0,1-2.18-1.21L14.21,76a1.82,1.82,0,0,1,.9-2.47L58,50.11V114ZM186,208a2,2,0,0,1-2,2H72a2,2,0,0,1-2-2V46H90.48a38,38,0,0,0,75,0H186Zm55.8-132-19.28,36.8a2.42,2.42,0,0,1-2.18,1.21H198V50.11l42.9,23.4A1.83,1.83,0,0,1,241.79,76Z"/>
  </g>
  <g id="Black-S" transform="matrix(0.273438 0 0 0.273438 2881.72 626.0)">
   <path d="M246.64,63,194.87,34.74A5.93,5.93,0,0,0,192,34H160a6,6,0,0,0-6,6,26,26,0,0,1-52,0,6,6,0,0,0-6-6H64a5.93,5.93,0,0,0-2.88.74L9.36,63A13.77,13.77,0,0,0,3.58,81.55l19.28,36.81A14.38,14.38,0,0,0,35.67,126H58v82a14,14,0,0,0,14,14H184a14,14,0,0,0,14-14V126h22.34a14.38,14.38,0,0,0,12.81-7.64l19.28-36.81A13.77,13.77,0,0,0,246.64,63Zm-211,51a2.42,2.42,0,0,1-2.18-1.21L14.21,76a1.82,1.82,0,0,1,.9-2.47L58,50.11V114ZM186,208a2,2,0,0,1-2,2H72a2,2,0,0,1-2-2V46H90.48a38,38,0,0,0,75,0H186Zm55.8-132-19.28,36.8a2.42,2.42,0,0,1-2.18,1.21H198V50.11l42.9,23.4A1.83,1.83,0,0,1,241.79,76Z"/>
  </g>
  <g id="Ultralight-M" transform="matrix(0.273438 0 0 0.273438 515.84 1056.0)">
   <path d="M246.64,63,194.87,34.74A5.93,5.93,0,0,0,192,34H160a6,6,0,0,0-6,6,26,26,0,0,1-52,0,6,6,0,0,0-6-6H64a5.93,5.93,0,0,0-2.88.74L9.36,63A13.77,13.77,0,0,0,3.58,81.55l19.28,36.81A14.38,14.38,0,0,0,35.67,126H58v82a14,14,0,0,0,14,14H184a14,14,0,0,0,14-14V126h22.34a14.38,14.38,0,0,0,12.81-7.64l19.28-36.81A13.77,13.77,0,0,0,246.64,63Zm-211,51a2.42,2.42,0,0,1-2.18-1.21L14.21,76a1.82,1.82,0,0,1,.9-2.47L58,50.11V114ZM186,208a2,2,0,0,1-2,2H72a2,2,0,0,1-2-2V46H90.48a38,38,0,0,0,75,0H186Zm55.8-132-19.28,36.8a2.42,2.42,0,0,1-2.18,1.21H198V50.11l42.9,23.4A1.83,1.83,0,0,1,241.79,76Z"/>
  </g>
  <g id="Regular-M" transform="matrix(0.273438 0 0 0.273438 1403.07 1056.0)">
   <path d="M246.64,63,194.87,34.74A5.93,5.93,0,0,0,192,34H160a6,6,0,0,0-6,6,26,26,0,0,1-52,0,6,6,0,0,0-6-6H64a5.93,5.93,0,0,0-2.88.74L9.36,63A13.77,13.77,0,0,0,3.58,81.55l19.28,36.81A14.38,14.38,0,0,0,35.67,126H58v82a14,14,0,0,0,14,14H184a14,14,0,0,0,14-14V126h22.34a14.38,14.38,0,0,0,12.81-7.64l19.28-36.81A13.77,13.77,0,0,0,246.64,63Zm-211,51a2.42,2.42,0,0,1-2.18-1.21L14.21,76a1.82,1.82,0,0,1,.9-2.47L58,50.11V114ZM186,208a2,2,0,0,1-2,2H72a2,2,0,0,1-2-2V46H90.48a38,38,0,0,0,75,0H186Zm55.8-132-19.28,36.8a2.42,2.42,0,0,1-2.18,1.21H198V50.11l42.9,23.4A1.83,1.83,0,0,1,241.79,76Z"/>
  </g>
  <g id="Black-M" transform="matrix(0.273438 0 0 0.273438 2881.72 1056.0)">
   <path d="M246.64,63,194.87,34.74A5.93,5.93,0,0,0,192,34H160a6,6,0,0,0-6,6,26,26,0,0,1-52,0,6,6,0,0,0-6-6H64a5.93,5.93,0,0,0-2.88.74L9.36,63A13.77,13.77,0,0,0,3.58,81.55l19.28,36.81A14.38,14.38,0,0,0,35.67,126H58v82a14,14,0,0,0,14,14H184a14,14,0,0,0,14-14V126h22.34a14.38,14.38,0,0,0,12.81-7.64l19.28-36.81A13.77,13.77,0,0,0,246.64,63Zm-211,51a2.42,2.42,0,0,1-2.18-1.21L14.21,76a1.82,1.82,0,0,1,.9-2.47L58,50.11V114ZM186,208a2,2,0,0,1-2,2H72a2,2,0,0,1-2-2V46H90.48a38,38,0,0,0,75,0H186Zm55.8-132-19.28,36.8a2.42,2.42,0,0,1-2.18,1.21H198V50.11l42.9,23.4A1.83,1.83,0,0,1,241.79,76Z"/>
  </g>
  <g id="Ultralight-L" transform="matrix(0.273438 0 0 0.273438 515.84 1486.0)">
   <path d="M246.64,63,194.87,34.74A5.93,5.93,0,0,0,192,34H160a6,6,0,0,0-6,6,26,26,0,0,1-52,0,6,6,0,0,0-6-6H64a5.93,5.93,0,0,0-2.88.74L9.36,63A13.77,13.77,0,0,0,3.58,81.55l19.28,36.81A14.38,14.38,0,0,0,35.67,126H58v82a14,14,0,0,0,14,14H184a14,14,0,0,0,14-14V126h22.34a14.38,14.38,0,0,0,12.81-7.64l19.28-36.81A13.77,13.77,0,0,0,246.64,63Zm-211,51a2.42,2.42,0,0,1-2.18-1.21L14.21,76a1.82,1.82,0,0,1,.9-2.47L58,50.11V114ZM186,208a2,2,0,0,1-2,2H72a2,2,0,0,1-2-2V46H90.48a38,38,0,0,0,75,0H186Zm55.8-132-19.28,36.8a2.42,2.42,0,0,1-2.18,1.21H198V50.11l42.9,23.4A1.83,1.83,0,0,1,241.79,76Z"/>
  </g>
  <g id="Regular-L" transform="matrix(0.273438 0 0 0.273438 1403.07 1486.0)">
   <path d="M246.64,63,194.87,34.74A5.93,5.93,0,0,0,192,34H160a6,6,0,0,0-6,6,26,26,0,0,1-52,0,6,6,0,0,0-6-6H64a5.93,5.93,0,0,0-2.88.74L9.36,63A13.77,13.77,0,0,0,3.58,81.55l19.28,36.81A14.38,14.38,0,0,0,35.67,126H58v82a14,14,0,0,0,14,14H184a14,14,0,0,0,14-14V126h22.34a14.38,14.38,0,0,0,12.81-7.64l19.28-36.81A13.77,13.77,0,0,0,246.64,63Zm-211,51a2.42,2.42,0,0,1-2.18-1.21L14.21,76a1.82,1.82,0,0,1,.9-2.47L58,50.11V114ZM186,208a2,2,0,0,1-2,2H72a2,2,0,0,1-2-2V46H90.48a38,38,0,0,0,75,0H186Zm55.8-132-19.28,36.8a2.42,2.42,0,0,1-2.18,1.21H198V50.11l42.9,23.4A1.83,1.83,0,0,1,241.79,76Z"/>
  </g>
  <g id="Black-L" transform="matrix(0.273438 0 0 0.273438 2881.72 1486.0)">
   <path d="M246.64,63,194.87,34.74A5.93,5.93,0,0,0,192,34H160a6,6,0,0,0-6,6,26,26,0,0,1-52,0,6,6,0,0,0-6-6H64a5.93,5.93,0,0,0-2.88.74L9.36,63A13.77,13.77,0,0,0,3.58,81.55l19.28,36.81A14.38,14.38,0,0,0,35.67,126H58v82a14,14,0,0,0,14,14H184a14,14,0,0,0,14-14V126h22.34a14.38,14.38,0,0,0,12.81-7.64l19.28-36.81A13.77,13.77,0,0,0,246.64,63Zm-211,51a2.42,2.42,0,0,1-2.18-1.21L14.21,76a1.82,1.82,0,0,1,.9-2.47L58,50.11V114ZM186,208a2,2,0,0,1-2,2H72a2,2,0,0,1-2-2V46H90.48a38,38,0,0,0,75,0H186Zm55.8-132-19.28,36.8a2.42,2.42,0,0,1-2.18,1.21H198V50.11l42.9,23.4A1.83,1.83,0,0,1,241.79,76Z"/>
  </g>
 </g>
</svg>
