<?xml version="1.0" encoding="UTF-8"?>
<svg version="1.1" xmlns="http://www.w3.org/2000/svg" xmlns:xlink="http://www.w3.org/1999/xlink" viewBox="0 0 3300 2200">
 <g id="Notes">
  <rect height="2200" id="artboard" style="fill:white;opacity:1" width="3300" x="0" y="0"/>
 </g>
 <g id="Guides">
  <line id="Baseline-S" style="fill:none;stroke:#27AAE1;stroke-width:0.5;" x1="263" x2="3036" y1="696.0" y2="696.0"/>
  <line id="Capline-S" style="fill:none;stroke:#27AAE1;stroke-width:0.5;" x1="263" x2="3036" y1="626.0" y2="626.0"/>
  <line id="left-margin-Ultralight-S" style="fill:none;stroke:#FF3B30;stroke-width:0.5;" x1="515.84" x2="515.84" y1="601.0" y2="720.0"/>
  <line id="right-margin-Ultralight-S" style="fill:none;stroke:#00AEEF;stroke-width:0.5;" x1="585.84" x2="585.84" y1="601.0" y2="720.0"/>
  <line id="left-margin-Regular-S" style="fill:none;stroke:#FF3B30;stroke-width:0.5;" x1="1403.07" x2="1403.07" y1="601.0" y2="720.0"/>
  <line id="right-margin-Regular-S" style="fill:none;stroke:#00AEEF;stroke-width:0.5;" x1="1473.07" x2="1473.07" y1="601.0" y2="720.0"/>
  <line id="left-margin-Black-S" style="fill:none;stroke:#FF3B30;stroke-width:0.5;" x1="2881.72" x2="2881.72" y1="601.0" y2="720.0"/>
  <line id="right-margin-Black-S" style="fill:none;stroke:#00AEEF;stroke-width:0.5;" x1="2951.72" x2="2951.72" y1="601.0" y2="720.0"/>
  <line id="Baseline-M" style="fill:none;stroke:#27AAE1;stroke-width:0.5;" x1="263" x2="3036" y1="1126.0" y2="1126.0"/>
  <line id="Capline-M" style="fill:none;stroke:#27AAE1;stroke-width:0.5;" x1="263" x2="3036" y1="1056.0" y2="1056.0"/>
  <line id="left-margin-Ultralight-M" style="fill:none;stroke:#FF3B30;stroke-width:0.5;" x1="515.84" x2="515.84" y1="1031.0" y2="1150.0"/>
  <line id="right-margin-Ultralight-M" style="fill:none;stroke:#00AEEF;stroke-width:0.5;" x1="585.84" x2="585.84" y1="1031.0" y2="1150.0"/>
  <line id="left-margin-Regular-M" style="fill:none;stroke:#FF3B30;stroke-width:0.5;" x1="1403.07" x2="1403.07" y1="1031.0" y2="1150.0"/>
  <line id="right-margin-Regular-M" style="fill:none;stroke:#00AEEF;stroke-width:0.5;" x1="1473.07" x2="1473.07" y1="1031.0" y2="1150.0"/>
  <line id="left-margin-Black-M" style="fill:none;stroke:#FF3B30;stroke-width:0.5;" x1="2881.72" x2="2881.72" y1="1031.0" y2="1150.0"/>
  <line id="right-margin-Black-M" style="fill:none;stroke:#00AEEF;stroke-width:0.5;" x1="2951.72" x2="2951.72" y1="1031.0" y2="1150.0"/>
  <line id="Baseline-L" style="fill:none;stroke:#27AAE1;stroke-width:0.5;" x1="263" x2="3036" y1="1556.0" y2="1556.0"/>
  <line id="Capline-L" style="fill:none;stroke:#27AAE1;stroke-width:0.5;" x1="263" x2="3036" y1="1486.0" y2="1486.0"/>
  <line id="left-margin-Ultralight-L" style="fill:none;stroke:#FF3B30;stroke-width:0.5;" x1="515.84" x2="515.84" y1="1461.0" y2="1580.0"/>
  <line id="right-margin-Ultralight-L" style="fill:none;stroke:#00AEEF;stroke-width:0.5;" x1="585.84" x2="585.84" y1="1461.0" y2="1580.0"/>
  <line id="left-margin-Regular-L" style="fill:none;stroke:#FF3B30;stroke-width:0.5;" x1="1403.07" x2="1403.07" y1="1461.0" y2="1580.0"/>
  <line id="right-margin-Regular-L" style="fill:none;stroke:#00AEEF;stroke-width:0.5;" x1="1473.07" x2="1473.07" y1="1461.0" y2="1580.0"/>
  <line id="left-margin-Black-L" style="fill:none;stroke:#FF3B30;stroke-width:0.5;" x1="2881.72" x2="2881.72" y1="1461.0" y2="1580.0"/>
  <line id="right-margin-Black-L" style="fill:none;stroke:#00AEEF;stroke-width:0.5;" x1="2951.72" x2="2951.72" y1="1461.0" y2="1580.0"/>
 </g>
 <g id="Symbols">
  <g id="Ultralight-S" transform="matrix(0.375000 0 0 0.375000 515.84 613.0)">
   <path d="M240,102c0,70-103.79,126.66-108.21,129a8,8,0,0,1-7.58,0C119.79,228.66,16,172,16,102A62.07,62.07,0,0,1,78,40c20.65,0,38.73,8.88,50,23.89C139.27,48.88,157.35,40,178,40A62.07,62.07,0,0,1,240,102Z"/>
  </g>
  <g id="Regular-S" transform="matrix(0.375000 0 0 0.375000 1403.07 613.0)">
   <path d="M240,102c0,70-103.79,126.66-108.21,129a8,8,0,0,1-7.58,0C119.79,228.66,16,172,16,102A62.07,62.07,0,0,1,78,40c20.65,0,38.73,8.88,50,23.89C139.27,48.88,157.35,40,178,40A62.07,62.07,0,0,1,240,102Z"/>
  </g>
  <g id="Black-S" transform="matrix(0.375000 0 0 0.375000 2881.72 613.0)">
   <path d="M240,102c0,70-103.79,126.66-108.21,129a8,8,0,0,1-7.58,0C119.79,228.66,16,172,16,102A62.07,62.07,0,0,1,78,40c20.65,0,38.73,8.88,50,23.89C139.27,48.88,157.35,40,178,40A62.07,62.07,0,0,1,240,102Z"/>
  </g>
  <g id="Ultralight-M" transform="matrix(0.375000 0 0 0.375000 515.84 1043.0)">
   <path d="M240,102c0,70-103.79,126.66-108.21,129a8,8,0,0,1-7.58,0C119.79,228.66,16,172,16,102A62.07,62.07,0,0,1,78,40c20.65,0,38.73,8.88,50,23.89C139.27,48.88,157.35,40,178,40A62.07,62.07,0,0,1,240,102Z"/>
  </g>
  <g id="Regular-M" transform="matrix(0.375000 0 0 0.375000 1403.07 1043.0)">
   <path d="M240,102c0,70-103.79,126.66-108.21,129a8,8,0,0,1-7.58,0C119.79,228.66,16,172,16,102A62.07,62.07,0,0,1,78,40c20.65,0,38.73,8.88,50,23.89C139.27,48.88,157.35,40,178,40A62.07,62.07,0,0,1,240,102Z"/>
  </g>
  <g id="Black-M" transform="matrix(0.375000 0 0 0.375000 2881.72 1043.0)">
   <path d="M240,102c0,70-103.79,126.66-108.21,129a8,8,0,0,1-7.58,0C119.79,228.66,16,172,16,102A62.07,62.07,0,0,1,78,40c20.65,0,38.73,8.88,50,23.89C139.27,48.88,157.35,40,178,40A62.07,62.07,0,0,1,240,102Z"/>
  </g>
  <g id="Ultralight-L" transform="matrix(0.375000 0 0 0.375000 515.84 1473.0)">
   <path d="M240,102c0,70-103.79,126.66-108.21,129a8,8,0,0,1-7.58,0C119.79,228.66,16,172,16,102A62.07,62.07,0,0,1,78,40c20.65,0,38.73,8.88,50,23.89C139.27,48.88,157.35,40,178,40A62.07,62.07,0,0,1,240,102Z"/>
  </g>
  <g id="Regular-L" transform="matrix(0.375000 0 0 0.375000 1403.07 1473.0)">
   <path d="M240,102c0,70-103.79,126.66-108.21,129a8,8,0,0,1-7.58,0C119.79,228.66,16,172,16,102A62.07,62.07,0,0,1,78,40c20.65,0,38.73,8.88,50,23.89C139.27,48.88,157.35,40,178,40A62.07,62.07,0,0,1,240,102Z"/>
  </g>
  <g id="Black-L" transform="matrix(0.375000 0 0 0.375000 2881.72 1473.0)">
   <path d="M240,102c0,70-103.79,126.66-108.21,129a8,8,0,0,1-7.58,0C119.79,228.66,16,172,16,102A62.07,62.07,0,0,1,78,40c20.65,0,38.73,8.88,50,23.89C139.27,48.88,157.35,40,178,40A62.07,62.07,0,0,1,240,102Z"/>
  </g>
 </g>
</svg>
