<?xml version="1.0" encoding="UTF-8"?>
<svg version="1.1" xmlns="http://www.w3.org/2000/svg" xmlns:xlink="http://www.w3.org/1999/xlink" viewBox="0 0 3300 2200">
 <g id="Notes">
  <rect height="2200" id="artboard" style="fill:white;opacity:1" width="3300" x="0" y="0"/>
 </g>
 <g id="Guides">
  <line id="Baseline-S" style="fill:none;stroke:#27AAE1;stroke-width:0.5;" x1="263" x2="3036" y1="696.0" y2="696.0"/>
  <line id="Capline-S" style="fill:none;stroke:#27AAE1;stroke-width:0.5;" x1="263" x2="3036" y1="626.0" y2="626.0"/>
  <line id="left-margin-Ultralight-S" style="fill:none;stroke:#FF3B30;stroke-width:0.5;" x1="515.84" x2="515.84" y1="601.0" y2="720.0"/>
  <line id="right-margin-Ultralight-S" style="fill:none;stroke:#00AEEF;stroke-width:0.5;" x1="585.84" x2="585.84" y1="601.0" y2="720.0"/>
  <line id="left-margin-Regular-S" style="fill:none;stroke:#FF3B30;stroke-width:0.5;" x1="1403.07" x2="1403.07" y1="601.0" y2="720.0"/>
  <line id="right-margin-Regular-S" style="fill:none;stroke:#00AEEF;stroke-width:0.5;" x1="1473.07" x2="1473.07" y1="601.0" y2="720.0"/>
  <line id="left-margin-Black-S" style="fill:none;stroke:#FF3B30;stroke-width:0.5;" x1="2881.72" x2="2881.72" y1="601.0" y2="720.0"/>
  <line id="right-margin-Black-S" style="fill:none;stroke:#00AEEF;stroke-width:0.5;" x1="2951.72" x2="2951.72" y1="601.0" y2="720.0"/>
  <line id="Baseline-M" style="fill:none;stroke:#27AAE1;stroke-width:0.5;" x1="263" x2="3036" y1="1126.0" y2="1126.0"/>
  <line id="Capline-M" style="fill:none;stroke:#27AAE1;stroke-width:0.5;" x1="263" x2="3036" y1="1056.0" y2="1056.0"/>
  <line id="left-margin-Ultralight-M" style="fill:none;stroke:#FF3B30;stroke-width:0.5;" x1="515.84" x2="515.84" y1="1031.0" y2="1150.0"/>
  <line id="right-margin-Ultralight-M" style="fill:none;stroke:#00AEEF;stroke-width:0.5;" x1="585.84" x2="585.84" y1="1031.0" y2="1150.0"/>
  <line id="left-margin-Regular-M" style="fill:none;stroke:#FF3B30;stroke-width:0.5;" x1="1403.07" x2="1403.07" y1="1031.0" y2="1150.0"/>
  <line id="right-margin-Regular-M" style="fill:none;stroke:#00AEEF;stroke-width:0.5;" x1="1473.07" x2="1473.07" y1="1031.0" y2="1150.0"/>
  <line id="left-margin-Black-M" style="fill:none;stroke:#FF3B30;stroke-width:0.5;" x1="2881.72" x2="2881.72" y1="1031.0" y2="1150.0"/>
  <line id="right-margin-Black-M" style="fill:none;stroke:#00AEEF;stroke-width:0.5;" x1="2951.72" x2="2951.72" y1="1031.0" y2="1150.0"/>
  <line id="Baseline-L" style="fill:none;stroke:#27AAE1;stroke-width:0.5;" x1="263" x2="3036" y1="1556.0" y2="1556.0"/>
  <line id="Capline-L" style="fill:none;stroke:#27AAE1;stroke-width:0.5;" x1="263" x2="3036" y1="1486.0" y2="1486.0"/>
  <line id="left-margin-Ultralight-L" style="fill:none;stroke:#FF3B30;stroke-width:0.5;" x1="515.84" x2="515.84" y1="1461.0" y2="1580.0"/>
  <line id="right-margin-Ultralight-L" style="fill:none;stroke:#00AEEF;stroke-width:0.5;" x1="585.84" x2="585.84" y1="1461.0" y2="1580.0"/>
  <line id="left-margin-Regular-L" style="fill:none;stroke:#FF3B30;stroke-width:0.5;" x1="1403.07" x2="1403.07" y1="1461.0" y2="1580.0"/>
  <line id="right-margin-Regular-L" style="fill:none;stroke:#00AEEF;stroke-width:0.5;" x1="1473.07" x2="1473.07" y1="1461.0" y2="1580.0"/>
  <line id="left-margin-Black-L" style="fill:none;stroke:#FF3B30;stroke-width:0.5;" x1="2881.72" x2="2881.72" y1="1461.0" y2="1580.0"/>
  <line id="right-margin-Black-L" style="fill:none;stroke:#00AEEF;stroke-width:0.5;" x1="2951.72" x2="2951.72" y1="1461.0" y2="1580.0"/>
 </g>
 <g id="Symbols">
  <g id="Ultralight-S" transform="matrix(0.273438 0 0 0.273438 515.84 626.0)">
   <path d="M178,42c-21,0-39.26,9.47-50,25.34C117.26,51.47,99,42,78,42a60.07,60.07,0,0,0-60,60c0,29.2,18.2,59.59,54.1,90.31a334.68,334.68,0,0,0,53.06,37,6,6,0,0,0,5.68,0,334.68,334.68,0,0,0,53.06-37C219.8,161.59,238,131.2,238,102A60.07,60.07,0,0,0,178,42ZM128,217.11C111.59,207.64,30,157.72,30,102A48.05,48.05,0,0,1,78,54c20.28,0,37.31,10.83,44.45,28.27a6,6,0,0,0,11.1,0C140.69,64.83,157.72,54,178,54a48.05,48.05,0,0,1,48,48C226,157.72,144.41,207.64,128,217.11Z"/>
  </g>
  <g id="Regular-S" transform="matrix(0.273438 0 0 0.273438 1403.07 626.0)">
   <path d="M178,42c-21,0-39.26,9.47-50,25.34C117.26,51.47,99,42,78,42a60.07,60.07,0,0,0-60,60c0,29.2,18.2,59.59,54.1,90.31a334.68,334.68,0,0,0,53.06,37,6,6,0,0,0,5.68,0,334.68,334.68,0,0,0,53.06-37C219.8,161.59,238,131.2,238,102A60.07,60.07,0,0,0,178,42ZM128,217.11C111.59,207.64,30,157.72,30,102A48.05,48.05,0,0,1,78,54c20.28,0,37.31,10.83,44.45,28.27a6,6,0,0,0,11.1,0C140.69,64.83,157.72,54,178,54a48.05,48.05,0,0,1,48,48C226,157.72,144.41,207.64,128,217.11Z"/>
  </g>
  <g id="Black-S" transform="matrix(0.273438 0 0 0.273438 2881.72 626.0)">
   <path d="M178,42c-21,0-39.26,9.47-50,25.34C117.26,51.47,99,42,78,42a60.07,60.07,0,0,0-60,60c0,29.2,18.2,59.59,54.1,90.31a334.68,334.68,0,0,0,53.06,37,6,6,0,0,0,5.68,0,334.68,334.68,0,0,0,53.06-37C219.8,161.59,238,131.2,238,102A60.07,60.07,0,0,0,178,42ZM128,217.11C111.59,207.64,30,157.72,30,102A48.05,48.05,0,0,1,78,54c20.28,0,37.31,10.83,44.45,28.27a6,6,0,0,0,11.1,0C140.69,64.83,157.72,54,178,54a48.05,48.05,0,0,1,48,48C226,157.72,144.41,207.64,128,217.11Z"/>
  </g>
  <g id="Ultralight-M" transform="matrix(0.273438 0 0 0.273438 515.84 1056.0)">
   <path d="M178,42c-21,0-39.26,9.47-50,25.34C117.26,51.47,99,42,78,42a60.07,60.07,0,0,0-60,60c0,29.2,18.2,59.59,54.1,90.31a334.68,334.68,0,0,0,53.06,37,6,6,0,0,0,5.68,0,334.68,334.68,0,0,0,53.06-37C219.8,161.59,238,131.2,238,102A60.07,60.07,0,0,0,178,42ZM128,217.11C111.59,207.64,30,157.72,30,102A48.05,48.05,0,0,1,78,54c20.28,0,37.31,10.83,44.45,28.27a6,6,0,0,0,11.1,0C140.69,64.83,157.72,54,178,54a48.05,48.05,0,0,1,48,48C226,157.72,144.41,207.64,128,217.11Z"/>
  </g>
  <g id="Regular-M" transform="matrix(0.273438 0 0 0.273438 1403.07 1056.0)">
   <path d="M178,42c-21,0-39.26,9.47-50,25.34C117.26,51.47,99,42,78,42a60.07,60.07,0,0,0-60,60c0,29.2,18.2,59.59,54.1,90.31a334.68,334.68,0,0,0,53.06,37,6,6,0,0,0,5.68,0,334.68,334.68,0,0,0,53.06-37C219.8,161.59,238,131.2,238,102A60.07,60.07,0,0,0,178,42ZM128,217.11C111.59,207.64,30,157.72,30,102A48.05,48.05,0,0,1,78,54c20.28,0,37.31,10.83,44.45,28.27a6,6,0,0,0,11.1,0C140.69,64.83,157.72,54,178,54a48.05,48.05,0,0,1,48,48C226,157.72,144.41,207.64,128,217.11Z"/>
  </g>
  <g id="Black-M" transform="matrix(0.273438 0 0 0.273438 2881.72 1056.0)">
   <path d="M178,42c-21,0-39.26,9.47-50,25.34C117.26,51.47,99,42,78,42a60.07,60.07,0,0,0-60,60c0,29.2,18.2,59.59,54.1,90.31a334.68,334.68,0,0,0,53.06,37,6,6,0,0,0,5.68,0,334.68,334.68,0,0,0,53.06-37C219.8,161.59,238,131.2,238,102A60.07,60.07,0,0,0,178,42ZM128,217.11C111.59,207.64,30,157.72,30,102A48.05,48.05,0,0,1,78,54c20.28,0,37.31,10.83,44.45,28.27a6,6,0,0,0,11.1,0C140.69,64.83,157.72,54,178,54a48.05,48.05,0,0,1,48,48C226,157.72,144.41,207.64,128,217.11Z"/>
  </g>
  <g id="Ultralight-L" transform="matrix(0.273438 0 0 0.273438 515.84 1486.0)">
   <path d="M178,42c-21,0-39.26,9.47-50,25.34C117.26,51.47,99,42,78,42a60.07,60.07,0,0,0-60,60c0,29.2,18.2,59.59,54.1,90.31a334.68,334.68,0,0,0,53.06,37,6,6,0,0,0,5.68,0,334.68,334.68,0,0,0,53.06-37C219.8,161.59,238,131.2,238,102A60.07,60.07,0,0,0,178,42ZM128,217.11C111.59,207.64,30,157.72,30,102A48.05,48.05,0,0,1,78,54c20.28,0,37.31,10.83,44.45,28.27a6,6,0,0,0,11.1,0C140.69,64.83,157.72,54,178,54a48.05,48.05,0,0,1,48,48C226,157.72,144.41,207.64,128,217.11Z"/>
  </g>
  <g id="Regular-L" transform="matrix(0.273438 0 0 0.273438 1403.07 1486.0)">
   <path d="M178,42c-21,0-39.26,9.47-50,25.34C117.26,51.47,99,42,78,42a60.07,60.07,0,0,0-60,60c0,29.2,18.2,59.59,54.1,90.31a334.68,334.68,0,0,0,53.06,37,6,6,0,0,0,5.68,0,334.68,334.68,0,0,0,53.06-37C219.8,161.59,238,131.2,238,102A60.07,60.07,0,0,0,178,42ZM128,217.11C111.59,207.64,30,157.72,30,102A48.05,48.05,0,0,1,78,54c20.28,0,37.31,10.83,44.45,28.27a6,6,0,0,0,11.1,0C140.69,64.83,157.72,54,178,54a48.05,48.05,0,0,1,48,48C226,157.72,144.41,207.64,128,217.11Z"/>
  </g>
  <g id="Black-L" transform="matrix(0.273438 0 0 0.273438 2881.72 1486.0)">
   <path d="M178,42c-21,0-39.26,9.47-50,25.34C117.26,51.47,99,42,78,42a60.07,60.07,0,0,0-60,60c0,29.2,18.2,59.59,54.1,90.31a334.68,334.68,0,0,0,53.06,37,6,6,0,0,0,5.68,0,334.68,334.68,0,0,0,53.06-37C219.8,161.59,238,131.2,238,102A60.07,60.07,0,0,0,178,42ZM128,217.11C111.59,207.64,30,157.72,30,102A48.05,48.05,0,0,1,78,54c20.28,0,37.31,10.83,44.45,28.27a6,6,0,0,0,11.1,0C140.69,64.83,157.72,54,178,54a48.05,48.05,0,0,1,48,48C226,157.72,144.41,207.64,128,217.11Z"/>
  </g>
 </g>
</svg>
