<?xml version="1.0" encoding="UTF-8"?>
<svg version="1.1" xmlns="http://www.w3.org/2000/svg" xmlns:xlink="http://www.w3.org/1999/xlink" viewBox="0 0 3300 2200">
 <g id="Notes">
  <rect height="2200" id="artboard" style="fill:white;opacity:1" width="3300" x="0" y="0"/>
 </g>
 <g id="Guides">
  <line id="Baseline-S" style="fill:none;stroke:#27AAE1;stroke-width:0.5;" x1="263" x2="3036" y1="696.0" y2="696.0"/>
  <line id="Capline-S" style="fill:none;stroke:#27AAE1;stroke-width:0.5;" x1="263" x2="3036" y1="626.0" y2="626.0"/>
  <line id="left-margin-Ultralight-S" style="fill:none;stroke:#FF3B30;stroke-width:0.5;" x1="515.84" x2="515.84" y1="601.0" y2="720.0"/>
  <line id="right-margin-Ultralight-S" style="fill:none;stroke:#00AEEF;stroke-width:0.5;" x1="585.84" x2="585.84" y1="601.0" y2="720.0"/>
  <line id="left-margin-Regular-S" style="fill:none;stroke:#FF3B30;stroke-width:0.5;" x1="1403.07" x2="1403.07" y1="601.0" y2="720.0"/>
  <line id="right-margin-Regular-S" style="fill:none;stroke:#00AEEF;stroke-width:0.5;" x1="1473.07" x2="1473.07" y1="601.0" y2="720.0"/>
  <line id="left-margin-Black-S" style="fill:none;stroke:#FF3B30;stroke-width:0.5;" x1="2881.72" x2="2881.72" y1="601.0" y2="720.0"/>
  <line id="right-margin-Black-S" style="fill:none;stroke:#00AEEF;stroke-width:0.5;" x1="2951.72" x2="2951.72" y1="601.0" y2="720.0"/>
  <line id="Baseline-M" style="fill:none;stroke:#27AAE1;stroke-width:0.5;" x1="263" x2="3036" y1="1126.0" y2="1126.0"/>
  <line id="Capline-M" style="fill:none;stroke:#27AAE1;stroke-width:0.5;" x1="263" x2="3036" y1="1056.0" y2="1056.0"/>
  <line id="left-margin-Ultralight-M" style="fill:none;stroke:#FF3B30;stroke-width:0.5;" x1="515.84" x2="515.84" y1="1031.0" y2="1150.0"/>
  <line id="right-margin-Ultralight-M" style="fill:none;stroke:#00AEEF;stroke-width:0.5;" x1="585.84" x2="585.84" y1="1031.0" y2="1150.0"/>
  <line id="left-margin-Regular-M" style="fill:none;stroke:#FF3B30;stroke-width:0.5;" x1="1403.07" x2="1403.07" y1="1031.0" y2="1150.0"/>
  <line id="right-margin-Regular-M" style="fill:none;stroke:#00AEEF;stroke-width:0.5;" x1="1473.07" x2="1473.07" y1="1031.0" y2="1150.0"/>
  <line id="left-margin-Black-M" style="fill:none;stroke:#FF3B30;stroke-width:0.5;" x1="2881.72" x2="2881.72" y1="1031.0" y2="1150.0"/>
  <line id="right-margin-Black-M" style="fill:none;stroke:#00AEEF;stroke-width:0.5;" x1="2951.72" x2="2951.72" y1="1031.0" y2="1150.0"/>
  <line id="Baseline-L" style="fill:none;stroke:#27AAE1;stroke-width:0.5;" x1="263" x2="3036" y1="1556.0" y2="1556.0"/>
  <line id="Capline-L" style="fill:none;stroke:#27AAE1;stroke-width:0.5;" x1="263" x2="3036" y1="1486.0" y2="1486.0"/>
  <line id="left-margin-Ultralight-L" style="fill:none;stroke:#FF3B30;stroke-width:0.5;" x1="515.84" x2="515.84" y1="1461.0" y2="1580.0"/>
  <line id="right-margin-Ultralight-L" style="fill:none;stroke:#00AEEF;stroke-width:0.5;" x1="585.84" x2="585.84" y1="1461.0" y2="1580.0"/>
  <line id="left-margin-Regular-L" style="fill:none;stroke:#FF3B30;stroke-width:0.5;" x1="1403.07" x2="1403.07" y1="1461.0" y2="1580.0"/>
  <line id="right-margin-Regular-L" style="fill:none;stroke:#00AEEF;stroke-width:0.5;" x1="1473.07" x2="1473.07" y1="1461.0" y2="1580.0"/>
  <line id="left-margin-Black-L" style="fill:none;stroke:#FF3B30;stroke-width:0.5;" x1="2881.72" x2="2881.72" y1="1461.0" y2="1580.0"/>
  <line id="right-margin-Black-L" style="fill:none;stroke:#00AEEF;stroke-width:0.5;" x1="2951.72" x2="2951.72" y1="1461.0" y2="1580.0"/>
 </g>
 <g id="Symbols">
  <g id="Ultralight-S" transform="matrix(0.273438 0 0 0.273438 515.84 626.0)">
   <path d="M229.18,173a6,6,0,0,1-2.16,8.2l-96,56a6,6,0,0,1-6,0l-96-56a6,6,0,0,1,6-10.36l93,54.23,93-54.23A6,6,0,0,1,229.18,173ZM221,122.82l-93,54.23L35,122.82a6,6,0,0,0-6,10.36l96,56a6,6,0,0,0,6,0l96-56a6,6,0,0,0-6-10.36ZM26,80a6,6,0,0,1,3-5.18l96-56a6,6,0,0,1,6,0l96,56a6,6,0,0,1,0,10.36l-96,56a6,6,0,0,1-6,0l-96-56A6,6,0,0,1,26,80Zm17.91,0L128,129.05,212.09,80,128,31Z"/>
  </g>
  <g id="Regular-S" transform="matrix(0.273438 0 0 0.273438 1403.07 626.0)">
   <path d="M229.18,173a6,6,0,0,1-2.16,8.2l-96,56a6,6,0,0,1-6,0l-96-56a6,6,0,0,1,6-10.36l93,54.23,93-54.23A6,6,0,0,1,229.18,173ZM221,122.82l-93,54.23L35,122.82a6,6,0,0,0-6,10.36l96,56a6,6,0,0,0,6,0l96-56a6,6,0,0,0-6-10.36ZM26,80a6,6,0,0,1,3-5.18l96-56a6,6,0,0,1,6,0l96,56a6,6,0,0,1,0,10.36l-96,56a6,6,0,0,1-6,0l-96-56A6,6,0,0,1,26,80Zm17.91,0L128,129.05,212.09,80,128,31Z"/>
  </g>
  <g id="Black-S" transform="matrix(0.273438 0 0 0.273438 2881.72 626.0)">
   <path d="M229.18,173a6,6,0,0,1-2.16,8.2l-96,56a6,6,0,0,1-6,0l-96-56a6,6,0,0,1,6-10.36l93,54.23,93-54.23A6,6,0,0,1,229.18,173ZM221,122.82l-93,54.23L35,122.82a6,6,0,0,0-6,10.36l96,56a6,6,0,0,0,6,0l96-56a6,6,0,0,0-6-10.36ZM26,80a6,6,0,0,1,3-5.18l96-56a6,6,0,0,1,6,0l96,56a6,6,0,0,1,0,10.36l-96,56a6,6,0,0,1-6,0l-96-56A6,6,0,0,1,26,80Zm17.91,0L128,129.05,212.09,80,128,31Z"/>
  </g>
  <g id="Ultralight-M" transform="matrix(0.273438 0 0 0.273438 515.84 1056.0)">
   <path d="M229.18,173a6,6,0,0,1-2.16,8.2l-96,56a6,6,0,0,1-6,0l-96-56a6,6,0,0,1,6-10.36l93,54.23,93-54.23A6,6,0,0,1,229.18,173ZM221,122.82l-93,54.23L35,122.82a6,6,0,0,0-6,10.36l96,56a6,6,0,0,0,6,0l96-56a6,6,0,0,0-6-10.36ZM26,80a6,6,0,0,1,3-5.18l96-56a6,6,0,0,1,6,0l96,56a6,6,0,0,1,0,10.36l-96,56a6,6,0,0,1-6,0l-96-56A6,6,0,0,1,26,80Zm17.91,0L128,129.05,212.09,80,128,31Z"/>
  </g>
  <g id="Regular-M" transform="matrix(0.273438 0 0 0.273438 1403.07 1056.0)">
   <path d="M229.18,173a6,6,0,0,1-2.16,8.2l-96,56a6,6,0,0,1-6,0l-96-56a6,6,0,0,1,6-10.36l93,54.23,93-54.23A6,6,0,0,1,229.18,173ZM221,122.82l-93,54.23L35,122.82a6,6,0,0,0-6,10.36l96,56a6,6,0,0,0,6,0l96-56a6,6,0,0,0-6-10.36ZM26,80a6,6,0,0,1,3-5.18l96-56a6,6,0,0,1,6,0l96,56a6,6,0,0,1,0,10.36l-96,56a6,6,0,0,1-6,0l-96-56A6,6,0,0,1,26,80Zm17.91,0L128,129.05,212.09,80,128,31Z"/>
  </g>
  <g id="Black-M" transform="matrix(0.273438 0 0 0.273438 2881.72 1056.0)">
   <path d="M229.18,173a6,6,0,0,1-2.16,8.2l-96,56a6,6,0,0,1-6,0l-96-56a6,6,0,0,1,6-10.36l93,54.23,93-54.23A6,6,0,0,1,229.18,173ZM221,122.82l-93,54.23L35,122.82a6,6,0,0,0-6,10.36l96,56a6,6,0,0,0,6,0l96-56a6,6,0,0,0-6-10.36ZM26,80a6,6,0,0,1,3-5.18l96-56a6,6,0,0,1,6,0l96,56a6,6,0,0,1,0,10.36l-96,56a6,6,0,0,1-6,0l-96-56A6,6,0,0,1,26,80Zm17.91,0L128,129.05,212.09,80,128,31Z"/>
  </g>
  <g id="Ultralight-L" transform="matrix(0.273438 0 0 0.273438 515.84 1486.0)">
   <path d="M229.18,173a6,6,0,0,1-2.16,8.2l-96,56a6,6,0,0,1-6,0l-96-56a6,6,0,0,1,6-10.36l93,54.23,93-54.23A6,6,0,0,1,229.18,173ZM221,122.82l-93,54.23L35,122.82a6,6,0,0,0-6,10.36l96,56a6,6,0,0,0,6,0l96-56a6,6,0,0,0-6-10.36ZM26,80a6,6,0,0,1,3-5.18l96-56a6,6,0,0,1,6,0l96,56a6,6,0,0,1,0,10.36l-96,56a6,6,0,0,1-6,0l-96-56A6,6,0,0,1,26,80Zm17.91,0L128,129.05,212.09,80,128,31Z"/>
  </g>
  <g id="Regular-L" transform="matrix(0.273438 0 0 0.273438 1403.07 1486.0)">
   <path d="M229.18,173a6,6,0,0,1-2.16,8.2l-96,56a6,6,0,0,1-6,0l-96-56a6,6,0,0,1,6-10.36l93,54.23,93-54.23A6,6,0,0,1,229.18,173ZM221,122.82l-93,54.23L35,122.82a6,6,0,0,0-6,10.36l96,56a6,6,0,0,0,6,0l96-56a6,6,0,0,0-6-10.36ZM26,80a6,6,0,0,1,3-5.18l96-56a6,6,0,0,1,6,0l96,56a6,6,0,0,1,0,10.36l-96,56a6,6,0,0,1-6,0l-96-56A6,6,0,0,1,26,80Zm17.91,0L128,129.05,212.09,80,128,31Z"/>
  </g>
  <g id="Black-L" transform="matrix(0.273438 0 0 0.273438 2881.72 1486.0)">
   <path d="M229.18,173a6,6,0,0,1-2.16,8.2l-96,56a6,6,0,0,1-6,0l-96-56a6,6,0,0,1,6-10.36l93,54.23,93-54.23A6,6,0,0,1,229.18,173ZM221,122.82l-93,54.23L35,122.82a6,6,0,0,0-6,10.36l96,56a6,6,0,0,0,6,0l96-56a6,6,0,0,0-6-10.36ZM26,80a6,6,0,0,1,3-5.18l96-56a6,6,0,0,1,6,0l96,56a6,6,0,0,1,0,10.36l-96,56a6,6,0,0,1-6,0l-96-56A6,6,0,0,1,26,80Zm17.91,0L128,129.05,212.09,80,128,31Z"/>
  </g>
 </g>
</svg>
