<?xml version="1.0" encoding="UTF-8"?>
<svg version="1.1" xmlns="http://www.w3.org/2000/svg" xmlns:xlink="http://www.w3.org/1999/xlink" viewBox="0 0 3300 2200">
 <g id="Notes">
  <rect height="2200" id="artboard" style="fill:white;opacity:1" width="3300" x="0" y="0"/>
 </g>
 <g id="Guides">
  <line id="Baseline-S" style="fill:none;stroke:#27AAE1;stroke-width:0.5;" x1="263" x2="3036" y1="696.0" y2="696.0"/>
  <line id="Capline-S" style="fill:none;stroke:#27AAE1;stroke-width:0.5;" x1="263" x2="3036" y1="626.0" y2="626.0"/>
  <line id="left-margin-Ultralight-S" style="fill:none;stroke:#FF3B30;stroke-width:0.5;" x1="515.84" x2="515.84" y1="601.0" y2="720.0"/>
  <line id="right-margin-Ultralight-S" style="fill:none;stroke:#00AEEF;stroke-width:0.5;" x1="585.84" x2="585.84" y1="601.0" y2="720.0"/>
  <line id="left-margin-Regular-S" style="fill:none;stroke:#FF3B30;stroke-width:0.5;" x1="1403.07" x2="1403.07" y1="601.0" y2="720.0"/>
  <line id="right-margin-Regular-S" style="fill:none;stroke:#00AEEF;stroke-width:0.5;" x1="1473.07" x2="1473.07" y1="601.0" y2="720.0"/>
  <line id="left-margin-Black-S" style="fill:none;stroke:#FF3B30;stroke-width:0.5;" x1="2881.72" x2="2881.72" y1="601.0" y2="720.0"/>
  <line id="right-margin-Black-S" style="fill:none;stroke:#00AEEF;stroke-width:0.5;" x1="2951.72" x2="2951.72" y1="601.0" y2="720.0"/>
  <line id="Baseline-M" style="fill:none;stroke:#27AAE1;stroke-width:0.5;" x1="263" x2="3036" y1="1126.0" y2="1126.0"/>
  <line id="Capline-M" style="fill:none;stroke:#27AAE1;stroke-width:0.5;" x1="263" x2="3036" y1="1056.0" y2="1056.0"/>
  <line id="left-margin-Ultralight-M" style="fill:none;stroke:#FF3B30;stroke-width:0.5;" x1="515.84" x2="515.84" y1="1031.0" y2="1150.0"/>
  <line id="right-margin-Ultralight-M" style="fill:none;stroke:#00AEEF;stroke-width:0.5;" x1="585.84" x2="585.84" y1="1031.0" y2="1150.0"/>
  <line id="left-margin-Regular-M" style="fill:none;stroke:#FF3B30;stroke-width:0.5;" x1="1403.07" x2="1403.07" y1="1031.0" y2="1150.0"/>
  <line id="right-margin-Regular-M" style="fill:none;stroke:#00AEEF;stroke-width:0.5;" x1="1473.07" x2="1473.07" y1="1031.0" y2="1150.0"/>
  <line id="left-margin-Black-M" style="fill:none;stroke:#FF3B30;stroke-width:0.5;" x1="2881.72" x2="2881.72" y1="1031.0" y2="1150.0"/>
  <line id="right-margin-Black-M" style="fill:none;stroke:#00AEEF;stroke-width:0.5;" x1="2951.72" x2="2951.72" y1="1031.0" y2="1150.0"/>
  <line id="Baseline-L" style="fill:none;stroke:#27AAE1;stroke-width:0.5;" x1="263" x2="3036" y1="1556.0" y2="1556.0"/>
  <line id="Capline-L" style="fill:none;stroke:#27AAE1;stroke-width:0.5;" x1="263" x2="3036" y1="1486.0" y2="1486.0"/>
  <line id="left-margin-Ultralight-L" style="fill:none;stroke:#FF3B30;stroke-width:0.5;" x1="515.84" x2="515.84" y1="1461.0" y2="1580.0"/>
  <line id="right-margin-Ultralight-L" style="fill:none;stroke:#00AEEF;stroke-width:0.5;" x1="585.84" x2="585.84" y1="1461.0" y2="1580.0"/>
  <line id="left-margin-Regular-L" style="fill:none;stroke:#FF3B30;stroke-width:0.5;" x1="1403.07" x2="1403.07" y1="1461.0" y2="1580.0"/>
  <line id="right-margin-Regular-L" style="fill:none;stroke:#00AEEF;stroke-width:0.5;" x1="1473.07" x2="1473.07" y1="1461.0" y2="1580.0"/>
  <line id="left-margin-Black-L" style="fill:none;stroke:#FF3B30;stroke-width:0.5;" x1="2881.72" x2="2881.72" y1="1461.0" y2="1580.0"/>
  <line id="right-margin-Black-L" style="fill:none;stroke:#00AEEF;stroke-width:0.5;" x1="2951.72" x2="2951.72" y1="1461.0" y2="1580.0"/>
 </g>
 <g id="Symbols">
  <g id="Ultralight-S" transform="matrix(0.273438 0 0 0.273438 515.84 626.0)">
   <path d="M221.89,214.26l-22-176A14,14,0,0,0,186,26H70A14,14,0,0,0,56.11,38.26l-22,176A14,14,0,0,0,48,230H88.69a14,14,0,0,0,13.57-10.56L128,120l25.73,99.44A14,14,0,0,0,167.31,230H208a14,14,0,0,0,13.89-15.74ZM195.22,97.66A34.07,34.07,0,0,1,166.54,70h25.23ZM70,38H186a2,2,0,0,1,2,1.75L190.27,58H65.73L68,39.75A2,2,0,0,1,70,38ZM64.23,70H89.46A34.07,34.07,0,0,1,60.78,97.66Zm26.4,146.49A2,2,0,0,1,88.69,218H48a2,2,0,0,1-2-2.25L59.25,109.87A46.07,46.07,0,0,0,101.6,70H122V95.24Zm118.87.83a2,2,0,0,1-1.5.68H167.31a2,2,0,0,1-1.95-1.56L134,95.24V70h20.4a46.07,46.07,0,0,0,42.35,39.87L210,215.75A2,2,0,0,1,209.5,217.32Z"/>
  </g>
  <g id="Regular-S" transform="matrix(0.273438 0 0 0.273438 1403.07 626.0)">
   <path d="M221.89,214.26l-22-176A14,14,0,0,0,186,26H70A14,14,0,0,0,56.11,38.26l-22,176A14,14,0,0,0,48,230H88.69a14,14,0,0,0,13.57-10.56L128,120l25.73,99.44A14,14,0,0,0,167.31,230H208a14,14,0,0,0,13.89-15.74ZM195.22,97.66A34.07,34.07,0,0,1,166.54,70h25.23ZM70,38H186a2,2,0,0,1,2,1.75L190.27,58H65.73L68,39.75A2,2,0,0,1,70,38ZM64.23,70H89.46A34.07,34.07,0,0,1,60.78,97.66Zm26.4,146.49A2,2,0,0,1,88.69,218H48a2,2,0,0,1-2-2.25L59.25,109.87A46.07,46.07,0,0,0,101.6,70H122V95.24Zm118.87.83a2,2,0,0,1-1.5.68H167.31a2,2,0,0,1-1.95-1.56L134,95.24V70h20.4a46.07,46.07,0,0,0,42.35,39.87L210,215.75A2,2,0,0,1,209.5,217.32Z"/>
  </g>
  <g id="Black-S" transform="matrix(0.273438 0 0 0.273438 2881.72 626.0)">
   <path d="M221.89,214.26l-22-176A14,14,0,0,0,186,26H70A14,14,0,0,0,56.11,38.26l-22,176A14,14,0,0,0,48,230H88.69a14,14,0,0,0,13.57-10.56L128,120l25.73,99.44A14,14,0,0,0,167.31,230H208a14,14,0,0,0,13.89-15.74ZM195.22,97.66A34.07,34.07,0,0,1,166.54,70h25.23ZM70,38H186a2,2,0,0,1,2,1.75L190.27,58H65.73L68,39.75A2,2,0,0,1,70,38ZM64.23,70H89.46A34.07,34.07,0,0,1,60.78,97.66Zm26.4,146.49A2,2,0,0,1,88.69,218H48a2,2,0,0,1-2-2.25L59.25,109.87A46.07,46.07,0,0,0,101.6,70H122V95.24Zm118.87.83a2,2,0,0,1-1.5.68H167.31a2,2,0,0,1-1.95-1.56L134,95.24V70h20.4a46.07,46.07,0,0,0,42.35,39.87L210,215.75A2,2,0,0,1,209.5,217.32Z"/>
  </g>
  <g id="Ultralight-M" transform="matrix(0.273438 0 0 0.273438 515.84 1056.0)">
   <path d="M221.89,214.26l-22-176A14,14,0,0,0,186,26H70A14,14,0,0,0,56.11,38.26l-22,176A14,14,0,0,0,48,230H88.69a14,14,0,0,0,13.57-10.56L128,120l25.73,99.44A14,14,0,0,0,167.31,230H208a14,14,0,0,0,13.89-15.74ZM195.22,97.66A34.07,34.07,0,0,1,166.54,70h25.23ZM70,38H186a2,2,0,0,1,2,1.75L190.27,58H65.73L68,39.75A2,2,0,0,1,70,38ZM64.23,70H89.46A34.07,34.07,0,0,1,60.78,97.66Zm26.4,146.49A2,2,0,0,1,88.69,218H48a2,2,0,0,1-2-2.25L59.25,109.87A46.07,46.07,0,0,0,101.6,70H122V95.24Zm118.87.83a2,2,0,0,1-1.5.68H167.31a2,2,0,0,1-1.95-1.56L134,95.24V70h20.4a46.07,46.07,0,0,0,42.35,39.87L210,215.75A2,2,0,0,1,209.5,217.32Z"/>
  </g>
  <g id="Regular-M" transform="matrix(0.273438 0 0 0.273438 1403.07 1056.0)">
   <path d="M221.89,214.26l-22-176A14,14,0,0,0,186,26H70A14,14,0,0,0,56.11,38.26l-22,176A14,14,0,0,0,48,230H88.69a14,14,0,0,0,13.57-10.56L128,120l25.73,99.44A14,14,0,0,0,167.31,230H208a14,14,0,0,0,13.89-15.74ZM195.22,97.66A34.07,34.07,0,0,1,166.54,70h25.23ZM70,38H186a2,2,0,0,1,2,1.75L190.27,58H65.73L68,39.75A2,2,0,0,1,70,38ZM64.23,70H89.46A34.07,34.07,0,0,1,60.78,97.66Zm26.4,146.49A2,2,0,0,1,88.69,218H48a2,2,0,0,1-2-2.25L59.25,109.87A46.07,46.07,0,0,0,101.6,70H122V95.24Zm118.87.83a2,2,0,0,1-1.5.68H167.31a2,2,0,0,1-1.95-1.56L134,95.24V70h20.4a46.07,46.07,0,0,0,42.35,39.87L210,215.75A2,2,0,0,1,209.5,217.32Z"/>
  </g>
  <g id="Black-M" transform="matrix(0.273438 0 0 0.273438 2881.72 1056.0)">
   <path d="M221.89,214.26l-22-176A14,14,0,0,0,186,26H70A14,14,0,0,0,56.11,38.26l-22,176A14,14,0,0,0,48,230H88.69a14,14,0,0,0,13.57-10.56L128,120l25.73,99.44A14,14,0,0,0,167.31,230H208a14,14,0,0,0,13.89-15.74ZM195.22,97.66A34.07,34.07,0,0,1,166.54,70h25.23ZM70,38H186a2,2,0,0,1,2,1.75L190.27,58H65.73L68,39.75A2,2,0,0,1,70,38ZM64.23,70H89.46A34.07,34.07,0,0,1,60.78,97.66Zm26.4,146.49A2,2,0,0,1,88.69,218H48a2,2,0,0,1-2-2.25L59.25,109.87A46.07,46.07,0,0,0,101.6,70H122V95.24Zm118.87.83a2,2,0,0,1-1.5.68H167.31a2,2,0,0,1-1.95-1.56L134,95.24V70h20.4a46.07,46.07,0,0,0,42.35,39.87L210,215.75A2,2,0,0,1,209.5,217.32Z"/>
  </g>
  <g id="Ultralight-L" transform="matrix(0.273438 0 0 0.273438 515.84 1486.0)">
   <path d="M221.89,214.26l-22-176A14,14,0,0,0,186,26H70A14,14,0,0,0,56.11,38.26l-22,176A14,14,0,0,0,48,230H88.69a14,14,0,0,0,13.57-10.56L128,120l25.73,99.44A14,14,0,0,0,167.31,230H208a14,14,0,0,0,13.89-15.74ZM195.22,97.66A34.07,34.07,0,0,1,166.54,70h25.23ZM70,38H186a2,2,0,0,1,2,1.75L190.27,58H65.73L68,39.75A2,2,0,0,1,70,38ZM64.23,70H89.46A34.07,34.07,0,0,1,60.78,97.66Zm26.4,146.49A2,2,0,0,1,88.69,218H48a2,2,0,0,1-2-2.25L59.25,109.87A46.07,46.07,0,0,0,101.6,70H122V95.24Zm118.87.83a2,2,0,0,1-1.5.68H167.31a2,2,0,0,1-1.95-1.56L134,95.24V70h20.4a46.07,46.07,0,0,0,42.35,39.87L210,215.75A2,2,0,0,1,209.5,217.32Z"/>
  </g>
  <g id="Regular-L" transform="matrix(0.273438 0 0 0.273438 1403.07 1486.0)">
   <path d="M221.89,214.26l-22-176A14,14,0,0,0,186,26H70A14,14,0,0,0,56.11,38.26l-22,176A14,14,0,0,0,48,230H88.69a14,14,0,0,0,13.57-10.56L128,120l25.73,99.44A14,14,0,0,0,167.31,230H208a14,14,0,0,0,13.89-15.74ZM195.22,97.66A34.07,34.07,0,0,1,166.54,70h25.23ZM70,38H186a2,2,0,0,1,2,1.75L190.27,58H65.73L68,39.75A2,2,0,0,1,70,38ZM64.23,70H89.46A34.07,34.07,0,0,1,60.78,97.66Zm26.4,146.49A2,2,0,0,1,88.69,218H48a2,2,0,0,1-2-2.25L59.25,109.87A46.07,46.07,0,0,0,101.6,70H122V95.24Zm118.87.83a2,2,0,0,1-1.5.68H167.31a2,2,0,0,1-1.95-1.56L134,95.24V70h20.4a46.07,46.07,0,0,0,42.35,39.87L210,215.75A2,2,0,0,1,209.5,217.32Z"/>
  </g>
  <g id="Black-L" transform="matrix(0.273438 0 0 0.273438 2881.72 1486.0)">
   <path d="M221.89,214.26l-22-176A14,14,0,0,0,186,26H70A14,14,0,0,0,56.11,38.26l-22,176A14,14,0,0,0,48,230H88.69a14,14,0,0,0,13.57-10.56L128,120l25.73,99.44A14,14,0,0,0,167.31,230H208a14,14,0,0,0,13.89-15.74ZM195.22,97.66A34.07,34.07,0,0,1,166.54,70h25.23ZM70,38H186a2,2,0,0,1,2,1.75L190.27,58H65.73L68,39.75A2,2,0,0,1,70,38ZM64.23,70H89.46A34.07,34.07,0,0,1,60.78,97.66Zm26.4,146.49A2,2,0,0,1,88.69,218H48a2,2,0,0,1-2-2.25L59.25,109.87A46.07,46.07,0,0,0,101.6,70H122V95.24Zm118.87.83a2,2,0,0,1-1.5.68H167.31a2,2,0,0,1-1.95-1.56L134,95.24V70h20.4a46.07,46.07,0,0,0,42.35,39.87L210,215.75A2,2,0,0,1,209.5,217.32Z"/>
  </g>
 </g>
</svg>
