<?xml version="1.0" encoding="UTF-8"?>
<svg version="1.1" xmlns="http://www.w3.org/2000/svg" xmlns:xlink="http://www.w3.org/1999/xlink" viewBox="0 0 3300 2200">
 <g id="Notes">
  <rect height="2200" id="artboard" style="fill:white;opacity:1" width="3300" x="0" y="0"/>
 </g>
 <g id="Guides">
  <line id="Baseline-S" style="fill:none;stroke:#27AAE1;stroke-width:0.5;" x1="263" x2="3036" y1="696.0" y2="696.0"/>
  <line id="Capline-S" style="fill:none;stroke:#27AAE1;stroke-width:0.5;" x1="263" x2="3036" y1="626.0" y2="626.0"/>
  <line id="left-margin-Ultralight-S" style="fill:none;stroke:#FF3B30;stroke-width:0.5;" x1="515.84" x2="515.84" y1="601.0" y2="720.0"/>
  <line id="right-margin-Ultralight-S" style="fill:none;stroke:#00AEEF;stroke-width:0.5;" x1="585.84" x2="585.84" y1="601.0" y2="720.0"/>
  <line id="left-margin-Regular-S" style="fill:none;stroke:#FF3B30;stroke-width:0.5;" x1="1403.07" x2="1403.07" y1="601.0" y2="720.0"/>
  <line id="right-margin-Regular-S" style="fill:none;stroke:#00AEEF;stroke-width:0.5;" x1="1473.07" x2="1473.07" y1="601.0" y2="720.0"/>
  <line id="left-margin-Black-S" style="fill:none;stroke:#FF3B30;stroke-width:0.5;" x1="2881.72" x2="2881.72" y1="601.0" y2="720.0"/>
  <line id="right-margin-Black-S" style="fill:none;stroke:#00AEEF;stroke-width:0.5;" x1="2951.72" x2="2951.72" y1="601.0" y2="720.0"/>
  <line id="Baseline-M" style="fill:none;stroke:#27AAE1;stroke-width:0.5;" x1="263" x2="3036" y1="1126.0" y2="1126.0"/>
  <line id="Capline-M" style="fill:none;stroke:#27AAE1;stroke-width:0.5;" x1="263" x2="3036" y1="1056.0" y2="1056.0"/>
  <line id="left-margin-Ultralight-M" style="fill:none;stroke:#FF3B30;stroke-width:0.5;" x1="515.84" x2="515.84" y1="1031.0" y2="1150.0"/>
  <line id="right-margin-Ultralight-M" style="fill:none;stroke:#00AEEF;stroke-width:0.5;" x1="585.84" x2="585.84" y1="1031.0" y2="1150.0"/>
  <line id="left-margin-Regular-M" style="fill:none;stroke:#FF3B30;stroke-width:0.5;" x1="1403.07" x2="1403.07" y1="1031.0" y2="1150.0"/>
  <line id="right-margin-Regular-M" style="fill:none;stroke:#00AEEF;stroke-width:0.5;" x1="1473.07" x2="1473.07" y1="1031.0" y2="1150.0"/>
  <line id="left-margin-Black-M" style="fill:none;stroke:#FF3B30;stroke-width:0.5;" x1="2881.72" x2="2881.72" y1="1031.0" y2="1150.0"/>
  <line id="right-margin-Black-M" style="fill:none;stroke:#00AEEF;stroke-width:0.5;" x1="2951.72" x2="2951.72" y1="1031.0" y2="1150.0"/>
  <line id="Baseline-L" style="fill:none;stroke:#27AAE1;stroke-width:0.5;" x1="263" x2="3036" y1="1556.0" y2="1556.0"/>
  <line id="Capline-L" style="fill:none;stroke:#27AAE1;stroke-width:0.5;" x1="263" x2="3036" y1="1486.0" y2="1486.0"/>
  <line id="left-margin-Ultralight-L" style="fill:none;stroke:#FF3B30;stroke-width:0.5;" x1="515.84" x2="515.84" y1="1461.0" y2="1580.0"/>
  <line id="right-margin-Ultralight-L" style="fill:none;stroke:#00AEEF;stroke-width:0.5;" x1="585.84" x2="585.84" y1="1461.0" y2="1580.0"/>
  <line id="left-margin-Regular-L" style="fill:none;stroke:#FF3B30;stroke-width:0.5;" x1="1403.07" x2="1403.07" y1="1461.0" y2="1580.0"/>
  <line id="right-margin-Regular-L" style="fill:none;stroke:#00AEEF;stroke-width:0.5;" x1="1473.07" x2="1473.07" y1="1461.0" y2="1580.0"/>
  <line id="left-margin-Black-L" style="fill:none;stroke:#FF3B30;stroke-width:0.5;" x1="2881.72" x2="2881.72" y1="1461.0" y2="1580.0"/>
  <line id="right-margin-Black-L" style="fill:none;stroke:#00AEEF;stroke-width:0.5;" x1="2951.72" x2="2951.72" y1="1461.0" y2="1580.0"/>
 </g>
 <g id="Symbols">
  <g id="Ultralight-S" transform="matrix(0.375000 0 0 0.375000 515.84 613.0)">
   <path d="M196.89,130.94,144.4,111.6,125.06,59.11a13.92,13.92,0,0,0-26.12,0L79.6,111.6,27.11,130.94a13.92,13.92,0,0,0,0,26.12L79.6,176.4l19.34,52.49a13.92,13.92,0,0,0,26.12,0L144.4,176.4l52.49-19.34a13.92,13.92,0,0,0,0-26.12Zm-4.15,14.86-55.08,20.3a6,6,0,0,0-3.56,3.56l-20.3,55.08a1.92,1.92,0,0,1-3.6,0L89.9,169.66a6,6,0,0,0-3.56-3.56L31.26,145.8a1.92,1.92,0,0,1,0-3.6l55.08-20.3a6,6,0,0,0,3.56-3.56l20.3-55.08a1.92,1.92,0,0,1,3.6,0l20.3,55.08a6,6,0,0,0,3.56,3.56l55.08,20.3a1.92,1.92,0,0,1,0,3.6ZM146,40a6,6,0,0,1,6-6h18V16a6,6,0,0,1,12,0V34h18a6,6,0,0,1,0,12H182V64a6,6,0,0,1-12,0V46H152A6,6,0,0,1,146,40ZM246,88a6,6,0,0,1-6,6H230v10a6,6,0,0,1-12,0V94H208a6,6,0,0,1,0-12h10V72a6,6,0,0,1,12,0V82h10A6,6,0,0,1,246,88Z"/>
  </g>
  <g id="Regular-S" transform="matrix(0.375000 0 0 0.375000 1403.07 613.0)">
   <path d="M196.89,130.94,144.4,111.6,125.06,59.11a13.92,13.92,0,0,0-26.12,0L79.6,111.6,27.11,130.94a13.92,13.92,0,0,0,0,26.12L79.6,176.4l19.34,52.49a13.92,13.92,0,0,0,26.12,0L144.4,176.4l52.49-19.34a13.92,13.92,0,0,0,0-26.12Zm-4.15,14.86-55.08,20.3a6,6,0,0,0-3.56,3.56l-20.3,55.08a1.92,1.92,0,0,1-3.6,0L89.9,169.66a6,6,0,0,0-3.56-3.56L31.26,145.8a1.92,1.92,0,0,1,0-3.6l55.08-20.3a6,6,0,0,0,3.56-3.56l20.3-55.08a1.92,1.92,0,0,1,3.6,0l20.3,55.08a6,6,0,0,0,3.56,3.56l55.08,20.3a1.92,1.92,0,0,1,0,3.6ZM146,40a6,6,0,0,1,6-6h18V16a6,6,0,0,1,12,0V34h18a6,6,0,0,1,0,12H182V64a6,6,0,0,1-12,0V46H152A6,6,0,0,1,146,40ZM246,88a6,6,0,0,1-6,6H230v10a6,6,0,0,1-12,0V94H208a6,6,0,0,1,0-12h10V72a6,6,0,0,1,12,0V82h10A6,6,0,0,1,246,88Z"/>
  </g>
  <g id="Black-S" transform="matrix(0.375000 0 0 0.375000 2881.72 613.0)">
   <path d="M196.89,130.94,144.4,111.6,125.06,59.11a13.92,13.92,0,0,0-26.12,0L79.6,111.6,27.11,130.94a13.92,13.92,0,0,0,0,26.12L79.6,176.4l19.34,52.49a13.92,13.92,0,0,0,26.12,0L144.4,176.4l52.49-19.34a13.92,13.92,0,0,0,0-26.12Zm-4.15,14.86-55.08,20.3a6,6,0,0,0-3.56,3.56l-20.3,55.08a1.92,1.92,0,0,1-3.6,0L89.9,169.66a6,6,0,0,0-3.56-3.56L31.26,145.8a1.92,1.92,0,0,1,0-3.6l55.08-20.3a6,6,0,0,0,3.56-3.56l20.3-55.08a1.92,1.92,0,0,1,3.6,0l20.3,55.08a6,6,0,0,0,3.56,3.56l55.08,20.3a1.92,1.92,0,0,1,0,3.6ZM146,40a6,6,0,0,1,6-6h18V16a6,6,0,0,1,12,0V34h18a6,6,0,0,1,0,12H182V64a6,6,0,0,1-12,0V46H152A6,6,0,0,1,146,40ZM246,88a6,6,0,0,1-6,6H230v10a6,6,0,0,1-12,0V94H208a6,6,0,0,1,0-12h10V72a6,6,0,0,1,12,0V82h10A6,6,0,0,1,246,88Z"/>
  </g>
  <g id="Ultralight-M" transform="matrix(0.375000 0 0 0.375000 515.84 1043.0)">
   <path d="M196.89,130.94,144.4,111.6,125.06,59.11a13.92,13.92,0,0,0-26.12,0L79.6,111.6,27.11,130.94a13.92,13.92,0,0,0,0,26.12L79.6,176.4l19.34,52.49a13.92,13.92,0,0,0,26.12,0L144.4,176.4l52.49-19.34a13.92,13.92,0,0,0,0-26.12Zm-4.15,14.86-55.08,20.3a6,6,0,0,0-3.56,3.56l-20.3,55.08a1.92,1.92,0,0,1-3.6,0L89.9,169.66a6,6,0,0,0-3.56-3.56L31.26,145.8a1.92,1.92,0,0,1,0-3.6l55.08-20.3a6,6,0,0,0,3.56-3.56l20.3-55.08a1.92,1.92,0,0,1,3.6,0l20.3,55.08a6,6,0,0,0,3.56,3.56l55.08,20.3a1.92,1.92,0,0,1,0,3.6ZM146,40a6,6,0,0,1,6-6h18V16a6,6,0,0,1,12,0V34h18a6,6,0,0,1,0,12H182V64a6,6,0,0,1-12,0V46H152A6,6,0,0,1,146,40ZM246,88a6,6,0,0,1-6,6H230v10a6,6,0,0,1-12,0V94H208a6,6,0,0,1,0-12h10V72a6,6,0,0,1,12,0V82h10A6,6,0,0,1,246,88Z"/>
  </g>
  <g id="Regular-M" transform="matrix(0.375000 0 0 0.375000 1403.07 1043.0)">
   <path d="M196.89,130.94,144.4,111.6,125.06,59.11a13.92,13.92,0,0,0-26.12,0L79.6,111.6,27.11,130.94a13.92,13.92,0,0,0,0,26.12L79.6,176.4l19.34,52.49a13.92,13.92,0,0,0,26.12,0L144.4,176.4l52.49-19.34a13.92,13.92,0,0,0,0-26.12Zm-4.15,14.86-55.08,20.3a6,6,0,0,0-3.56,3.56l-20.3,55.08a1.92,1.92,0,0,1-3.6,0L89.9,169.66a6,6,0,0,0-3.56-3.56L31.26,145.8a1.92,1.92,0,0,1,0-3.6l55.08-20.3a6,6,0,0,0,3.56-3.56l20.3-55.08a1.92,1.92,0,0,1,3.6,0l20.3,55.08a6,6,0,0,0,3.56,3.56l55.08,20.3a1.92,1.92,0,0,1,0,3.6ZM146,40a6,6,0,0,1,6-6h18V16a6,6,0,0,1,12,0V34h18a6,6,0,0,1,0,12H182V64a6,6,0,0,1-12,0V46H152A6,6,0,0,1,146,40ZM246,88a6,6,0,0,1-6,6H230v10a6,6,0,0,1-12,0V94H208a6,6,0,0,1,0-12h10V72a6,6,0,0,1,12,0V82h10A6,6,0,0,1,246,88Z"/>
  </g>
  <g id="Black-M" transform="matrix(0.375000 0 0 0.375000 2881.72 1043.0)">
   <path d="M196.89,130.94,144.4,111.6,125.06,59.11a13.92,13.92,0,0,0-26.12,0L79.6,111.6,27.11,130.94a13.92,13.92,0,0,0,0,26.12L79.6,176.4l19.34,52.49a13.92,13.92,0,0,0,26.12,0L144.4,176.4l52.49-19.34a13.92,13.92,0,0,0,0-26.12Zm-4.15,14.86-55.08,20.3a6,6,0,0,0-3.56,3.56l-20.3,55.08a1.92,1.92,0,0,1-3.6,0L89.9,169.66a6,6,0,0,0-3.56-3.56L31.26,145.8a1.92,1.92,0,0,1,0-3.6l55.08-20.3a6,6,0,0,0,3.56-3.56l20.3-55.08a1.92,1.92,0,0,1,3.6,0l20.3,55.08a6,6,0,0,0,3.56,3.56l55.08,20.3a1.92,1.92,0,0,1,0,3.6ZM146,40a6,6,0,0,1,6-6h18V16a6,6,0,0,1,12,0V34h18a6,6,0,0,1,0,12H182V64a6,6,0,0,1-12,0V46H152A6,6,0,0,1,146,40ZM246,88a6,6,0,0,1-6,6H230v10a6,6,0,0,1-12,0V94H208a6,6,0,0,1,0-12h10V72a6,6,0,0,1,12,0V82h10A6,6,0,0,1,246,88Z"/>
  </g>
  <g id="Ultralight-L" transform="matrix(0.375000 0 0 0.375000 515.84 1473.0)">
   <path d="M196.89,130.94,144.4,111.6,125.06,59.11a13.92,13.92,0,0,0-26.12,0L79.6,111.6,27.11,130.94a13.92,13.92,0,0,0,0,26.12L79.6,176.4l19.34,52.49a13.92,13.92,0,0,0,26.12,0L144.4,176.4l52.49-19.34a13.92,13.92,0,0,0,0-26.12Zm-4.15,14.86-55.08,20.3a6,6,0,0,0-3.56,3.56l-20.3,55.08a1.92,1.92,0,0,1-3.6,0L89.9,169.66a6,6,0,0,0-3.56-3.56L31.26,145.8a1.92,1.92,0,0,1,0-3.6l55.08-20.3a6,6,0,0,0,3.56-3.56l20.3-55.08a1.92,1.92,0,0,1,3.6,0l20.3,55.08a6,6,0,0,0,3.56,3.56l55.08,20.3a1.92,1.92,0,0,1,0,3.6ZM146,40a6,6,0,0,1,6-6h18V16a6,6,0,0,1,12,0V34h18a6,6,0,0,1,0,12H182V64a6,6,0,0,1-12,0V46H152A6,6,0,0,1,146,40ZM246,88a6,6,0,0,1-6,6H230v10a6,6,0,0,1-12,0V94H208a6,6,0,0,1,0-12h10V72a6,6,0,0,1,12,0V82h10A6,6,0,0,1,246,88Z"/>
  </g>
  <g id="Regular-L" transform="matrix(0.375000 0 0 0.375000 1403.07 1473.0)">
   <path d="M196.89,130.94,144.4,111.6,125.06,59.11a13.92,13.92,0,0,0-26.12,0L79.6,111.6,27.11,130.94a13.92,13.92,0,0,0,0,26.12L79.6,176.4l19.34,52.49a13.92,13.92,0,0,0,26.12,0L144.4,176.4l52.49-19.34a13.92,13.92,0,0,0,0-26.12Zm-4.15,14.86-55.08,20.3a6,6,0,0,0-3.56,3.56l-20.3,55.08a1.92,1.92,0,0,1-3.6,0L89.9,169.66a6,6,0,0,0-3.56-3.56L31.26,145.8a1.92,1.92,0,0,1,0-3.6l55.08-20.3a6,6,0,0,0,3.56-3.56l20.3-55.08a1.92,1.92,0,0,1,3.6,0l20.3,55.08a6,6,0,0,0,3.56,3.56l55.08,20.3a1.92,1.92,0,0,1,0,3.6ZM146,40a6,6,0,0,1,6-6h18V16a6,6,0,0,1,12,0V34h18a6,6,0,0,1,0,12H182V64a6,6,0,0,1-12,0V46H152A6,6,0,0,1,146,40ZM246,88a6,6,0,0,1-6,6H230v10a6,6,0,0,1-12,0V94H208a6,6,0,0,1,0-12h10V72a6,6,0,0,1,12,0V82h10A6,6,0,0,1,246,88Z"/>
  </g>
  <g id="Black-L" transform="matrix(0.375000 0 0 0.375000 2881.72 1473.0)">
   <path d="M196.89,130.94,144.4,111.6,125.06,59.11a13.92,13.92,0,0,0-26.12,0L79.6,111.6,27.11,130.94a13.92,13.92,0,0,0,0,26.12L79.6,176.4l19.34,52.49a13.92,13.92,0,0,0,26.12,0L144.4,176.4l52.49-19.34a13.92,13.92,0,0,0,0-26.12Zm-4.15,14.86-55.08,20.3a6,6,0,0,0-3.56,3.56l-20.3,55.08a1.92,1.92,0,0,1-3.6,0L89.9,169.66a6,6,0,0,0-3.56-3.56L31.26,145.8a1.92,1.92,0,0,1,0-3.6l55.08-20.3a6,6,0,0,0,3.56-3.56l20.3-55.08a1.92,1.92,0,0,1,3.6,0l20.3,55.08a6,6,0,0,0,3.56,3.56l55.08,20.3a1.92,1.92,0,0,1,0,3.6ZM146,40a6,6,0,0,1,6-6h18V16a6,6,0,0,1,12,0V34h18a6,6,0,0,1,0,12H182V64a6,6,0,0,1-12,0V46H152A6,6,0,0,1,146,40ZM246,88a6,6,0,0,1-6,6H230v10a6,6,0,0,1-12,0V94H208a6,6,0,0,1,0-12h10V72a6,6,0,0,1,12,0V82h10A6,6,0,0,1,246,88Z"/>
  </g>
 </g>
</svg>
