<?xml version="1.0" encoding="UTF-8"?>
<svg version="1.1" xmlns="http://www.w3.org/2000/svg" xmlns:xlink="http://www.w3.org/1999/xlink" viewBox="0 0 3300 2200">
 <g id="Notes">
  <rect height="2200" id="artboard" style="fill:white;opacity:1" width="3300" x="0" y="0"/>
 </g>
 <g id="Guides">
  <line id="Baseline-S" style="fill:none;stroke:#27AAE1;stroke-width:0.5;" x1="263" x2="3036" y1="696.0" y2="696.0"/>
  <line id="Capline-S" style="fill:none;stroke:#27AAE1;stroke-width:0.5;" x1="263" x2="3036" y1="626.0" y2="626.0"/>
  <line id="left-margin-Ultralight-S" style="fill:none;stroke:#FF3B30;stroke-width:0.5;" x1="515.84" x2="515.84" y1="601.0" y2="720.0"/>
  <line id="right-margin-Ultralight-S" style="fill:none;stroke:#00AEEF;stroke-width:0.5;" x1="585.84" x2="585.84" y1="601.0" y2="720.0"/>
  <line id="left-margin-Regular-S" style="fill:none;stroke:#FF3B30;stroke-width:0.5;" x1="1403.07" x2="1403.07" y1="601.0" y2="720.0"/>
  <line id="right-margin-Regular-S" style="fill:none;stroke:#00AEEF;stroke-width:0.5;" x1="1473.07" x2="1473.07" y1="601.0" y2="720.0"/>
  <line id="left-margin-Black-S" style="fill:none;stroke:#FF3B30;stroke-width:0.5;" x1="2881.72" x2="2881.72" y1="601.0" y2="720.0"/>
  <line id="right-margin-Black-S" style="fill:none;stroke:#00AEEF;stroke-width:0.5;" x1="2951.72" x2="2951.72" y1="601.0" y2="720.0"/>
  <line id="Baseline-M" style="fill:none;stroke:#27AAE1;stroke-width:0.5;" x1="263" x2="3036" y1="1126.0" y2="1126.0"/>
  <line id="Capline-M" style="fill:none;stroke:#27AAE1;stroke-width:0.5;" x1="263" x2="3036" y1="1056.0" y2="1056.0"/>
  <line id="left-margin-Ultralight-M" style="fill:none;stroke:#FF3B30;stroke-width:0.5;" x1="515.84" x2="515.84" y1="1031.0" y2="1150.0"/>
  <line id="right-margin-Ultralight-M" style="fill:none;stroke:#00AEEF;stroke-width:0.5;" x1="585.84" x2="585.84" y1="1031.0" y2="1150.0"/>
  <line id="left-margin-Regular-M" style="fill:none;stroke:#FF3B30;stroke-width:0.5;" x1="1403.07" x2="1403.07" y1="1031.0" y2="1150.0"/>
  <line id="right-margin-Regular-M" style="fill:none;stroke:#00AEEF;stroke-width:0.5;" x1="1473.07" x2="1473.07" y1="1031.0" y2="1150.0"/>
  <line id="left-margin-Black-M" style="fill:none;stroke:#FF3B30;stroke-width:0.5;" x1="2881.72" x2="2881.72" y1="1031.0" y2="1150.0"/>
  <line id="right-margin-Black-M" style="fill:none;stroke:#00AEEF;stroke-width:0.5;" x1="2951.72" x2="2951.72" y1="1031.0" y2="1150.0"/>
  <line id="Baseline-L" style="fill:none;stroke:#27AAE1;stroke-width:0.5;" x1="263" x2="3036" y1="1556.0" y2="1556.0"/>
  <line id="Capline-L" style="fill:none;stroke:#27AAE1;stroke-width:0.5;" x1="263" x2="3036" y1="1486.0" y2="1486.0"/>
  <line id="left-margin-Ultralight-L" style="fill:none;stroke:#FF3B30;stroke-width:0.5;" x1="515.84" x2="515.84" y1="1461.0" y2="1580.0"/>
  <line id="right-margin-Ultralight-L" style="fill:none;stroke:#00AEEF;stroke-width:0.5;" x1="585.84" x2="585.84" y1="1461.0" y2="1580.0"/>
  <line id="left-margin-Regular-L" style="fill:none;stroke:#FF3B30;stroke-width:0.5;" x1="1403.07" x2="1403.07" y1="1461.0" y2="1580.0"/>
  <line id="right-margin-Regular-L" style="fill:none;stroke:#00AEEF;stroke-width:0.5;" x1="1473.07" x2="1473.07" y1="1461.0" y2="1580.0"/>
  <line id="left-margin-Black-L" style="fill:none;stroke:#FF3B30;stroke-width:0.5;" x1="2881.72" x2="2881.72" y1="1461.0" y2="1580.0"/>
  <line id="right-margin-Black-L" style="fill:none;stroke:#00AEEF;stroke-width:0.5;" x1="2951.72" x2="2951.72" y1="1461.0" y2="1580.0"/>
 </g>
 <g id="Symbols">
  <g id="Ultralight-S" transform="matrix(0.273438 0 0 0.273438 515.84 626.0)">
   <path d="M228,131l-60.73-20.24a26,26,0,0,1-15.51-14L128.51,42.31a14,14,0,0,0-17.57-7.47L35.22,62.37A14.05,14.05,0,0,0,26,75.53V192a14,14,0,0,0,14,14H240a14,14,0,0,0,14-14V167.06A38,38,0,0,0,228,131ZM39.32,73.65,115,46.12a1.81,1.81,0,0,1,.68-.12,2,2,0,0,1,1.79,1.11l8,18.68L102,74.36A6,6,0,0,0,104,86a5.92,5.92,0,0,0,2-.37l24.18-8.79,6.31,14.76L118,98.36A6,6,0,0,0,120,110a6.15,6.15,0,0,0,2-.36l19.26-7a38,38,0,0,0,10.57,13.21L134,122.36A6,6,0,0,0,136,134a6.15,6.15,0,0,0,2.05-.36l28.64-10.42,57.53,19.18A25.94,25.94,0,0,1,241.49,162H38V75.53A2,2,0,0,1,39.32,73.65ZM240,194H40a2,2,0,0,1-2-2V174H242v18A2,2,0,0,1,240,194Z"/>
  </g>
  <g id="Regular-S" transform="matrix(0.273438 0 0 0.273438 1403.07 626.0)">
   <path d="M228,131l-60.73-20.24a26,26,0,0,1-15.51-14L128.51,42.31a14,14,0,0,0-17.57-7.47L35.22,62.37A14.05,14.05,0,0,0,26,75.53V192a14,14,0,0,0,14,14H240a14,14,0,0,0,14-14V167.06A38,38,0,0,0,228,131ZM39.32,73.65,115,46.12a1.81,1.81,0,0,1,.68-.12,2,2,0,0,1,1.79,1.11l8,18.68L102,74.36A6,6,0,0,0,104,86a5.92,5.92,0,0,0,2-.37l24.18-8.79,6.31,14.76L118,98.36A6,6,0,0,0,120,110a6.15,6.15,0,0,0,2-.36l19.26-7a38,38,0,0,0,10.57,13.21L134,122.36A6,6,0,0,0,136,134a6.15,6.15,0,0,0,2.05-.36l28.64-10.42,57.53,19.18A25.94,25.94,0,0,1,241.49,162H38V75.53A2,2,0,0,1,39.32,73.65ZM240,194H40a2,2,0,0,1-2-2V174H242v18A2,2,0,0,1,240,194Z"/>
  </g>
  <g id="Black-S" transform="matrix(0.273438 0 0 0.273438 2881.72 626.0)">
   <path d="M228,131l-60.73-20.24a26,26,0,0,1-15.51-14L128.51,42.31a14,14,0,0,0-17.57-7.47L35.22,62.37A14.05,14.05,0,0,0,26,75.53V192a14,14,0,0,0,14,14H240a14,14,0,0,0,14-14V167.06A38,38,0,0,0,228,131ZM39.32,73.65,115,46.12a1.81,1.81,0,0,1,.68-.12,2,2,0,0,1,1.79,1.11l8,18.68L102,74.36A6,6,0,0,0,104,86a5.92,5.92,0,0,0,2-.37l24.18-8.79,6.31,14.76L118,98.36A6,6,0,0,0,120,110a6.15,6.15,0,0,0,2-.36l19.26-7a38,38,0,0,0,10.57,13.21L134,122.36A6,6,0,0,0,136,134a6.15,6.15,0,0,0,2.05-.36l28.64-10.42,57.53,19.18A25.94,25.94,0,0,1,241.49,162H38V75.53A2,2,0,0,1,39.32,73.65ZM240,194H40a2,2,0,0,1-2-2V174H242v18A2,2,0,0,1,240,194Z"/>
  </g>
  <g id="Ultralight-M" transform="matrix(0.273438 0 0 0.273438 515.84 1056.0)">
   <path d="M228,131l-60.73-20.24a26,26,0,0,1-15.51-14L128.51,42.31a14,14,0,0,0-17.57-7.47L35.22,62.37A14.05,14.05,0,0,0,26,75.53V192a14,14,0,0,0,14,14H240a14,14,0,0,0,14-14V167.06A38,38,0,0,0,228,131ZM39.32,73.65,115,46.12a1.81,1.81,0,0,1,.68-.12,2,2,0,0,1,1.79,1.11l8,18.68L102,74.36A6,6,0,0,0,104,86a5.92,5.92,0,0,0,2-.37l24.18-8.79,6.31,14.76L118,98.36A6,6,0,0,0,120,110a6.15,6.15,0,0,0,2-.36l19.26-7a38,38,0,0,0,10.57,13.21L134,122.36A6,6,0,0,0,136,134a6.15,6.15,0,0,0,2.05-.36l28.64-10.42,57.53,19.18A25.94,25.94,0,0,1,241.49,162H38V75.53A2,2,0,0,1,39.32,73.65ZM240,194H40a2,2,0,0,1-2-2V174H242v18A2,2,0,0,1,240,194Z"/>
  </g>
  <g id="Regular-M" transform="matrix(0.273438 0 0 0.273438 1403.07 1056.0)">
   <path d="M228,131l-60.73-20.24a26,26,0,0,1-15.51-14L128.51,42.31a14,14,0,0,0-17.57-7.47L35.22,62.37A14.05,14.05,0,0,0,26,75.53V192a14,14,0,0,0,14,14H240a14,14,0,0,0,14-14V167.06A38,38,0,0,0,228,131ZM39.32,73.65,115,46.12a1.81,1.81,0,0,1,.68-.12,2,2,0,0,1,1.79,1.11l8,18.68L102,74.36A6,6,0,0,0,104,86a5.92,5.92,0,0,0,2-.37l24.18-8.79,6.31,14.76L118,98.36A6,6,0,0,0,120,110a6.15,6.15,0,0,0,2-.36l19.26-7a38,38,0,0,0,10.57,13.21L134,122.36A6,6,0,0,0,136,134a6.15,6.15,0,0,0,2.05-.36l28.64-10.42,57.53,19.18A25.94,25.94,0,0,1,241.49,162H38V75.53A2,2,0,0,1,39.32,73.65ZM240,194H40a2,2,0,0,1-2-2V174H242v18A2,2,0,0,1,240,194Z"/>
  </g>
  <g id="Black-M" transform="matrix(0.273438 0 0 0.273438 2881.72 1056.0)">
   <path d="M228,131l-60.73-20.24a26,26,0,0,1-15.51-14L128.51,42.31a14,14,0,0,0-17.57-7.47L35.22,62.37A14.05,14.05,0,0,0,26,75.53V192a14,14,0,0,0,14,14H240a14,14,0,0,0,14-14V167.06A38,38,0,0,0,228,131ZM39.32,73.65,115,46.12a1.81,1.81,0,0,1,.68-.12,2,2,0,0,1,1.79,1.11l8,18.68L102,74.36A6,6,0,0,0,104,86a5.92,5.92,0,0,0,2-.37l24.18-8.79,6.31,14.76L118,98.36A6,6,0,0,0,120,110a6.15,6.15,0,0,0,2-.36l19.26-7a38,38,0,0,0,10.57,13.21L134,122.36A6,6,0,0,0,136,134a6.15,6.15,0,0,0,2.05-.36l28.64-10.42,57.53,19.18A25.94,25.94,0,0,1,241.49,162H38V75.53A2,2,0,0,1,39.32,73.65ZM240,194H40a2,2,0,0,1-2-2V174H242v18A2,2,0,0,1,240,194Z"/>
  </g>
  <g id="Ultralight-L" transform="matrix(0.273438 0 0 0.273438 515.84 1486.0)">
   <path d="M228,131l-60.73-20.24a26,26,0,0,1-15.51-14L128.51,42.31a14,14,0,0,0-17.57-7.47L35.22,62.37A14.05,14.05,0,0,0,26,75.53V192a14,14,0,0,0,14,14H240a14,14,0,0,0,14-14V167.06A38,38,0,0,0,228,131ZM39.32,73.65,115,46.12a1.81,1.81,0,0,1,.68-.12,2,2,0,0,1,1.79,1.11l8,18.68L102,74.36A6,6,0,0,0,104,86a5.92,5.92,0,0,0,2-.37l24.18-8.79,6.31,14.76L118,98.36A6,6,0,0,0,120,110a6.15,6.15,0,0,0,2-.36l19.26-7a38,38,0,0,0,10.57,13.21L134,122.36A6,6,0,0,0,136,134a6.15,6.15,0,0,0,2.05-.36l28.64-10.42,57.53,19.18A25.94,25.94,0,0,1,241.49,162H38V75.53A2,2,0,0,1,39.32,73.65ZM240,194H40a2,2,0,0,1-2-2V174H242v18A2,2,0,0,1,240,194Z"/>
  </g>
  <g id="Regular-L" transform="matrix(0.273438 0 0 0.273438 1403.07 1486.0)">
   <path d="M228,131l-60.73-20.24a26,26,0,0,1-15.51-14L128.51,42.31a14,14,0,0,0-17.57-7.47L35.22,62.37A14.05,14.05,0,0,0,26,75.53V192a14,14,0,0,0,14,14H240a14,14,0,0,0,14-14V167.06A38,38,0,0,0,228,131ZM39.32,73.65,115,46.12a1.81,1.81,0,0,1,.68-.12,2,2,0,0,1,1.79,1.11l8,18.68L102,74.36A6,6,0,0,0,104,86a5.92,5.92,0,0,0,2-.37l24.18-8.79,6.31,14.76L118,98.36A6,6,0,0,0,120,110a6.15,6.15,0,0,0,2-.36l19.26-7a38,38,0,0,0,10.57,13.21L134,122.36A6,6,0,0,0,136,134a6.15,6.15,0,0,0,2.05-.36l28.64-10.42,57.53,19.18A25.94,25.94,0,0,1,241.49,162H38V75.53A2,2,0,0,1,39.32,73.65ZM240,194H40a2,2,0,0,1-2-2V174H242v18A2,2,0,0,1,240,194Z"/>
  </g>
  <g id="Black-L" transform="matrix(0.273438 0 0 0.273438 2881.72 1486.0)">
   <path d="M228,131l-60.73-20.24a26,26,0,0,1-15.51-14L128.51,42.31a14,14,0,0,0-17.57-7.47L35.22,62.37A14.05,14.05,0,0,0,26,75.53V192a14,14,0,0,0,14,14H240a14,14,0,0,0,14-14V167.06A38,38,0,0,0,228,131ZM39.32,73.65,115,46.12a1.81,1.81,0,0,1,.68-.12,2,2,0,0,1,1.79,1.11l8,18.68L102,74.36A6,6,0,0,0,104,86a5.92,5.92,0,0,0,2-.37l24.18-8.79,6.31,14.76L118,98.36A6,6,0,0,0,120,110a6.15,6.15,0,0,0,2-.36l19.26-7a38,38,0,0,0,10.57,13.21L134,122.36A6,6,0,0,0,136,134a6.15,6.15,0,0,0,2.05-.36l28.64-10.42,57.53,19.18A25.94,25.94,0,0,1,241.49,162H38V75.53A2,2,0,0,1,39.32,73.65ZM240,194H40a2,2,0,0,1-2-2V174H242v18A2,2,0,0,1,240,194Z"/>
  </g>
 </g>
</svg>
