<?xml version="1.0" encoding="UTF-8"?>
<svg version="1.1" xmlns="http://www.w3.org/2000/svg" xmlns:xlink="http://www.w3.org/1999/xlink" viewBox="0 0 3300 2200">
 <g id="Notes">
  <rect height="2200" id="artboard" style="fill:white;opacity:1" width="3300" x="0" y="0"/>
 </g>
 <g id="Guides">
  <line id="Baseline-S" style="fill:none;stroke:#27AAE1;stroke-width:0.5;" x1="263" x2="3036" y1="696.0" y2="696.0"/>
  <line id="Capline-S" style="fill:none;stroke:#27AAE1;stroke-width:0.5;" x1="263" x2="3036" y1="626.0" y2="626.0"/>
  <line id="left-margin-Ultralight-S" style="fill:none;stroke:#FF3B30;stroke-width:0.5;" x1="515.84" x2="515.84" y1="601.0" y2="720.0"/>
  <line id="right-margin-Ultralight-S" style="fill:none;stroke:#00AEEF;stroke-width:0.5;" x1="585.84" x2="585.84" y1="601.0" y2="720.0"/>
  <line id="left-margin-Regular-S" style="fill:none;stroke:#FF3B30;stroke-width:0.5;" x1="1403.07" x2="1403.07" y1="601.0" y2="720.0"/>
  <line id="right-margin-Regular-S" style="fill:none;stroke:#00AEEF;stroke-width:0.5;" x1="1473.07" x2="1473.07" y1="601.0" y2="720.0"/>
  <line id="left-margin-Black-S" style="fill:none;stroke:#FF3B30;stroke-width:0.5;" x1="2881.72" x2="2881.72" y1="601.0" y2="720.0"/>
  <line id="right-margin-Black-S" style="fill:none;stroke:#00AEEF;stroke-width:0.5;" x1="2951.72" x2="2951.72" y1="601.0" y2="720.0"/>
  <line id="Baseline-M" style="fill:none;stroke:#27AAE1;stroke-width:0.5;" x1="263" x2="3036" y1="1126.0" y2="1126.0"/>
  <line id="Capline-M" style="fill:none;stroke:#27AAE1;stroke-width:0.5;" x1="263" x2="3036" y1="1056.0" y2="1056.0"/>
  <line id="left-margin-Ultralight-M" style="fill:none;stroke:#FF3B30;stroke-width:0.5;" x1="515.84" x2="515.84" y1="1031.0" y2="1150.0"/>
  <line id="right-margin-Ultralight-M" style="fill:none;stroke:#00AEEF;stroke-width:0.5;" x1="585.84" x2="585.84" y1="1031.0" y2="1150.0"/>
  <line id="left-margin-Regular-M" style="fill:none;stroke:#FF3B30;stroke-width:0.5;" x1="1403.07" x2="1403.07" y1="1031.0" y2="1150.0"/>
  <line id="right-margin-Regular-M" style="fill:none;stroke:#00AEEF;stroke-width:0.5;" x1="1473.07" x2="1473.07" y1="1031.0" y2="1150.0"/>
  <line id="left-margin-Black-M" style="fill:none;stroke:#FF3B30;stroke-width:0.5;" x1="2881.72" x2="2881.72" y1="1031.0" y2="1150.0"/>
  <line id="right-margin-Black-M" style="fill:none;stroke:#00AEEF;stroke-width:0.5;" x1="2951.72" x2="2951.72" y1="1031.0" y2="1150.0"/>
  <line id="Baseline-L" style="fill:none;stroke:#27AAE1;stroke-width:0.5;" x1="263" x2="3036" y1="1556.0" y2="1556.0"/>
  <line id="Capline-L" style="fill:none;stroke:#27AAE1;stroke-width:0.5;" x1="263" x2="3036" y1="1486.0" y2="1486.0"/>
  <line id="left-margin-Ultralight-L" style="fill:none;stroke:#FF3B30;stroke-width:0.5;" x1="515.84" x2="515.84" y1="1461.0" y2="1580.0"/>
  <line id="right-margin-Ultralight-L" style="fill:none;stroke:#00AEEF;stroke-width:0.5;" x1="585.84" x2="585.84" y1="1461.0" y2="1580.0"/>
  <line id="left-margin-Regular-L" style="fill:none;stroke:#FF3B30;stroke-width:0.5;" x1="1403.07" x2="1403.07" y1="1461.0" y2="1580.0"/>
  <line id="right-margin-Regular-L" style="fill:none;stroke:#00AEEF;stroke-width:0.5;" x1="1473.07" x2="1473.07" y1="1461.0" y2="1580.0"/>
  <line id="left-margin-Black-L" style="fill:none;stroke:#FF3B30;stroke-width:0.5;" x1="2881.72" x2="2881.72" y1="1461.0" y2="1580.0"/>
  <line id="right-margin-Black-L" style="fill:none;stroke:#00AEEF;stroke-width:0.5;" x1="2951.72" x2="2951.72" y1="1461.0" y2="1580.0"/>
 </g>
 <g id="Symbols">
  <g id="Ultralight-S" transform="matrix(0.273438 0 0 0.273438 515.84 626.0)">
   <path d="M212.86,210.49a1.08,1.08,0,0,0-.08-.19l-45.94-97.86,21.08-33.1.09-.14a14,14,0,0,0,0-14.4c-.07-.12-.15-.24-.23-.36L166,33.33V8a6,6,0,0,0-12,0V33.12l-5.7,7.12a26,26,0,0,1-40.6,0L102,33.12V8A6,6,0,0,0,90,8V33.33L68.22,64.44c-.08.12-.16.24-.23.36a14,14,0,0,0,0,14.4l.09.14,21.08,33.1L43.22,210.3a1.08,1.08,0,0,0-.08.19A14,14,0,0,0,56,230H200a14,14,0,0,0,12.87-19.51ZM78.26,73a2,2,0,0,1-.05-1.89L96.32,45.23l2,2.51a38,38,0,0,0,59.34,0l2-2.51,18.11,25.86a2,2,0,0,1,0,1.89l-21,33H99.29ZM201.66,217.1a1.93,1.93,0,0,1-1.67.9H56a2,2,0,0,1-1.87-2.72L99.81,118h56.38l45.67,97.28A1.92,1.92,0,0,1,201.66,217.1Z"/>
  </g>
  <g id="Regular-S" transform="matrix(0.273438 0 0 0.273438 1403.07 626.0)">
   <path d="M212.86,210.49a1.08,1.08,0,0,0-.08-.19l-45.94-97.86,21.08-33.1.09-.14a14,14,0,0,0,0-14.4c-.07-.12-.15-.24-.23-.36L166,33.33V8a6,6,0,0,0-12,0V33.12l-5.7,7.12a26,26,0,0,1-40.6,0L102,33.12V8A6,6,0,0,0,90,8V33.33L68.22,64.44c-.08.12-.16.24-.23.36a14,14,0,0,0,0,14.4l.09.14,21.08,33.1L43.22,210.3a1.08,1.08,0,0,0-.08.19A14,14,0,0,0,56,230H200a14,14,0,0,0,12.87-19.51ZM78.26,73a2,2,0,0,1-.05-1.89L96.32,45.23l2,2.51a38,38,0,0,0,59.34,0l2-2.51,18.11,25.86a2,2,0,0,1,0,1.89l-21,33H99.29ZM201.66,217.1a1.93,1.93,0,0,1-1.67.9H56a2,2,0,0,1-1.87-2.72L99.81,118h56.38l45.67,97.28A1.92,1.92,0,0,1,201.66,217.1Z"/>
  </g>
  <g id="Black-S" transform="matrix(0.273438 0 0 0.273438 2881.72 626.0)">
   <path d="M212.86,210.49a1.08,1.08,0,0,0-.08-.19l-45.94-97.86,21.08-33.1.09-.14a14,14,0,0,0,0-14.4c-.07-.12-.15-.24-.23-.36L166,33.33V8a6,6,0,0,0-12,0V33.12l-5.7,7.12a26,26,0,0,1-40.6,0L102,33.12V8A6,6,0,0,0,90,8V33.33L68.22,64.44c-.08.12-.16.24-.23.36a14,14,0,0,0,0,14.4l.09.14,21.08,33.1L43.22,210.3a1.08,1.08,0,0,0-.08.19A14,14,0,0,0,56,230H200a14,14,0,0,0,12.87-19.51ZM78.26,73a2,2,0,0,1-.05-1.89L96.32,45.23l2,2.51a38,38,0,0,0,59.34,0l2-2.51,18.11,25.86a2,2,0,0,1,0,1.89l-21,33H99.29ZM201.66,217.1a1.93,1.93,0,0,1-1.67.9H56a2,2,0,0,1-1.87-2.72L99.81,118h56.38l45.67,97.28A1.92,1.92,0,0,1,201.66,217.1Z"/>
  </g>
  <g id="Ultralight-M" transform="matrix(0.273438 0 0 0.273438 515.84 1056.0)">
   <path d="M212.86,210.49a1.08,1.08,0,0,0-.08-.19l-45.94-97.86,21.08-33.1.09-.14a14,14,0,0,0,0-14.4c-.07-.12-.15-.24-.23-.36L166,33.33V8a6,6,0,0,0-12,0V33.12l-5.7,7.12a26,26,0,0,1-40.6,0L102,33.12V8A6,6,0,0,0,90,8V33.33L68.22,64.44c-.08.12-.16.24-.23.36a14,14,0,0,0,0,14.4l.09.14,21.08,33.1L43.22,210.3a1.08,1.08,0,0,0-.08.19A14,14,0,0,0,56,230H200a14,14,0,0,0,12.87-19.51ZM78.26,73a2,2,0,0,1-.05-1.89L96.32,45.23l2,2.51a38,38,0,0,0,59.34,0l2-2.51,18.11,25.86a2,2,0,0,1,0,1.89l-21,33H99.29ZM201.66,217.1a1.93,1.93,0,0,1-1.67.9H56a2,2,0,0,1-1.87-2.72L99.81,118h56.38l45.67,97.28A1.92,1.92,0,0,1,201.66,217.1Z"/>
  </g>
  <g id="Regular-M" transform="matrix(0.273438 0 0 0.273438 1403.07 1056.0)">
   <path d="M212.86,210.49a1.08,1.08,0,0,0-.08-.19l-45.94-97.86,21.08-33.1.09-.14a14,14,0,0,0,0-14.4c-.07-.12-.15-.24-.23-.36L166,33.33V8a6,6,0,0,0-12,0V33.12l-5.7,7.12a26,26,0,0,1-40.6,0L102,33.12V8A6,6,0,0,0,90,8V33.33L68.22,64.44c-.08.12-.16.24-.23.36a14,14,0,0,0,0,14.4l.09.14,21.08,33.1L43.22,210.3a1.08,1.08,0,0,0-.08.19A14,14,0,0,0,56,230H200a14,14,0,0,0,12.87-19.51ZM78.26,73a2,2,0,0,1-.05-1.89L96.32,45.23l2,2.51a38,38,0,0,0,59.34,0l2-2.51,18.11,25.86a2,2,0,0,1,0,1.89l-21,33H99.29ZM201.66,217.1a1.93,1.93,0,0,1-1.67.9H56a2,2,0,0,1-1.87-2.72L99.81,118h56.38l45.67,97.28A1.92,1.92,0,0,1,201.66,217.1Z"/>
  </g>
  <g id="Black-M" transform="matrix(0.273438 0 0 0.273438 2881.72 1056.0)">
   <path d="M212.86,210.49a1.08,1.08,0,0,0-.08-.19l-45.94-97.86,21.08-33.1.09-.14a14,14,0,0,0,0-14.4c-.07-.12-.15-.24-.23-.36L166,33.33V8a6,6,0,0,0-12,0V33.12l-5.7,7.12a26,26,0,0,1-40.6,0L102,33.12V8A6,6,0,0,0,90,8V33.33L68.22,64.44c-.08.12-.16.24-.23.36a14,14,0,0,0,0,14.4l.09.14,21.08,33.1L43.22,210.3a1.08,1.08,0,0,0-.08.19A14,14,0,0,0,56,230H200a14,14,0,0,0,12.87-19.51ZM78.26,73a2,2,0,0,1-.05-1.89L96.32,45.23l2,2.51a38,38,0,0,0,59.34,0l2-2.51,18.11,25.86a2,2,0,0,1,0,1.89l-21,33H99.29ZM201.66,217.1a1.93,1.93,0,0,1-1.67.9H56a2,2,0,0,1-1.87-2.72L99.81,118h56.38l45.67,97.28A1.92,1.92,0,0,1,201.66,217.1Z"/>
  </g>
  <g id="Ultralight-L" transform="matrix(0.273438 0 0 0.273438 515.84 1486.0)">
   <path d="M212.86,210.49a1.08,1.08,0,0,0-.08-.19l-45.94-97.86,21.08-33.1.09-.14a14,14,0,0,0,0-14.4c-.07-.12-.15-.24-.23-.36L166,33.33V8a6,6,0,0,0-12,0V33.12l-5.7,7.12a26,26,0,0,1-40.6,0L102,33.12V8A6,6,0,0,0,90,8V33.33L68.22,64.44c-.08.12-.16.24-.23.36a14,14,0,0,0,0,14.4l.09.14,21.08,33.1L43.22,210.3a1.08,1.08,0,0,0-.08.19A14,14,0,0,0,56,230H200a14,14,0,0,0,12.87-19.51ZM78.26,73a2,2,0,0,1-.05-1.89L96.32,45.23l2,2.51a38,38,0,0,0,59.34,0l2-2.51,18.11,25.86a2,2,0,0,1,0,1.89l-21,33H99.29ZM201.66,217.1a1.93,1.93,0,0,1-1.67.9H56a2,2,0,0,1-1.87-2.72L99.81,118h56.38l45.67,97.28A1.92,1.92,0,0,1,201.66,217.1Z"/>
  </g>
  <g id="Regular-L" transform="matrix(0.273438 0 0 0.273438 1403.07 1486.0)">
   <path d="M212.86,210.49a1.08,1.08,0,0,0-.08-.19l-45.94-97.86,21.08-33.1.09-.14a14,14,0,0,0,0-14.4c-.07-.12-.15-.24-.23-.36L166,33.33V8a6,6,0,0,0-12,0V33.12l-5.7,7.12a26,26,0,0,1-40.6,0L102,33.12V8A6,6,0,0,0,90,8V33.33L68.22,64.44c-.08.12-.16.24-.23.36a14,14,0,0,0,0,14.4l.09.14,21.08,33.1L43.22,210.3a1.08,1.08,0,0,0-.08.19A14,14,0,0,0,56,230H200a14,14,0,0,0,12.87-19.51ZM78.26,73a2,2,0,0,1-.05-1.89L96.32,45.23l2,2.51a38,38,0,0,0,59.34,0l2-2.51,18.11,25.86a2,2,0,0,1,0,1.89l-21,33H99.29ZM201.66,217.1a1.93,1.93,0,0,1-1.67.9H56a2,2,0,0,1-1.87-2.72L99.81,118h56.38l45.67,97.28A1.92,1.92,0,0,1,201.66,217.1Z"/>
  </g>
  <g id="Black-L" transform="matrix(0.273438 0 0 0.273438 2881.72 1486.0)">
   <path d="M212.86,210.49a1.08,1.08,0,0,0-.08-.19l-45.94-97.86,21.08-33.1.09-.14a14,14,0,0,0,0-14.4c-.07-.12-.15-.24-.23-.36L166,33.33V8a6,6,0,0,0-12,0V33.12l-5.7,7.12a26,26,0,0,1-40.6,0L102,33.12V8A6,6,0,0,0,90,8V33.33L68.22,64.44c-.08.12-.16.24-.23.36a14,14,0,0,0,0,14.4l.09.14,21.08,33.1L43.22,210.3a1.08,1.08,0,0,0-.08.19A14,14,0,0,0,56,230H200a14,14,0,0,0,12.87-19.51ZM78.26,73a2,2,0,0,1-.05-1.89L96.32,45.23l2,2.51a38,38,0,0,0,59.34,0l2-2.51,18.11,25.86a2,2,0,0,1,0,1.89l-21,33H99.29ZM201.66,217.1a1.93,1.93,0,0,1-1.67.9H56a2,2,0,0,1-1.87-2.72L99.81,118h56.38l45.67,97.28A1.92,1.92,0,0,1,201.66,217.1Z"/>
  </g>
 </g>
</svg>
