<?xml version="1.0" encoding="UTF-8"?>
<svg version="1.1" xmlns="http://www.w3.org/2000/svg" xmlns:xlink="http://www.w3.org/1999/xlink" viewBox="0 0 3300 2200">
 <g id="Notes">
  <rect height="2200" id="artboard" style="fill:white;opacity:1" width="3300" x="0" y="0"/>
 </g>
 <g id="Guides">
  <line id="Baseline-S" style="fill:none;stroke:#27AAE1;stroke-width:0.5;" x1="263" x2="3036" y1="696.0" y2="696.0"/>
  <line id="Capline-S" style="fill:none;stroke:#27AAE1;stroke-width:0.5;" x1="263" x2="3036" y1="626.0" y2="626.0"/>
  <line id="left-margin-Ultralight-S" style="fill:none;stroke:#FF3B30;stroke-width:0.5;" x1="515.84" x2="515.84" y1="601.0" y2="720.0"/>
  <line id="right-margin-Ultralight-S" style="fill:none;stroke:#00AEEF;stroke-width:0.5;" x1="585.84" x2="585.84" y1="601.0" y2="720.0"/>
  <line id="left-margin-Regular-S" style="fill:none;stroke:#FF3B30;stroke-width:0.5;" x1="1403.07" x2="1403.07" y1="601.0" y2="720.0"/>
  <line id="right-margin-Regular-S" style="fill:none;stroke:#00AEEF;stroke-width:0.5;" x1="1473.07" x2="1473.07" y1="601.0" y2="720.0"/>
  <line id="left-margin-Black-S" style="fill:none;stroke:#FF3B30;stroke-width:0.5;" x1="2881.72" x2="2881.72" y1="601.0" y2="720.0"/>
  <line id="right-margin-Black-S" style="fill:none;stroke:#00AEEF;stroke-width:0.5;" x1="2951.72" x2="2951.72" y1="601.0" y2="720.0"/>
  <line id="Baseline-M" style="fill:none;stroke:#27AAE1;stroke-width:0.5;" x1="263" x2="3036" y1="1126.0" y2="1126.0"/>
  <line id="Capline-M" style="fill:none;stroke:#27AAE1;stroke-width:0.5;" x1="263" x2="3036" y1="1056.0" y2="1056.0"/>
  <line id="left-margin-Ultralight-M" style="fill:none;stroke:#FF3B30;stroke-width:0.5;" x1="515.84" x2="515.84" y1="1031.0" y2="1150.0"/>
  <line id="right-margin-Ultralight-M" style="fill:none;stroke:#00AEEF;stroke-width:0.5;" x1="585.84" x2="585.84" y1="1031.0" y2="1150.0"/>
  <line id="left-margin-Regular-M" style="fill:none;stroke:#FF3B30;stroke-width:0.5;" x1="1403.07" x2="1403.07" y1="1031.0" y2="1150.0"/>
  <line id="right-margin-Regular-M" style="fill:none;stroke:#00AEEF;stroke-width:0.5;" x1="1473.07" x2="1473.07" y1="1031.0" y2="1150.0"/>
  <line id="left-margin-Black-M" style="fill:none;stroke:#FF3B30;stroke-width:0.5;" x1="2881.72" x2="2881.72" y1="1031.0" y2="1150.0"/>
  <line id="right-margin-Black-M" style="fill:none;stroke:#00AEEF;stroke-width:0.5;" x1="2951.72" x2="2951.72" y1="1031.0" y2="1150.0"/>
  <line id="Baseline-L" style="fill:none;stroke:#27AAE1;stroke-width:0.5;" x1="263" x2="3036" y1="1556.0" y2="1556.0"/>
  <line id="Capline-L" style="fill:none;stroke:#27AAE1;stroke-width:0.5;" x1="263" x2="3036" y1="1486.0" y2="1486.0"/>
  <line id="left-margin-Ultralight-L" style="fill:none;stroke:#FF3B30;stroke-width:0.5;" x1="515.84" x2="515.84" y1="1461.0" y2="1580.0"/>
  <line id="right-margin-Ultralight-L" style="fill:none;stroke:#00AEEF;stroke-width:0.5;" x1="585.84" x2="585.84" y1="1461.0" y2="1580.0"/>
  <line id="left-margin-Regular-L" style="fill:none;stroke:#FF3B30;stroke-width:0.5;" x1="1403.07" x2="1403.07" y1="1461.0" y2="1580.0"/>
  <line id="right-margin-Regular-L" style="fill:none;stroke:#00AEEF;stroke-width:0.5;" x1="1473.07" x2="1473.07" y1="1461.0" y2="1580.0"/>
  <line id="left-margin-Black-L" style="fill:none;stroke:#FF3B30;stroke-width:0.5;" x1="2881.72" x2="2881.72" y1="1461.0" y2="1580.0"/>
  <line id="right-margin-Black-L" style="fill:none;stroke:#00AEEF;stroke-width:0.5;" x1="2951.72" x2="2951.72" y1="1461.0" y2="1580.0"/>
 </g>
 <g id="Symbols">
  <g id="Ultralight-S" transform="matrix(0.375000 0 0 0.375000 515.84 613.0)">
   <path d="M183,113.65l30.1-28.32.13-.13A30,30,0,0,0,170.8,42.77l-.13.13L142.35,73,58.05,42.35a6,6,0,0,0-6.29,1.39l-24,24A6,6,0,0,0,28.67,77l65.92,43.94L77.52,138H56a6,6,0,0,0-4.24,1.76l-24,24a6,6,0,0,0,2,9.82l37.62,15,15,37.56,0,.12a6,6,0,0,0,7.81,3.27,5.94,5.94,0,0,0,2.07-1.41l23.91-23.91A6,6,0,0,0,118,200V178.48l17.07-17.07L179,227.33a6,6,0,0,0,9.23.91l24-24a6,6,0,0,0,1.39-6.29Zm1.94,100.93L141,148.66a6,6,0,0,0-4.4-2.64l-.59,0a6,6,0,0,0-4.24,1.76l-24,24A6,6,0,0,0,106,176v21.52L90.2,213.32,77.57,181.77a6,6,0,0,0-3.34-3.35L42.68,165.8,58.49,150H80a6,6,0,0,0,4.25-1.76l24-24a6,6,0,0,0-.92-9.23L41.42,71.06,57.54,54.93,142,85.63a6,6,0,0,0,6.42-1.53l31-32.9A18,18,0,0,1,204.8,76.66l-32.9,31a6,6,0,0,0-1.53,6.42l30.7,84.41Z"/>
  </g>
  <g id="Regular-S" transform="matrix(0.375000 0 0 0.375000 1403.07 613.0)">
   <path d="M183,113.65l30.1-28.32.13-.13A30,30,0,0,0,170.8,42.77l-.13.13L142.35,73,58.05,42.35a6,6,0,0,0-6.29,1.39l-24,24A6,6,0,0,0,28.67,77l65.92,43.94L77.52,138H56a6,6,0,0,0-4.24,1.76l-24,24a6,6,0,0,0,2,9.82l37.62,15,15,37.56,0,.12a6,6,0,0,0,7.81,3.27,5.94,5.94,0,0,0,2.07-1.41l23.91-23.91A6,6,0,0,0,118,200V178.48l17.07-17.07L179,227.33a6,6,0,0,0,9.23.91l24-24a6,6,0,0,0,1.39-6.29Zm1.94,100.93L141,148.66a6,6,0,0,0-4.4-2.64l-.59,0a6,6,0,0,0-4.24,1.76l-24,24A6,6,0,0,0,106,176v21.52L90.2,213.32,77.57,181.77a6,6,0,0,0-3.34-3.35L42.68,165.8,58.49,150H80a6,6,0,0,0,4.25-1.76l24-24a6,6,0,0,0-.92-9.23L41.42,71.06,57.54,54.93,142,85.63a6,6,0,0,0,6.42-1.53l31-32.9A18,18,0,0,1,204.8,76.66l-32.9,31a6,6,0,0,0-1.53,6.42l30.7,84.41Z"/>
  </g>
  <g id="Black-S" transform="matrix(0.375000 0 0 0.375000 2881.72 613.0)">
   <path d="M183,113.65l30.1-28.32.13-.13A30,30,0,0,0,170.8,42.77l-.13.13L142.35,73,58.05,42.35a6,6,0,0,0-6.29,1.39l-24,24A6,6,0,0,0,28.67,77l65.92,43.94L77.52,138H56a6,6,0,0,0-4.24,1.76l-24,24a6,6,0,0,0,2,9.82l37.62,15,15,37.56,0,.12a6,6,0,0,0,7.81,3.27,5.94,5.94,0,0,0,2.07-1.41l23.91-23.91A6,6,0,0,0,118,200V178.48l17.07-17.07L179,227.33a6,6,0,0,0,9.23.91l24-24a6,6,0,0,0,1.39-6.29Zm1.94,100.93L141,148.66a6,6,0,0,0-4.4-2.64l-.59,0a6,6,0,0,0-4.24,1.76l-24,24A6,6,0,0,0,106,176v21.52L90.2,213.32,77.57,181.77a6,6,0,0,0-3.34-3.35L42.68,165.8,58.49,150H80a6,6,0,0,0,4.25-1.76l24-24a6,6,0,0,0-.92-9.23L41.42,71.06,57.54,54.93,142,85.63a6,6,0,0,0,6.42-1.53l31-32.9A18,18,0,0,1,204.8,76.66l-32.9,31a6,6,0,0,0-1.53,6.42l30.7,84.41Z"/>
  </g>
  <g id="Ultralight-M" transform="matrix(0.375000 0 0 0.375000 515.84 1043.0)">
   <path d="M183,113.65l30.1-28.32.13-.13A30,30,0,0,0,170.8,42.77l-.13.13L142.35,73,58.05,42.35a6,6,0,0,0-6.29,1.39l-24,24A6,6,0,0,0,28.67,77l65.92,43.94L77.52,138H56a6,6,0,0,0-4.24,1.76l-24,24a6,6,0,0,0,2,9.82l37.62,15,15,37.56,0,.12a6,6,0,0,0,7.81,3.27,5.94,5.94,0,0,0,2.07-1.41l23.91-23.91A6,6,0,0,0,118,200V178.48l17.07-17.07L179,227.33a6,6,0,0,0,9.23.91l24-24a6,6,0,0,0,1.39-6.29Zm1.94,100.93L141,148.66a6,6,0,0,0-4.4-2.64l-.59,0a6,6,0,0,0-4.24,1.76l-24,24A6,6,0,0,0,106,176v21.52L90.2,213.32,77.57,181.77a6,6,0,0,0-3.34-3.35L42.68,165.8,58.49,150H80a6,6,0,0,0,4.25-1.76l24-24a6,6,0,0,0-.92-9.23L41.42,71.06,57.54,54.93,142,85.63a6,6,0,0,0,6.42-1.53l31-32.9A18,18,0,0,1,204.8,76.66l-32.9,31a6,6,0,0,0-1.53,6.42l30.7,84.41Z"/>
  </g>
  <g id="Regular-M" transform="matrix(0.375000 0 0 0.375000 1403.07 1043.0)">
   <path d="M183,113.65l30.1-28.32.13-.13A30,30,0,0,0,170.8,42.77l-.13.13L142.35,73,58.05,42.35a6,6,0,0,0-6.29,1.39l-24,24A6,6,0,0,0,28.67,77l65.92,43.94L77.52,138H56a6,6,0,0,0-4.24,1.76l-24,24a6,6,0,0,0,2,9.82l37.62,15,15,37.56,0,.12a6,6,0,0,0,7.81,3.27,5.94,5.94,0,0,0,2.07-1.41l23.91-23.91A6,6,0,0,0,118,200V178.48l17.07-17.07L179,227.33a6,6,0,0,0,9.23.91l24-24a6,6,0,0,0,1.39-6.29Zm1.94,100.93L141,148.66a6,6,0,0,0-4.4-2.64l-.59,0a6,6,0,0,0-4.24,1.76l-24,24A6,6,0,0,0,106,176v21.52L90.2,213.32,77.57,181.77a6,6,0,0,0-3.34-3.35L42.68,165.8,58.49,150H80a6,6,0,0,0,4.25-1.76l24-24a6,6,0,0,0-.92-9.23L41.42,71.06,57.54,54.93,142,85.63a6,6,0,0,0,6.42-1.53l31-32.9A18,18,0,0,1,204.8,76.66l-32.9,31a6,6,0,0,0-1.53,6.42l30.7,84.41Z"/>
  </g>
  <g id="Black-M" transform="matrix(0.375000 0 0 0.375000 2881.72 1043.0)">
   <path d="M183,113.65l30.1-28.32.13-.13A30,30,0,0,0,170.8,42.77l-.13.13L142.35,73,58.05,42.35a6,6,0,0,0-6.29,1.39l-24,24A6,6,0,0,0,28.67,77l65.92,43.94L77.52,138H56a6,6,0,0,0-4.24,1.76l-24,24a6,6,0,0,0,2,9.82l37.62,15,15,37.56,0,.12a6,6,0,0,0,7.81,3.27,5.94,5.94,0,0,0,2.07-1.41l23.91-23.91A6,6,0,0,0,118,200V178.48l17.07-17.07L179,227.33a6,6,0,0,0,9.23.91l24-24a6,6,0,0,0,1.39-6.29Zm1.94,100.93L141,148.66a6,6,0,0,0-4.4-2.64l-.59,0a6,6,0,0,0-4.24,1.76l-24,24A6,6,0,0,0,106,176v21.52L90.2,213.32,77.57,181.77a6,6,0,0,0-3.34-3.35L42.68,165.8,58.49,150H80a6,6,0,0,0,4.25-1.76l24-24a6,6,0,0,0-.92-9.23L41.42,71.06,57.54,54.93,142,85.63a6,6,0,0,0,6.42-1.53l31-32.9A18,18,0,0,1,204.8,76.66l-32.9,31a6,6,0,0,0-1.53,6.42l30.7,84.41Z"/>
  </g>
  <g id="Ultralight-L" transform="matrix(0.375000 0 0 0.375000 515.84 1473.0)">
   <path d="M183,113.65l30.1-28.32.13-.13A30,30,0,0,0,170.8,42.77l-.13.13L142.35,73,58.05,42.35a6,6,0,0,0-6.29,1.39l-24,24A6,6,0,0,0,28.67,77l65.92,43.94L77.52,138H56a6,6,0,0,0-4.24,1.76l-24,24a6,6,0,0,0,2,9.82l37.62,15,15,37.56,0,.12a6,6,0,0,0,7.81,3.27,5.94,5.94,0,0,0,2.07-1.41l23.91-23.91A6,6,0,0,0,118,200V178.48l17.07-17.07L179,227.33a6,6,0,0,0,9.23.91l24-24a6,6,0,0,0,1.39-6.29Zm1.94,100.93L141,148.66a6,6,0,0,0-4.4-2.64l-.59,0a6,6,0,0,0-4.24,1.76l-24,24A6,6,0,0,0,106,176v21.52L90.2,213.32,77.57,181.77a6,6,0,0,0-3.34-3.35L42.68,165.8,58.49,150H80a6,6,0,0,0,4.25-1.76l24-24a6,6,0,0,0-.92-9.23L41.42,71.06,57.54,54.93,142,85.63a6,6,0,0,0,6.42-1.53l31-32.9A18,18,0,0,1,204.8,76.66l-32.9,31a6,6,0,0,0-1.53,6.42l30.7,84.41Z"/>
  </g>
  <g id="Regular-L" transform="matrix(0.375000 0 0 0.375000 1403.07 1473.0)">
   <path d="M183,113.65l30.1-28.32.13-.13A30,30,0,0,0,170.8,42.77l-.13.13L142.35,73,58.05,42.35a6,6,0,0,0-6.29,1.39l-24,24A6,6,0,0,0,28.67,77l65.92,43.94L77.52,138H56a6,6,0,0,0-4.24,1.76l-24,24a6,6,0,0,0,2,9.82l37.62,15,15,37.56,0,.12a6,6,0,0,0,7.81,3.27,5.94,5.94,0,0,0,2.07-1.41l23.91-23.91A6,6,0,0,0,118,200V178.48l17.07-17.07L179,227.33a6,6,0,0,0,9.23.91l24-24a6,6,0,0,0,1.39-6.29Zm1.94,100.93L141,148.66a6,6,0,0,0-4.4-2.64l-.59,0a6,6,0,0,0-4.24,1.76l-24,24A6,6,0,0,0,106,176v21.52L90.2,213.32,77.57,181.77a6,6,0,0,0-3.34-3.35L42.68,165.8,58.49,150H80a6,6,0,0,0,4.25-1.76l24-24a6,6,0,0,0-.92-9.23L41.42,71.06,57.54,54.93,142,85.63a6,6,0,0,0,6.42-1.53l31-32.9A18,18,0,0,1,204.8,76.66l-32.9,31a6,6,0,0,0-1.53,6.42l30.7,84.41Z"/>
  </g>
  <g id="Black-L" transform="matrix(0.375000 0 0 0.375000 2881.72 1473.0)">
   <path d="M183,113.65l30.1-28.32.13-.13A30,30,0,0,0,170.8,42.77l-.13.13L142.35,73,58.05,42.35a6,6,0,0,0-6.29,1.39l-24,24A6,6,0,0,0,28.67,77l65.92,43.94L77.52,138H56a6,6,0,0,0-4.24,1.76l-24,24a6,6,0,0,0,2,9.82l37.62,15,15,37.56,0,.12a6,6,0,0,0,7.81,3.27,5.94,5.94,0,0,0,2.07-1.41l23.91-23.91A6,6,0,0,0,118,200V178.48l17.07-17.07L179,227.33a6,6,0,0,0,9.23.91l24-24a6,6,0,0,0,1.39-6.29Zm1.94,100.93L141,148.66a6,6,0,0,0-4.4-2.64l-.59,0a6,6,0,0,0-4.24,1.76l-24,24A6,6,0,0,0,106,176v21.52L90.2,213.32,77.57,181.77a6,6,0,0,0-3.34-3.35L42.68,165.8,58.49,150H80a6,6,0,0,0,4.25-1.76l24-24a6,6,0,0,0-.92-9.23L41.42,71.06,57.54,54.93,142,85.63a6,6,0,0,0,6.42-1.53l31-32.9A18,18,0,0,1,204.8,76.66l-32.9,31a6,6,0,0,0-1.53,6.42l30.7,84.41Z"/>
  </g>
 </g>
</svg>
